<svg width="53" height="52" viewBox="0 0 53 52" fill="none" xmlns="http://www.w3.org/2000/svg">
<g filter="url(#filter0_d_13446_11017)">
<g clip-path="url(#clip0_13446_11017)">
<rect x="2.33337" width="48" height="48" rx="12" fill="url(#paint0_linear_13446_11017)"/>
<rect x="2.33337" width="48" height="48" rx="12" fill="url(#paint1_linear_13446_11017)"/>
<g opacity="0.2" filter="url(#filter1_f_13446_11017)">
<path d="M26.3334 10C26.5863 10 26.8393 10.055 27.0702 10.1595L37.4245 14.553C38.6342 15.0644 39.536 16.2577 39.5305 17.6984C39.503 23.1532 37.2595 33.1335 27.7851 37.6701C26.8668 38.11 25.8 38.11 24.8817 37.6701C15.4072 33.1335 13.1637 23.1532 13.1362 17.6984C13.1307 16.2577 14.0325 15.0644 15.2422 14.553L25.602 10.1595C25.8275 10.055 26.0804 10 26.3334 10ZM26.3334 13.6732V34.4588C33.9217 30.7855 35.9618 22.6528 36.0113 17.7753L26.3334 13.6732Z" fill="#9152FF"/>
</g>
<g opacity="0.4" filter="url(#filter2_f_13446_11017)">
<path d="M26.3334 10C26.5863 10 26.8393 10.055 27.0702 10.1595L37.4245 14.553C38.6342 15.0644 39.536 16.2577 39.5305 17.6984C39.503 23.1532 37.2595 33.1335 27.7851 37.6701C26.8668 38.11 25.8 38.11 24.8817 37.6701C15.4072 33.1335 13.1637 23.1532 13.1362 17.6984C13.1307 16.2577 14.0325 15.0644 15.2422 14.553L25.602 10.1595C25.8275 10.055 26.0804 10 26.3334 10ZM26.3334 13.6732V34.4588C33.9217 30.7855 35.9618 22.6528 36.0113 17.7753L26.3334 13.6732Z" fill="#9152FF"/>
</g>
<g opacity="0.6" filter="url(#filter3_f_13446_11017)">
<path d="M26.3334 10C26.5863 10 26.8393 10.055 27.0702 10.1595L37.4245 14.553C38.6342 15.0644 39.536 16.2577 39.5305 17.6984C39.503 23.1532 37.2595 33.1335 27.7851 37.6701C26.8668 38.11 25.8 38.11 24.8817 37.6701C15.4072 33.1335 13.1637 23.1532 13.1362 17.6984C13.1307 16.2577 14.0325 15.0644 15.2422 14.553L25.602 10.1595C25.8275 10.055 26.0804 10 26.3334 10ZM26.3334 13.6732V34.4588C33.9217 30.7855 35.9618 22.6528 36.0113 17.7753L26.3334 13.6732Z" fill="#9152FF"/>
</g>
<path d="M26.3334 10C26.5863 10 26.8393 10.055 27.0702 10.1595L37.4245 14.553C38.6342 15.0644 39.536 16.2577 39.5305 17.6984C39.503 23.1532 37.2595 33.1335 27.7851 37.6701C26.8668 38.11 25.8 38.11 24.8817 37.6701C15.4072 33.1335 13.1637 23.1532 13.1362 17.6984C13.1307 16.2577 14.0325 15.0644 15.2422 14.553L25.602 10.1595C25.8275 10.055 26.0804 10 26.3334 10ZM26.3334 13.6732V34.4588C33.9217 30.7855 35.9618 22.6528 36.0113 17.7753L26.3334 13.6732Z" fill="#9152FF"/>
</g>
<rect x="2.83337" y="0.5" width="47" height="47" rx="11.5" stroke="white" stroke-opacity="0.06"/>
</g>
<defs>
<filter id="filter0_d_13446_11017" x="0.333374" y="0" width="52" height="52" filterUnits="userSpaceOnUse" color-interpolation-filters="sRGB">
<feFlood flood-opacity="0" result="BackgroundImageFix"/>
<feColorMatrix in="SourceAlpha" type="matrix" values="0 0 0 0 0 0 0 0 0 0 0 0 0 0 0 0 0 0 127 0" result="hardAlpha"/>
<feOffset dy="2"/>
<feGaussianBlur stdDeviation="1"/>
<feComposite in2="hardAlpha" operator="out"/>
<feColorMatrix type="matrix" values="0 0 0 0 0 0 0 0 0 0 0 0 0 0 0 0 0 0 0.16 0"/>
<feBlend mode="normal" in2="BackgroundImageFix" result="effect1_dropShadow_13446_11017"/>
<feBlend mode="normal" in="SourceGraphic" in2="effect1_dropShadow_13446_11017" result="shape"/>
</filter>
<filter id="filter1_f_13446_11017" x="9.13617" y="6" width="34.3944" height="36" filterUnits="userSpaceOnUse" color-interpolation-filters="sRGB">
<feFlood flood-opacity="0" result="BackgroundImageFix"/>
<feBlend mode="normal" in="SourceGraphic" in2="BackgroundImageFix" result="shape"/>
<feGaussianBlur stdDeviation="2" result="effect1_foregroundBlur_13446_11017"/>
</filter>
<filter id="filter2_f_13446_11017" x="5.13617" y="2" width="42.3944" height="44" filterUnits="userSpaceOnUse" color-interpolation-filters="sRGB">
<feFlood flood-opacity="0" result="BackgroundImageFix"/>
<feBlend mode="normal" in="SourceGraphic" in2="BackgroundImageFix" result="shape"/>
<feGaussianBlur stdDeviation="4" result="effect1_foregroundBlur_13446_11017"/>
</filter>
<filter id="filter3_f_13446_11017" x="-2.86383" y="-6" width="58.3944" height="60" filterUnits="userSpaceOnUse" color-interpolation-filters="sRGB">
<feFlood flood-opacity="0" result="BackgroundImageFix"/>
<feBlend mode="normal" in="SourceGraphic" in2="BackgroundImageFix" result="shape"/>
<feGaussianBlur stdDeviation="8" result="effect1_foregroundBlur_13446_11017"/>
</filter>
<linearGradient id="paint0_linear_13446_11017" x1="2.40673" y1="-0.222234" x2="50.2574" y2="48.1135" gradientUnits="userSpaceOnUse">
<stop stop-color="#232328"/>
<stop offset="0.5" stop-color="#1F1F23"/>
<stop offset="0.878699" stop-color="#18181B"/>
</linearGradient>
<linearGradient id="paint1_linear_13446_11017" x1="2.40673" y1="-0.222236" x2="26.3332" y2="24.2222" gradientUnits="userSpaceOnUse">
<stop stop-color="white" stop-opacity="0.12"/>
<stop offset="0.5" stop-color="#808080" stop-opacity="0.06"/>
<stop offset="1" stop-opacity="0"/>
</linearGradient>
<clipPath id="clip0_13446_11017">
<rect x="2.33337" width="48" height="48" rx="12" fill="white"/>
</clipPath>
</defs>
</svg>
