<svg width="544" height="362" viewBox="0 0 544 362" fill="none" xmlns="http://www.w3.org/2000/svg">
<g clip-path="url(#clip0_13275_11031)">
<rect width="272" height="362" fill="#26262B"/>
<rect x="116.5" y="32.5" width="39" height="39" rx="19.5" stroke="#31313A"/>
<path d="M131.754 47.464C134.106 47.464 135.258 46.312 135.282 43.96H138.93V61H134.298V50.704H130.458V47.464H131.754Z" fill="#D3D3DE"/>
<path d="M43.6182 108.308C44.0662 110.632 45.6622 112.144 48.3782 112.144C50.4782 112.144 51.9062 111.304 51.8782 109.708C51.8782 108.056 50.4502 107.132 47.0902 106.264C43.1422 105.312 40.3142 103.632 40.3142 100.412C40.3142 96.884 43.1982 94.672 47.4822 94.672C51.9062 94.672 54.8462 97.36 55.2942 101.28L51.5982 101.448C51.3182 99.264 49.7222 97.836 47.4262 97.836C45.4382 97.836 44.0382 98.872 44.0662 100.44C44.1222 102.4 46.4462 102.96 48.6302 103.52C52.7742 104.528 55.6302 106.404 55.6302 109.54C55.6302 113.292 52.2982 115.336 48.2382 115.336C43.5342 115.336 40.2302 112.676 39.9222 108.532L43.6182 108.308ZM71.8966 115H68.5646L68.5086 112.62C67.6966 114.58 66.0446 115.336 64.1126 115.336C60.8926 115.336 59.1006 113.04 59.1006 109.708V100.16H62.7406V108.532C62.7406 111.024 63.3846 112.396 65.2326 112.396C67.1366 112.396 68.2566 111.024 68.2566 108.532V100.16H71.8966V115ZM75.8077 119.2V100.16H79.2517L79.3357 102.288C80.1477 100.692 81.6877 99.824 83.7877 99.824C88.0717 99.824 90.1437 103.324 90.1437 107.58C90.1437 111.836 88.0717 115.336 83.7877 115.336C81.7997 115.336 80.3157 114.524 79.4477 112.984V119.2H75.8077ZM79.1677 107.58C79.1677 110.128 80.2597 112.424 82.7797 112.424C85.2997 112.424 86.3917 110.128 86.3917 107.58C86.3917 105.06 85.2717 102.736 82.7797 102.736C80.2597 102.736 79.1677 105.06 79.1677 107.58ZM93.0616 119.2V100.16H96.5056L96.5896 102.288C97.4016 100.692 98.9416 99.824 101.042 99.824C105.326 99.824 107.398 103.324 107.398 107.58C107.398 111.836 105.326 115.336 101.042 115.336C99.0536 115.336 97.5696 114.524 96.7016 112.984V119.2H93.0616ZM96.4216 107.58C96.4216 110.128 97.5136 112.424 100.034 112.424C102.554 112.424 103.646 110.128 103.646 107.58C103.646 105.06 102.526 102.736 100.034 102.736C97.5136 102.736 96.4216 105.06 96.4216 107.58ZM110.534 95.12H114.174V111.108C114.174 111.808 114.538 112.172 115.21 112.172H116.358V115H114.258C112.046 115 110.534 113.628 110.534 111.276V95.12ZM117.037 100.16H120.593L124.513 111.192L128.321 100.16H131.849L125.941 116.568C125.325 118.388 124.093 119.2 122.105 119.2H119.669V116.428H121.489C122.301 116.428 122.749 116.148 123.057 115.476L123.477 114.412H122.413L117.037 100.16ZM139.735 115L146.903 95.12H151.355L158.523 115H154.687L153.062 110.324H145.195L143.571 115H139.735ZM146.287 107.16H151.971L149.115 98.816L146.287 107.16ZM169.473 104.892C169.221 103.436 167.877 102.54 166.477 102.54C165.105 102.54 164.013 103.268 164.041 104.444C164.069 105.648 165.553 106.18 167.009 106.432C171.041 107.104 173.309 108.168 173.309 111.024C173.309 113.964 170.453 115.336 166.981 115.336C162.921 115.336 160.177 113.432 159.953 110.296L163.621 110.1C163.901 111.64 165.049 112.592 166.925 112.592C168.101 112.592 169.585 112.144 169.585 110.94C169.557 109.512 167.933 109.288 166.421 108.952C162.781 108.224 160.289 107.3 160.289 104.5C160.289 101.588 162.725 99.796 166.673 99.796C170.173 99.796 172.665 101.7 173.141 104.724L169.473 104.892ZM185.196 104.892C184.944 103.436 183.6 102.54 182.2 102.54C180.828 102.54 179.736 103.268 179.764 104.444C179.792 105.648 181.276 106.18 182.732 106.432C186.764 107.104 189.032 108.168 189.032 111.024C189.032 113.964 186.176 115.336 182.704 115.336C178.644 115.336 175.9 113.432 175.676 110.296L179.344 110.1C179.624 111.64 180.772 112.592 182.648 112.592C183.824 112.592 185.308 112.144 185.308 110.94C185.28 109.512 183.656 109.288 182.144 108.952C178.504 108.224 176.012 107.3 176.012 104.5C176.012 101.588 178.448 99.796 182.396 99.796C185.896 99.796 188.388 101.7 188.864 104.724L185.196 104.892ZM191.399 107.58C191.399 102.876 194.311 99.824 198.735 99.824C202.543 99.824 205.651 102.4 205.707 107.664L205.735 108.56H195.179C195.347 111.024 196.635 112.48 198.735 112.48C200.079 112.48 201.283 111.724 201.815 110.436L205.511 110.716C204.643 113.572 201.955 115.336 198.735 115.336C194.311 115.336 191.399 112.284 191.399 107.58ZM195.235 106.152H201.983C201.703 103.632 200.303 102.68 198.735 102.68C196.775 102.68 195.515 103.996 195.235 106.152ZM209.721 96.8H213.361V100.16H217.281V102.96H213.361V110.436C213.361 111.584 213.921 112.172 215.041 112.172H217.281V115H214.425C211.373 115 209.721 113.46 209.721 110.436V102.96H207.397V100.16H209.721V96.8ZM228.563 104.892C228.311 103.436 226.967 102.54 225.567 102.54C224.195 102.54 223.103 103.268 223.131 104.444C223.159 105.648 224.643 106.18 226.099 106.432C230.131 107.104 232.399 108.168 232.399 111.024C232.399 113.964 229.543 115.336 226.071 115.336C222.011 115.336 219.267 113.432 219.043 110.296L222.711 110.1C222.991 111.64 224.139 112.592 226.015 112.592C227.191 112.592 228.675 112.144 228.675 110.94C228.647 109.512 227.023 109.288 225.511 108.952C221.871 108.224 219.379 107.3 219.379 104.5C219.379 101.588 221.815 99.796 225.763 99.796C229.263 99.796 231.755 101.7 232.231 104.724L228.563 104.892Z" fill="#D3D3DE"/>
<path d="M46.144 159.936C46.144 162.592 44.4 164.256 41.6 164.256C38.8 164.256 37.04 162.592 37.04 159.936V152.624H39.136V159.936C39.136 161.552 40.032 162.416 41.6 162.416C43.152 162.416 44.048 161.552 44.048 159.936V152.624H46.144V159.936ZM48.4275 155.52H50.2995L50.3475 156.896C50.8115 155.776 51.7715 155.328 52.9075 155.328C54.7795 155.328 55.8035 156.64 55.8035 158.544V164H53.7395V159.2C53.7395 157.792 53.3715 157.008 52.2835 157.008C51.1475 157.008 50.5075 157.792 50.5075 159.2V164H48.4275V155.52ZM58.1569 155.52H60.2369V164H58.1569V155.52ZM58.1249 154.336V152.64H60.2689V154.336H58.1249ZM67.5345 158.224C67.3905 157.392 66.6225 156.88 65.8225 156.88C65.0385 156.88 64.4145 157.296 64.4305 157.968C64.4465 158.656 65.2945 158.96 66.1265 159.104C68.4305 159.488 69.7265 160.096 69.7265 161.728C69.7265 163.408 68.0945 164.192 66.1105 164.192C63.7905 164.192 62.2225 163.104 62.0945 161.312L64.1905 161.2C64.3505 162.08 65.0065 162.624 66.0785 162.624C66.7505 162.624 67.5985 162.368 67.5985 161.68C67.5825 160.864 66.6545 160.736 65.7905 160.544C63.7105 160.128 62.2865 159.6 62.2865 158C62.2865 156.336 63.6785 155.312 65.9345 155.312C67.9345 155.312 69.3585 156.4 69.6305 158.128L67.5345 158.224ZM77.6897 155.52L79.4338 161.632L81.1458 155.52H83.1778L80.5857 164H78.4578L76.7937 158.32L75.1297 164H73.0017L70.4097 155.52H72.4417L74.1537 161.632L75.8977 155.52H77.6897ZM84.1187 158.096C84.4547 156.352 85.8307 155.328 87.9107 155.328C90.3587 155.328 91.6547 156.592 91.6547 158.976V161.872C91.6547 162.368 91.8627 162.496 92.1827 162.496H92.5027V164L92.0227 164.016C91.3667 164.016 90.0067 164.032 89.8467 162.72C89.4627 163.552 88.5027 164.192 87.0307 164.192C85.3347 164.192 83.9907 163.28 83.9907 161.776C83.9907 160.128 85.2067 159.6 87.1907 159.2L89.5747 158.72C89.5587 157.44 89.0147 156.816 87.9107 156.816C87.0147 156.816 86.4387 157.296 86.2307 158.224L84.1187 158.096ZM86.1187 161.712C86.1187 162.288 86.5987 162.736 87.5907 162.736C88.7427 162.736 89.6067 161.904 89.6067 160.224V160.128L88.0067 160.416C86.9347 160.624 86.1187 160.736 86.1187 161.712ZM94.1525 166.4V155.52H96.1205L96.1685 156.736C96.6325 155.824 97.5125 155.328 98.7125 155.328C101.161 155.328 102.345 157.328 102.345 159.76C102.345 162.192 101.161 164.192 98.7125 164.192C97.5765 164.192 96.7285 163.728 96.2325 162.848V166.4H94.1525ZM96.0725 159.76C96.0725 161.216 96.6965 162.528 98.1365 162.528C99.5765 162.528 100.201 161.216 100.201 159.76C100.201 158.32 99.5605 156.992 98.1365 156.992C96.6965 156.992 96.0725 158.32 96.0725 159.76ZM107.422 152.64H109.614L112.782 161.648L115.934 152.64H118.142L114.046 164H111.518L107.422 152.64ZM123.635 157.2C124.547 157.216 125.555 156.768 125.555 155.568C125.555 154.752 124.819 154.224 123.635 154.224C122.627 154.224 121.939 154.704 121.827 155.456L119.683 155.344C119.891 153.584 121.507 152.384 123.667 152.384C126.115 152.384 127.715 153.552 127.715 155.344C127.715 156.624 126.931 157.488 125.443 157.856C127.171 158.272 128.099 159.36 128.099 160.88C128.099 162.912 126.355 164.256 123.667 164.256C121.203 164.256 119.491 162.864 119.379 160.8L121.523 160.704C121.635 161.904 122.723 162.416 123.683 162.416C124.803 162.416 125.939 161.872 125.939 160.592C125.939 159.328 124.787 158.736 123.635 158.768L122.691 158.784V157.184L123.635 157.2ZM138.546 152.64C141.219 152.64 142.819 154 142.819 156.256C142.819 158.544 141.219 159.92 138.546 159.92H136.258V164H134.162V152.64H138.546ZM136.258 158.08H138.466C139.874 158.08 140.642 157.472 140.642 156.256C140.642 155.072 139.891 154.48 138.466 154.48H136.258V158.08ZM148.117 164.192C145.589 164.192 143.925 162.448 143.925 159.76C143.925 157.072 145.589 155.328 148.117 155.328C150.645 155.328 152.309 157.072 152.309 159.76C152.309 162.448 150.645 164.192 148.117 164.192ZM146.053 159.76C146.053 161.504 146.805 162.512 148.117 162.512C149.429 162.512 150.181 161.504 150.181 159.76C150.181 158.016 149.429 157.008 148.117 157.008C146.805 157.008 146.053 158.016 146.053 159.76ZM159.219 158.224C159.075 157.392 158.307 156.88 157.507 156.88C156.723 156.88 156.099 157.296 156.115 157.968C156.131 158.656 156.979 158.96 157.811 159.104C160.115 159.488 161.411 160.096 161.411 161.728C161.411 163.408 159.779 164.192 157.795 164.192C155.475 164.192 153.907 163.104 153.779 161.312L155.875 161.2C156.035 162.08 156.691 162.624 157.763 162.624C158.435 162.624 159.283 162.368 159.283 161.68C159.267 160.864 158.339 160.736 157.475 160.544C155.395 160.128 153.971 159.6 153.971 158C153.971 156.336 155.363 155.312 157.619 155.312C159.619 155.312 161.043 156.4 161.315 158.128L159.219 158.224ZM163.081 155.52H165.161V164H163.081V155.52ZM163.049 154.336V152.64H165.193V154.336H163.049ZM167.911 153.6H169.991V155.52H172.231V157.12H169.991V161.392C169.991 162.048 170.311 162.384 170.951 162.384H172.231V164H170.599C168.855 164 167.911 163.12 167.911 161.392V157.12H166.583V155.52H167.911V153.6ZM173.993 155.52H176.073V164H173.993V155.52ZM173.961 154.336V152.64H176.105V154.336H173.961ZM182.123 164.192C179.595 164.192 177.931 162.448 177.931 159.76C177.931 157.072 179.595 155.328 182.123 155.328C184.651 155.328 186.315 157.072 186.315 159.76C186.315 162.448 184.651 164.192 182.123 164.192ZM180.059 159.76C180.059 161.504 180.811 162.512 182.123 162.512C183.435 162.512 184.187 161.504 184.187 159.76C184.187 158.016 183.435 157.008 182.123 157.008C180.811 157.008 180.059 158.016 180.059 159.76ZM188.108 155.52H189.98L190.028 156.896C190.492 155.776 191.452 155.328 192.588 155.328C194.46 155.328 195.484 156.64 195.484 158.544V164H193.42V159.2C193.42 157.792 193.052 157.008 191.964 157.008C190.828 157.008 190.188 157.792 190.188 159.2V164H188.108V155.52Z" fill="#ABABBF"/>
<rect x="36" y="178" width="200" height="4" rx="2" fill="#4F4F63"/>
<rect x="36" y="178" width="112" height="4" rx="2" fill="#8061E5"/>
<g filter="url(#filter0_d_13275_11031)">
<rect x="144" y="172" width="16" height="16" rx="8" fill="white" shape-rendering="crispEdges"/>
<circle cx="152" cy="180" r="5.5" fill="#7F61E3"/>
</g>
<path d="M38.366 201.696C38.562 202.718 39.178 203.446 40.186 203.684V200.492C38.408 200.058 36.994 199.232 36.994 197.636C36.994 195.984 38.296 194.92 40.186 194.836V193.73H41.278V194.906C42.958 195.228 44.064 196.446 44.246 198.07L42.678 198.154C42.552 197.3 42.048 196.656 41.278 196.376V199.414C43.098 199.918 44.442 200.828 44.442 202.312C44.442 204.034 43 205.014 41.278 205.154V206.274H40.186V205.126C38.268 204.902 36.938 203.628 36.784 201.794L38.366 201.696ZM38.576 197.65C38.59 198.462 39.332 198.84 40.186 199.12V196.236C39.234 196.306 38.562 196.838 38.576 197.65ZM41.278 203.754C42.244 203.67 42.86 203.222 42.86 202.424C42.846 201.71 42.37 201.22 41.278 200.828V203.754ZM45.9145 195.06H53.0685V196.362C51.1365 198.784 49.8065 201.71 49.8485 205H48.2665C48.2665 201.85 49.5125 198.91 51.4725 196.46H45.9145V195.06ZM61.2287 195.06V196.46H56.8047L56.4267 199.274C56.9027 198.7 57.7987 198.378 58.6807 198.378C60.5707 198.378 61.9007 199.792 61.9007 201.752C61.9007 203.796 60.4167 205.224 58.3167 205.224C56.2587 205.224 54.7187 204.062 54.5787 202.382L56.1467 202.284C56.3147 203.264 57.2247 203.824 58.2887 203.824C59.4927 203.824 60.3187 202.97 60.3187 201.766C60.3187 200.492 59.4787 199.68 58.1907 199.68C57.3367 199.68 56.5947 200.072 56.3287 200.73H54.7187L55.4887 195.06H61.2287ZM67.6214 205.224C65.1154 205.224 63.5754 203.208 63.5754 200.044C63.5754 196.866 65.1154 194.836 67.6214 194.836C70.1274 194.836 71.6674 196.866 71.6674 200.044C71.6674 203.208 70.1274 205.224 67.6214 205.224ZM65.1714 200.044C65.1714 202.48 66.0394 203.824 67.6214 203.824C69.2034 203.824 70.0714 202.48 70.0714 200.044C70.0714 197.594 69.2034 196.236 67.6214 196.236C66.0394 196.236 65.1714 197.594 65.1714 200.044ZM74.6376 205L73.7836 207.184H72.9296L73.5036 205H72.8596V203.278H74.6376V205ZM79.878 205.224C77.372 205.224 75.832 203.208 75.832 200.044C75.832 196.866 77.372 194.836 79.878 194.836C82.384 194.836 83.924 196.866 83.924 200.044C83.924 203.208 82.384 205.224 79.878 205.224ZM77.428 200.044C77.428 202.48 78.296 203.824 79.878 203.824C81.46 203.824 82.328 202.48 82.328 200.044C82.328 197.594 81.46 196.236 79.878 196.236C78.296 196.236 77.428 197.594 77.428 200.044ZM89.5336 205.224C87.0276 205.224 85.4876 203.208 85.4876 200.044C85.4876 196.866 87.0276 194.836 89.5336 194.836C92.0396 194.836 93.5796 196.866 93.5796 200.044C93.5796 203.208 92.0396 205.224 89.5336 205.224ZM87.0836 200.044C87.0836 202.48 87.9516 203.824 89.5336 203.824C91.1156 203.824 91.9836 202.48 91.9836 200.044C91.9836 197.594 91.1156 196.236 89.5336 196.236C87.9516 196.236 87.0836 197.594 87.0836 200.044ZM99.1892 205.224C96.6832 205.224 95.1432 203.208 95.1432 200.044C95.1432 196.866 96.6832 194.836 99.1892 194.836C101.695 194.836 103.235 196.866 103.235 200.044C103.235 203.208 101.695 205.224 99.1892 205.224ZM96.7392 200.044C96.7392 202.48 97.6072 203.824 99.1892 203.824C100.771 203.824 101.639 202.48 101.639 200.044C101.639 197.594 100.771 196.236 99.1892 196.236C97.6072 196.236 96.7392 197.594 96.7392 200.044Z" fill="#F1F1F3"/>
<g clip-path="url(#clip1_13275_11031)">
<path d="M226 210C231.523 210 236 205.523 236 200C236 194.477 231.523 190 226 190C220.477 190 216 194.477 216 200C216 205.523 220.477 210 226 210Z" fill="white"/>
<path d="M226 210C225.323 210 224.648 209.932 223.984 209.797C222.069 209.403 220.311 208.455 218.929 207.071C218.016 206.16 217.289 205.08 216.786 203.893C216.53 203.288 216.335 202.659 216.203 202.016C215.932 200.686 215.932 199.315 216.203 197.985C216.465 196.706 216.976 195.491 217.707 194.409C218.793 192.801 220.321 191.543 222.107 190.786C222.712 190.53 223.341 190.335 223.984 190.203C225.314 189.932 226.685 189.932 228.015 190.203C229.294 190.465 230.509 190.977 231.591 191.708C233.198 192.793 234.457 194.322 235.213 196.108C235.469 196.713 235.664 197.341 235.796 197.985C236.067 199.315 236.067 200.686 235.796 202.015C235.534 203.295 235.023 204.51 234.291 205.591C233.206 207.199 231.678 208.457 229.892 209.214C229.287 209.47 228.658 209.665 228.015 209.797C227.352 209.932 226.677 210 226 210ZM226 190.235C225.339 190.234 224.679 190.301 224.032 190.433C222.782 190.689 221.596 191.188 220.54 191.902C218.969 192.962 217.74 194.455 217.001 196.199C216.752 196.79 216.561 197.404 216.432 198.032C216.168 199.331 216.168 200.67 216.432 201.968C216.688 203.218 217.187 204.404 217.902 205.461C218.962 207.031 220.454 208.26 222.199 208.999C222.789 209.248 223.403 209.439 224.032 209.568C225.33 209.832 226.669 209.832 227.968 209.568C229.217 209.312 230.404 208.813 231.46 208.098C233.03 207.038 234.259 205.546 234.998 203.801C235.248 203.211 235.439 202.597 235.567 201.968C235.832 200.67 235.832 199.331 235.567 198.032C235.311 196.783 234.812 195.596 234.098 194.54C233.038 192.97 231.545 191.741 229.801 191.002C229.21 190.752 228.596 190.562 227.968 190.433C227.32 190.301 226.661 190.234 226 190.235Z" fill="#FF007A"/>
<path d="M223.747 194.583C223.589 194.559 223.583 194.556 223.657 194.544C223.895 194.53 224.134 194.551 224.365 194.607C224.904 194.735 225.396 195.063 225.92 195.647L226.059 195.802L226.258 195.77C227.073 195.632 227.91 195.737 228.665 196.072C228.857 196.159 229.039 196.265 229.209 196.389C229.235 196.458 229.252 196.529 229.26 196.601C229.313 196.953 229.286 197.222 229.179 197.423C229.12 197.533 229.117 197.567 229.156 197.661C229.175 197.7 229.204 197.732 229.24 197.755C229.277 197.778 229.319 197.791 229.362 197.791C229.539 197.791 229.73 197.504 229.819 197.105L229.854 196.947L229.923 197.025C230.305 197.458 230.605 198.048 230.657 198.468L230.67 198.577L230.606 198.478C230.514 198.326 230.39 198.195 230.242 198.096C229.986 197.926 229.715 197.869 228.998 197.831C228.35 197.797 227.983 197.741 227.62 197.623C227.001 197.421 226.689 197.152 225.954 196.188C225.734 195.884 225.491 195.597 225.225 195.332C224.769 194.899 224.321 194.672 223.747 194.583Z" fill="#FF007A"/>
<path d="M229.355 195.539C229.358 195.316 229.403 195.096 229.489 194.89C229.506 194.846 229.528 194.804 229.553 194.765C229.548 194.804 229.538 194.842 229.523 194.877C229.464 195.094 229.455 195.321 229.496 195.542C229.546 195.88 229.574 195.929 229.932 196.295C230.1 196.467 230.296 196.683 230.367 196.776L230.495 196.945L230.367 196.824C230.178 196.652 229.978 196.492 229.767 196.348C229.713 196.32 229.705 196.321 229.672 196.354C229.642 196.384 229.635 196.429 229.631 196.645C229.624 196.981 229.579 197.197 229.468 197.412C229.408 197.529 229.399 197.504 229.453 197.372C229.493 197.274 229.498 197.231 229.497 196.906C229.497 196.252 229.419 196.095 228.964 195.826C228.849 195.758 228.659 195.659 228.542 195.607C228.471 195.579 228.402 195.545 228.336 195.507C228.552 195.552 228.764 195.614 228.971 195.692C229.237 195.794 229.281 195.807 229.313 195.795C229.334 195.787 229.345 195.724 229.355 195.539Z" fill="#FF007A"/>
<path d="M224.053 196.657C223.733 196.217 223.535 195.542 223.578 195.038L223.591 194.881L223.664 194.895C223.833 194.931 223.995 194.992 224.147 195.074C224.45 195.258 224.581 195.5 224.714 196.122C224.753 196.304 224.804 196.51 224.828 196.58C224.909 196.771 225.009 196.954 225.126 197.125C225.21 197.248 225.154 197.306 224.968 197.289C224.685 197.263 224.301 196.998 224.053 196.657Z" fill="#FF007A"/>
<path d="M228.968 199.933C227.474 199.331 226.948 198.809 226.948 197.928C226.945 197.849 226.948 197.771 226.958 197.692C227.003 197.721 227.046 197.753 227.086 197.787C227.389 198.03 227.728 198.134 228.667 198.271C229.22 198.352 229.531 198.417 229.818 198.512C230.73 198.815 231.294 199.428 231.429 200.264C231.464 200.577 231.448 200.894 231.382 201.203C231.332 201.392 231.179 201.734 231.138 201.747C231.127 201.751 231.116 201.708 231.113 201.649C231.101 201.485 231.056 201.325 230.98 201.18C230.905 201.034 230.8 200.905 230.673 200.801C230.369 200.541 229.963 200.333 228.968 199.933Z" fill="#FF007A"/>
<path d="M227.919 200.183C227.901 200.076 227.877 199.97 227.847 199.867L227.808 199.753L227.879 199.833C227.988 199.961 228.07 200.11 228.12 200.271C228.17 200.414 228.176 200.456 228.176 200.689C228.176 200.917 228.169 200.965 228.123 201.094C228.058 201.283 227.95 201.455 227.807 201.595C227.534 201.873 227.184 202.027 226.677 202.09C226.589 202.102 226.333 202.12 226.107 202.132C225.539 202.162 225.165 202.223 224.828 202.341C224.798 202.354 224.766 202.362 224.733 202.364C224.719 202.35 224.948 202.214 225.137 202.123C225.403 201.994 225.669 201.924 226.263 201.825C226.557 201.776 226.86 201.717 226.937 201.693C227.665 201.47 228.038 200.895 227.919 200.183Z" fill="#FF007A"/>
<path d="M228.604 201.399C228.405 200.972 228.36 200.56 228.468 200.176C228.48 200.135 228.499 200.101 228.51 200.101C228.547 200.115 228.582 200.134 228.614 200.158C228.705 200.219 228.889 200.323 229.378 200.59C229.987 200.922 230.335 201.18 230.572 201.474C230.781 201.737 230.918 202.05 230.969 202.383C230.999 202.681 230.987 202.982 230.931 203.277C230.861 203.581 230.728 203.866 230.54 204.115C230.353 204.363 230.115 204.57 229.843 204.721C229.791 204.75 229.738 204.777 229.684 204.8C229.697 204.742 229.719 204.687 229.748 204.636C229.838 204.456 229.89 204.259 229.902 204.058C229.913 203.858 229.883 203.657 229.814 203.468C229.729 203.214 229.557 202.905 229.208 202.382C228.803 201.775 228.703 201.613 228.604 201.399Z" fill="#FF007A"/>
<path d="M222.992 203.701C223.547 203.233 224.236 202.901 224.865 202.798C225.189 202.757 225.517 202.769 225.837 202.836C226.239 202.939 226.599 203.169 226.786 203.444C226.969 203.712 227.047 203.946 227.129 204.466C227.161 204.671 227.196 204.877 227.207 204.924C227.268 205.194 227.387 205.409 227.535 205.517C227.77 205.689 228.174 205.7 228.572 205.545C228.613 205.526 228.657 205.512 228.702 205.504C228.716 205.519 228.516 205.653 228.375 205.723C228.208 205.812 228.021 205.858 227.832 205.855C227.468 205.855 227.166 205.67 226.913 205.292C226.821 205.132 226.738 204.967 226.665 204.797C226.399 204.189 226.267 204.004 225.958 203.801C225.83 203.715 225.683 203.662 225.529 203.648C225.376 203.634 225.221 203.659 225.08 203.721C225.001 203.758 224.931 203.813 224.876 203.882C224.821 203.95 224.783 204.03 224.764 204.116C224.746 204.201 224.747 204.29 224.768 204.375C224.79 204.46 224.83 204.539 224.887 204.606C225.002 204.725 225.153 204.804 225.316 204.83C225.381 204.839 225.447 204.833 225.51 204.814C225.573 204.795 225.631 204.763 225.68 204.719C225.729 204.676 225.768 204.622 225.795 204.562C225.821 204.502 225.835 204.437 225.834 204.372C225.834 204.189 225.764 204.085 225.587 204.005C225.346 203.896 225.086 204.023 225.088 204.25C225.086 204.294 225.098 204.338 225.124 204.374C225.149 204.41 225.185 204.437 225.227 204.451C225.29 204.479 225.291 204.482 225.24 204.471C225.019 204.425 224.967 204.158 225.145 203.981C225.359 203.768 225.801 203.862 225.953 204.153C226.018 204.316 226.023 204.497 225.968 204.664C225.844 204.993 225.481 205.166 225.113 205.072C224.862 205.008 224.76 204.938 224.458 204.627C223.933 204.086 223.729 203.981 222.972 203.863L222.827 203.841L222.992 203.701Z" fill="#FF007A"/>
<path fill-rule="evenodd" clip-rule="evenodd" d="M220.87 194.164C222.624 196.292 223.489 197.027 223.624 197.212C223.734 197.366 223.693 197.503 223.503 197.611C223.369 197.679 223.222 197.72 223.072 197.732C222.936 197.727 222.807 197.672 222.71 197.577C222.638 197.51 222.351 197.08 221.687 196.05C221.179 195.261 220.753 194.607 220.742 194.597C220.715 194.571 220.715 194.572 221.635 196.217C222.212 197.25 222.407 197.616 222.407 197.664C222.407 197.764 222.38 197.816 222.257 197.953C222.053 198.181 221.962 198.437 221.896 198.967C221.822 199.561 221.614 199.981 221.038 200.699C220.701 201.119 220.646 201.196 220.561 201.366C220.461 201.551 220.41 201.758 220.412 201.968C220.395 202.22 220.429 202.472 220.511 202.71C220.595 202.963 220.716 203.203 220.871 203.421C221.046 203.692 221.147 203.894 221.147 203.973C221.147 204.036 221.159 204.036 221.431 203.975C222.082 203.828 222.611 203.57 222.908 203.253C223.092 203.057 223.135 202.948 223.136 202.68C223.137 202.504 223.131 202.467 223.084 202.366C223.006 202.202 222.866 202.065 222.555 201.853C222.149 201.575 221.975 201.351 221.927 201.043C221.888 200.791 221.934 200.613 222.158 200.141C222.391 199.653 222.449 199.446 222.488 198.954C222.513 198.636 222.548 198.511 222.639 198.41C222.735 198.305 222.82 198.27 223.056 198.238C223.44 198.185 223.685 198.086 223.886 197.901C223.966 197.833 224.031 197.749 224.076 197.655C224.12 197.56 224.144 197.457 224.144 197.352L224.153 197.175L224.055 197.061C223.702 196.65 220.634 193.84 220.612 193.84C220.608 193.84 220.724 193.986 220.87 194.164ZM221.345 202.29C221.384 202.222 221.395 202.142 221.377 202.066C221.36 201.99 221.314 201.923 221.249 201.879C221.123 201.795 220.927 201.834 220.927 201.944C220.927 201.977 220.945 202.001 220.987 202.023C221.057 202.059 221.062 202.099 221.007 202.182C220.952 202.265 220.956 202.339 221.02 202.389C221.123 202.47 221.269 202.426 221.345 202.29Z" fill="#FF007A"/>
<path fill-rule="evenodd" clip-rule="evenodd" d="M224.394 198.33C224.296 198.368 224.208 198.428 224.137 198.505C224.065 198.583 224.013 198.676 223.984 198.777C223.951 198.899 223.97 199.114 224.02 199.18C224.1 199.287 224.177 199.315 224.387 199.314C224.798 199.311 225.155 199.135 225.196 198.914C225.23 198.734 225.073 198.484 224.857 198.374C224.711 198.314 224.55 198.299 224.394 198.33ZM224.874 198.705C224.938 198.615 224.91 198.518 224.802 198.452C224.597 198.327 224.287 198.43 224.287 198.624C224.287 198.72 224.449 198.826 224.597 198.826C224.702 198.823 224.801 198.78 224.874 198.705V198.705Z" fill="#FF007A"/>
</g>
<path d="M40.212 215.48C42.168 215.48 43.32 216.476 43.32 218.132C43.32 219.812 42.168 220.82 40.212 220.82H38.352V224H37.032V215.48H40.212ZM38.352 219.62H40.176C41.352 219.62 41.952 219.116 41.952 218.132C41.952 217.172 41.352 216.68 40.176 216.68H38.352V219.62ZM47.3195 224.144C45.4835 224.144 44.2835 222.848 44.2835 220.82C44.2835 218.792 45.4835 217.496 47.3195 217.496C49.1555 217.496 50.3555 218.792 50.3555 220.82C50.3555 222.848 49.1555 224.144 47.3195 224.144ZM45.6275 220.82C45.6275 222.2 46.2395 223.028 47.3195 223.028C48.3995 223.028 49.0115 222.2 49.0115 220.82C49.0115 219.44 48.3995 218.612 47.3195 218.612C46.2395 218.612 45.6275 219.44 45.6275 220.82ZM55.6265 219.644C55.4945 218.972 54.8585 218.576 54.2105 218.576C53.5625 218.576 53.0465 218.9 53.0585 219.452C53.0705 220.028 53.8025 220.256 54.4505 220.376C56.0345 220.664 57.0545 221.096 57.0545 222.344C57.0545 223.592 55.7945 224.144 54.4505 224.144C52.8185 224.144 51.6545 223.328 51.5585 221.996L52.8905 221.912C53.0105 222.62 53.5625 223.064 54.4385 223.064C54.9905 223.064 55.7105 222.872 55.7105 222.284C55.7105 221.6 54.9065 221.528 54.2225 221.372C52.8785 221.084 51.7145 220.724 51.7145 219.5C51.7145 218.252 52.7225 217.496 54.3065 217.496C55.6865 217.496 56.7425 218.3 56.9585 219.572L55.6265 219.644ZM58.4203 217.64H59.7163V224H58.4203V217.64ZM58.3963 216.704V215.48H59.7403V216.704H58.3963ZM61.8905 216.2H63.1865V217.64H64.8785V218.696H63.1865V222.164C63.1865 222.68 63.4385 222.944 63.9185 222.944H64.8665V224H63.7985C62.5625 224 61.8905 223.364 61.8905 222.164V218.696H60.9305V217.64H61.8905V216.2ZM66.3492 217.64H67.6452V224H66.3492V217.64ZM66.3252 216.704V215.48H67.6692V216.704H66.3252ZM72.2453 224.144C70.4093 224.144 69.2093 222.848 69.2093 220.82C69.2093 218.792 70.4093 217.496 72.2453 217.496C74.0813 217.496 75.2813 218.792 75.2813 220.82C75.2813 222.848 74.0813 224.144 72.2453 224.144ZM70.5533 220.82C70.5533 222.2 71.1653 223.028 72.2453 223.028C73.3253 223.028 73.9373 222.2 73.9373 220.82C73.9373 219.44 73.3253 218.612 72.2453 218.612C71.1653 218.612 70.5533 219.44 70.5533 220.82ZM76.7859 217.64H77.9499L77.9859 218.732C78.3219 217.868 79.0539 217.496 79.9179 217.496C81.3579 217.496 82.0899 218.516 82.0899 219.908V224H80.7939V220.304C80.7939 219.188 80.4579 218.588 79.5819 218.588C78.6579 218.588 78.0819 219.188 78.0819 220.304V224H76.7859V217.64ZM86.4695 215.48H87.8735L90.3695 222.524L92.8535 215.48H94.2575L91.1855 224H89.5415L86.4695 215.48ZM95.0891 219.548C95.3411 218.264 96.3491 217.496 97.8131 217.496C99.5531 217.496 100.501 218.456 100.501 220.196V222.56C100.501 222.872 100.633 222.98 100.885 222.98H101.149V224H100.741C100.165 224.012 99.3731 223.916 99.3131 223.028C99.0371 223.628 98.3291 224.144 97.2731 224.144C96.0011 224.144 94.9811 223.46 94.9811 222.332C94.9811 221.06 95.9291 220.688 97.3931 220.4L99.2051 220.052C99.1931 219.032 98.7371 218.552 97.8131 218.552C97.0811 218.552 96.6011 218.924 96.4211 219.632L95.0891 219.548ZM96.3251 222.308C96.3251 222.764 96.7211 223.148 97.5491 223.148C98.4971 223.148 99.2291 222.464 99.2291 221.096V221.036L97.8851 221.276C97.0211 221.432 96.3251 221.504 96.3251 222.308ZM102.581 215.48H103.877V222.524C103.877 222.8 104.009 222.944 104.297 222.944H104.813V224H104.009C103.157 224 102.581 223.448 102.581 222.572V215.48ZM111.444 224H110.244L110.232 222.98C109.896 223.796 109.164 224.144 108.348 224.144C106.944 224.144 106.212 223.124 106.212 221.732V217.64H107.508V221.336C107.508 222.452 107.832 223.052 108.684 223.052C109.584 223.052 110.16 222.452 110.16 221.336V217.64H111.444V224ZM113.033 220.82C113.033 218.792 114.233 217.496 116.069 217.496C117.581 217.496 118.877 218.504 118.949 220.772V221.192H114.401C114.473 222.356 115.073 223.04 116.069 223.04C116.693 223.04 117.257 222.68 117.521 222.08L118.865 222.176C118.481 223.388 117.365 224.144 116.069 224.144C114.233 224.144 113.033 222.848 113.033 220.82ZM114.413 220.22H117.593C117.437 219.02 116.777 218.6 116.069 218.6C115.145 218.6 114.557 219.2 114.413 220.22Z" fill="#696986"/>
<path d="M41.072 254.64C44.688 254.64 46.72 256.688 46.72 260.336C46.72 263.968 44.736 266 41.168 266H37.28V254.64H41.072ZM39.376 264.16H41.072C43.424 264.16 44.576 262.912 44.576 260.336C44.576 257.728 43.424 256.48 41.072 256.48H39.376V264.16ZM48.3025 257.52H50.3825V266H48.3025V257.52ZM48.2705 256.336V254.64H50.4145V256.336H48.2705ZM55.9361 265.584C53.7281 265.584 52.2401 263.952 52.2401 261.536C52.2401 259.024 53.7281 257.328 55.9201 257.328C57.0241 257.328 57.9521 257.888 58.3841 258.816V257.52H60.4161V265.04C60.4161 267.296 58.7361 268.592 56.3361 268.592C54.4001 268.592 52.9281 267.632 52.4641 266.176L54.5921 266.032C54.8641 266.656 55.4881 267.04 56.3521 267.04C57.6001 267.04 58.3361 266.448 58.3361 265.312V264.24C57.9201 265.072 56.9921 265.584 55.9361 265.584ZM54.3681 261.52C54.3681 263.072 55.1681 264.048 56.3841 264.048C57.6161 264.048 58.3841 263.072 58.4001 261.52C58.4161 259.952 57.6321 258.976 56.3841 258.976C55.1361 258.976 54.3681 259.952 54.3681 261.52ZM62.7769 257.52H64.8569V266H62.7769V257.52ZM62.7449 256.336V254.64H64.8889V256.336H62.7449ZM67.6061 255.6H69.6861V257.52H71.9261V259.12H69.6861V263.392C69.6861 264.048 70.0061 264.384 70.6461 264.384H71.9261V266H70.2941C68.5501 266 67.6061 265.12 67.6061 263.392V259.12H66.2781V257.52H67.6061V255.6ZM73.3687 260.096C73.7047 258.352 75.0807 257.328 77.1607 257.328C79.6087 257.328 80.9047 258.592 80.9047 260.976V263.872C80.9047 264.368 81.1127 264.496 81.4327 264.496H81.7527V266L81.2727 266.016C80.6167 266.016 79.2567 266.032 79.0967 264.72C78.7127 265.552 77.7527 266.192 76.2807 266.192C74.5847 266.192 73.2407 265.28 73.2407 263.776C73.2407 262.128 74.4567 261.6 76.4407 261.2L78.8247 260.72C78.8087 259.44 78.2647 258.816 77.1607 258.816C76.2647 258.816 75.6887 259.296 75.4807 260.224L73.3687 260.096ZM75.3687 263.712C75.3687 264.288 75.8487 264.736 76.8407 264.736C77.9927 264.736 78.8567 263.904 78.8567 262.224V262.128L77.2567 262.416C76.1847 262.624 75.3687 262.736 75.3687 263.712ZM83.4963 254.64H85.5763V263.776C85.5763 264.176 85.7843 264.384 86.1683 264.384H86.8243V266H85.6243C84.3603 266 83.4963 265.216 83.4963 263.872V254.64ZM91.7971 266L95.8931 254.64H98.4371L102.533 266H100.341L99.4131 263.328H94.9171L93.9891 266H91.7971ZM95.5411 261.52H98.7891L97.1571 256.752L95.5411 261.52ZM108.911 260.224C108.767 259.392 107.999 258.88 107.199 258.88C106.415 258.88 105.791 259.296 105.807 259.968C105.823 260.656 106.671 260.96 107.503 261.104C109.807 261.488 111.103 262.096 111.103 263.728C111.103 265.408 109.471 266.192 107.487 266.192C105.167 266.192 103.599 265.104 103.471 263.312L105.567 263.2C105.727 264.08 106.383 264.624 107.455 264.624C108.127 264.624 108.975 264.368 108.975 263.68C108.959 262.864 108.031 262.736 107.167 262.544C105.087 262.128 103.663 261.6 103.663 260C103.663 258.336 105.055 257.312 107.311 257.312C109.311 257.312 110.735 258.4 111.007 260.128L108.911 260.224ZM118.015 260.224C117.871 259.392 117.103 258.88 116.303 258.88C115.519 258.88 114.895 259.296 114.911 259.968C114.927 260.656 115.775 260.96 116.607 261.104C118.911 261.488 120.207 262.096 120.207 263.728C120.207 265.408 118.575 266.192 116.591 266.192C114.271 266.192 112.703 265.104 112.575 263.312L114.671 263.2C114.831 264.08 115.487 264.624 116.559 264.624C117.231 264.624 118.079 264.368 118.079 263.68C118.063 262.864 117.135 262.736 116.271 262.544C114.191 262.128 112.767 261.6 112.767 260C112.767 258.336 114.159 257.312 116.415 257.312C118.415 257.312 119.839 258.4 120.111 260.128L118.015 260.224ZM121.679 261.76C121.679 259.072 123.343 257.328 125.872 257.328C128.048 257.328 129.823 258.8 129.856 261.808L129.872 262.32H123.839C123.935 263.728 124.671 264.56 125.872 264.56C126.64 264.56 127.327 264.128 127.632 263.392L129.743 263.552C129.248 265.184 127.712 266.192 125.872 266.192C123.343 266.192 121.679 264.448 121.679 261.76ZM123.871 260.944H127.727C127.568 259.504 126.767 258.96 125.872 258.96C124.751 258.96 124.031 259.712 123.871 260.944ZM132.269 255.6H134.349V257.52H136.589V259.12H134.349V263.392C134.349 264.048 134.669 264.384 135.309 264.384H136.589V266H134.957C133.213 266 132.269 265.12 132.269 263.392V259.12H130.941V257.52H132.269V255.6ZM143.156 260.224C143.012 259.392 142.244 258.88 141.444 258.88C140.66 258.88 140.036 259.296 140.052 259.968C140.068 260.656 140.916 260.96 141.748 261.104C144.052 261.488 145.348 262.096 145.348 263.728C145.348 265.408 143.716 266.192 141.732 266.192C139.412 266.192 137.844 265.104 137.716 263.312L139.812 263.2C139.972 264.08 140.628 264.624 141.7 264.624C142.372 264.624 143.22 264.368 143.22 263.68C143.204 262.864 142.276 262.736 141.412 262.544C139.332 262.128 137.908 261.6 137.908 260C137.908 258.336 139.3 257.312 141.556 257.312C143.556 257.312 144.98 258.4 145.252 260.128L143.156 260.224Z" fill="#ABABBF"/>
<rect x="36" y="280" width="200" height="4" rx="2" fill="#4F4F63"/>
<rect x="36" y="280" width="80" height="4" rx="2" fill="#8061E5"/>
<g filter="url(#filter1_d_13275_11031)">
<rect x="112" y="274" width="16" height="16" rx="8" fill="white" shape-rendering="crispEdges"/>
<circle cx="120" cy="282" r="5.5" fill="#7F61E3"/>
</g>
<path d="M38.366 303.696C38.562 304.718 39.178 305.446 40.186 305.684V302.492C38.408 302.058 36.994 301.232 36.994 299.636C36.994 297.984 38.296 296.92 40.186 296.836V295.73H41.278V296.906C42.958 297.228 44.064 298.446 44.246 300.07L42.678 300.154C42.552 299.3 42.048 298.656 41.278 298.376V301.414C43.098 301.918 44.442 302.828 44.442 304.312C44.442 306.034 43 307.014 41.278 307.154V308.274H40.186V307.126C38.268 306.902 36.938 305.628 36.784 303.794L38.366 303.696ZM38.576 299.65C38.59 300.462 39.332 300.84 40.186 301.12V298.236C39.234 298.306 38.562 298.838 38.576 299.65ZM41.278 305.754C42.244 305.67 42.86 305.222 42.86 304.424C42.846 303.71 42.37 303.22 41.278 302.828V305.754ZM52.8445 297.06V298.46H48.4205L48.0425 301.274C48.5185 300.7 49.4145 300.378 50.2965 300.378C52.1865 300.378 53.5165 301.792 53.5165 303.752C53.5165 305.796 52.0325 307.224 49.9325 307.224C47.8745 307.224 46.3345 306.062 46.1945 304.382L47.7625 304.284C47.9305 305.264 48.8405 305.824 49.9045 305.824C51.1085 305.824 51.9345 304.97 51.9345 303.766C51.9345 302.492 51.0945 301.68 49.8065 301.68C48.9525 301.68 48.2105 302.072 47.9445 302.73H46.3345L47.1045 297.06H52.8445ZM59.2373 307.224C56.7313 307.224 55.1913 305.208 55.1913 302.044C55.1913 298.866 56.7313 296.836 59.2373 296.836C61.7433 296.836 63.2833 298.866 63.2833 302.044C63.2833 305.208 61.7433 307.224 59.2373 307.224ZM56.7873 302.044C56.7873 304.48 57.6553 305.824 59.2373 305.824C60.8193 305.824 61.6873 304.48 61.6873 302.044C61.6873 299.594 60.8193 298.236 59.2373 298.236C57.6553 298.236 56.7873 299.594 56.7873 302.044ZM68.8929 307.224C66.3869 307.224 64.8469 305.208 64.8469 302.044C64.8469 298.866 66.3869 296.836 68.8929 296.836C71.3989 296.836 72.9389 298.866 72.9389 302.044C72.9389 305.208 71.3989 307.224 68.8929 307.224ZM66.4429 302.044C66.4429 304.48 67.3109 305.824 68.8929 305.824C70.4749 305.824 71.3429 304.48 71.3429 302.044C71.3429 299.594 70.4749 298.236 68.8929 298.236C67.3109 298.236 66.4429 299.594 66.4429 302.044ZM75.9091 307L75.0551 309.184H74.2011L74.7751 307H74.1311V305.278H75.9091V307ZM81.1495 307.224C78.6435 307.224 77.1035 305.208 77.1035 302.044C77.1035 298.866 78.6435 296.836 81.1495 296.836C83.6555 296.836 85.1955 298.866 85.1955 302.044C85.1955 305.208 83.6555 307.224 81.1495 307.224ZM78.6995 302.044C78.6995 304.48 79.5675 305.824 81.1495 305.824C82.7315 305.824 83.5995 304.48 83.5995 302.044C83.5995 299.594 82.7315 298.236 81.1495 298.236C79.5675 298.236 78.6995 299.594 78.6995 302.044ZM90.8051 307.224C88.2991 307.224 86.7591 305.208 86.7591 302.044C86.7591 298.866 88.2991 296.836 90.8051 296.836C93.3111 296.836 94.8511 298.866 94.8511 302.044C94.8511 305.208 93.3111 307.224 90.8051 307.224ZM88.3551 302.044C88.3551 304.48 89.2231 305.824 90.8051 305.824C92.3871 305.824 93.2551 304.48 93.2551 302.044C93.2551 299.594 92.3871 298.236 90.8051 298.236C89.2231 298.236 88.3551 299.594 88.3551 302.044ZM100.461 307.224C97.9547 307.224 96.4147 305.208 96.4147 302.044C96.4147 298.866 97.9547 296.836 100.461 296.836C102.967 296.836 104.507 298.866 104.507 302.044C104.507 305.208 102.967 307.224 100.461 307.224ZM98.0107 302.044C98.0107 304.48 98.8787 305.824 100.461 305.824C102.043 305.824 102.911 304.48 102.911 302.044C102.911 299.594 102.043 298.236 100.461 298.236C98.8787 298.236 98.0107 299.594 98.0107 302.044Z" fill="#F1F1F3"/>
<g clip-path="url(#clip2_13275_11031)">
<path d="M198 312C203.523 312 208 307.523 208 302C208 296.477 203.523 292 198 292C192.477 292 188 296.477 188 302C188 307.523 192.477 312 198 312Z" fill="#627EEA"/>
<path d="M198.311 294.5V300.044L202.997 302.137L198.311 294.5Z" fill="white" fill-opacity="0.602"/>
<path d="M198.311 294.5L193.625 302.137L198.311 300.044V294.5Z" fill="white"/>
<path d="M198.311 305.73V309.497L203 303.01L198.311 305.73Z" fill="white" fill-opacity="0.602"/>
<path d="M198.311 309.497V305.729L193.625 303.01L198.311 309.497Z" fill="white"/>
<path d="M198.311 304.858L202.997 302.138L198.311 300.045V304.858Z" fill="white" fill-opacity="0.2"/>
<path d="M193.625 302.138L198.311 304.858V300.045L193.625 302.138Z" fill="white" fill-opacity="0.602"/>
</g>
<rect x="187.2" y="291.2" width="21.6" height="21.6" rx="10.8" stroke="#26262B" stroke-width="1.6"/>
<g clip-path="url(#clip3_13275_11031)">
<path d="M212 312C217.523 312 222 307.523 222 302C222 296.477 217.523 292 212 292C206.477 292 202 296.477 202 302C202 307.523 206.477 312 212 312Z" fill="#2775C9"/>
<path d="M211.844 309.188C207.787 309.188 204.5 305.9 204.5 301.844C204.5 297.788 207.787 294.5 211.844 294.5C215.9 294.5 219.187 297.788 219.187 301.844C219.187 303.791 218.414 305.659 217.037 307.037C215.659 308.414 213.791 309.188 211.844 309.188ZM211.406 299.119C211.004 299.139 210.625 299.308 210.341 299.594C210.058 299.879 209.892 300.261 209.875 300.662C209.875 301.419 210.337 301.913 211.319 302.119L212.006 302.281C212.675 302.438 212.95 302.663 212.95 303.044C212.95 303.425 212.469 303.8 211.844 303.8C211.622 303.82 211.398 303.778 211.199 303.677C211.001 303.577 210.834 303.422 210.719 303.231C210.685 303.159 210.631 303.098 210.563 303.054C210.496 303.011 210.417 302.988 210.337 302.988H209.969C209.94 302.993 209.913 303.004 209.889 303.019C209.865 303.035 209.844 303.055 209.828 303.079C209.812 303.103 209.8 303.13 209.794 303.158C209.788 303.186 209.788 303.215 209.794 303.244C209.884 303.61 210.092 303.937 210.388 304.172C210.683 304.407 211.048 304.538 211.425 304.544V305.069C211.425 305.186 211.471 305.298 211.554 305.38C211.637 305.463 211.749 305.509 211.866 305.509C211.982 305.509 212.094 305.463 212.177 305.38C212.26 305.298 212.306 305.186 212.306 305.069V304.537C212.733 304.533 213.141 304.361 213.443 304.06C213.746 303.759 213.918 303.352 213.925 302.925C213.925 302.131 213.469 301.675 212.387 301.444L211.762 301.306C211.137 301.15 210.844 300.944 210.844 300.594C210.844 300.244 211.219 299.856 211.844 299.856C212.041 299.836 212.239 299.873 212.415 299.962C212.592 300.052 212.738 300.191 212.837 300.363C212.878 300.448 212.941 300.52 213.021 300.571C213.1 300.622 213.193 300.65 213.287 300.65H213.581C213.648 300.634 213.706 300.592 213.742 300.533C213.778 300.475 213.79 300.405 213.775 300.338C213.69 299.999 213.501 299.696 213.234 299.471C212.967 299.247 212.635 299.113 212.287 299.088V298.656C212.287 298.539 212.241 298.427 212.158 298.345C212.076 298.262 211.964 298.216 211.847 298.216C211.73 298.216 211.618 298.262 211.535 298.345C211.453 298.427 211.406 298.539 211.406 298.656V299.119ZM206.337 301.844C206.338 302.995 206.701 304.117 207.373 305.051C208.046 305.985 208.996 306.685 210.087 307.05H210.175C210.25 307.05 210.321 307.02 210.374 306.968C210.427 306.915 210.456 306.843 210.456 306.769V306.637C210.456 306.521 210.422 306.407 210.358 306.311C210.293 306.214 210.201 306.138 210.094 306.094C209.243 305.751 208.515 305.161 208.002 304.401C207.489 303.641 207.215 302.745 207.215 301.828C207.215 300.911 207.489 300.015 208.002 299.255C208.515 298.495 209.243 297.906 210.094 297.562C210.201 297.519 210.292 297.445 210.357 297.349C210.421 297.253 210.456 297.14 210.456 297.025V296.881C210.457 296.839 210.447 296.797 210.428 296.76C210.409 296.722 210.381 296.69 210.346 296.665C210.312 296.641 210.272 296.625 210.23 296.619C210.189 296.613 210.146 296.617 210.106 296.631C209.01 296.994 208.056 297.693 207.379 298.628C206.703 299.564 206.338 300.689 206.337 301.844ZM217.35 301.844C217.348 300.694 216.985 299.573 216.312 298.64C215.639 297.707 214.691 297.009 213.6 296.644H213.506C213.428 296.644 213.354 296.675 213.298 296.73C213.243 296.785 213.212 296.86 213.212 296.938V297.031C213.215 297.152 213.252 297.269 213.32 297.369C213.388 297.469 213.483 297.547 213.594 297.594C214.442 297.938 215.168 298.527 215.68 299.287C216.191 300.046 216.464 300.941 216.464 301.856C216.464 302.772 216.191 303.666 215.68 304.426C215.168 305.185 214.442 305.775 213.594 306.119C213.485 306.166 213.392 306.244 213.325 306.342C213.259 306.441 213.222 306.556 213.219 306.675V306.781C213.219 306.828 213.231 306.873 213.252 306.914C213.274 306.955 213.305 306.991 213.342 307.017C213.38 307.044 213.424 307.062 213.47 307.068C213.515 307.075 213.562 307.071 213.606 307.056C214.698 306.689 215.647 305.989 216.318 305.053C216.99 304.118 217.351 302.995 217.35 301.844Z" fill="white"/>
</g>
<rect x="201.2" y="291.2" width="21.6" height="21.6" rx="10.8" stroke="#26262B" stroke-width="1.6"/>
<rect x="215.2" y="291.2" width="21.6" height="21.6" rx="10.8" stroke="#26262B" stroke-width="1.6"/>
<path d="M226 312C231.523 312 236 307.523 236 302C236 296.477 231.523 292 226 292C220.477 292 216 296.477 216 302C216 307.523 220.477 312 226 312Z" fill="#26A17B"/>
<path fill-rule="evenodd" clip-rule="evenodd" d="M227.201 302.864V302.863C227.133 302.868 226.778 302.889 225.988 302.889C225.356 302.889 224.912 302.871 224.756 302.863V302.865C222.326 302.758 220.512 302.335 220.512 301.829C220.512 301.323 222.326 300.9 224.756 300.791V302.444C224.914 302.455 225.369 302.482 225.998 302.482C226.753 302.482 227.131 302.451 227.201 302.444V300.792C229.626 300.901 231.436 301.324 231.436 301.829C231.436 302.335 229.626 302.757 227.201 302.864ZM227.201 300.621V299.142H230.585V296.887H221.372V299.142H224.756V300.62C222.006 300.746 219.938 301.291 219.938 301.944C219.938 302.596 222.006 303.141 224.756 303.267V308.006H227.201V303.266C229.947 303.14 232.01 302.596 232.01 301.944C232.01 301.292 229.947 300.747 227.201 300.621Z" fill="white"/>
<path d="M37.032 326V317.48H40.032C42.144 317.48 43.2 318.248 43.2 319.844C43.2 320.816 42.612 321.464 41.628 321.596C42.852 321.728 43.56 322.46 43.56 323.588C43.56 325.148 42.48 326 40.512 326H37.032ZM38.352 324.812H40.524C41.58 324.812 42.204 324.368 42.204 323.54C42.204 322.688 41.58 322.232 40.524 322.232H38.352V324.812ZM38.352 321.104H40.08C41.208 321.104 41.844 320.672 41.844 319.892C41.844 319.064 41.244 318.668 40.08 318.668H38.352V321.104ZM45.0477 321.548C45.2997 320.264 46.3077 319.496 47.7717 319.496C49.5117 319.496 50.4597 320.456 50.4597 322.196V324.56C50.4597 324.872 50.5917 324.98 50.8437 324.98H51.1077V326H50.6997C50.1237 326.012 49.3317 325.916 49.2717 325.028C48.9957 325.628 48.2877 326.144 47.2317 326.144C45.9597 326.144 44.9397 325.46 44.9397 324.332C44.9397 323.06 45.8877 322.688 47.3517 322.4L49.1637 322.052C49.1517 321.032 48.6957 320.552 47.7717 320.552C47.0397 320.552 46.5597 320.924 46.3797 321.632L45.0477 321.548ZM46.2837 324.308C46.2837 324.764 46.6797 325.148 47.5077 325.148C48.4557 325.148 49.1877 324.464 49.1877 323.096V323.036L47.8437 323.276C46.9797 323.432 46.2837 323.504 46.2837 324.308ZM52.5398 317.48H53.8358V324.524C53.8358 324.8 53.9678 324.944 54.2558 324.944H54.7718V326H53.9678C53.1158 326 52.5398 325.448 52.5398 324.572V317.48ZM56.0001 321.548C56.2521 320.264 57.2601 319.496 58.7241 319.496C60.4641 319.496 61.4121 320.456 61.4121 322.196V324.56C61.4121 324.872 61.5441 324.98 61.7961 324.98H62.0601V326H61.6521C61.0761 326.012 60.2841 325.916 60.2241 325.028C59.9481 325.628 59.2401 326.144 58.1841 326.144C56.9121 326.144 55.8921 325.46 55.8921 324.332C55.8921 323.06 56.8401 322.688 58.3041 322.4L60.1161 322.052C60.1041 321.032 59.6481 320.552 58.7241 320.552C57.9921 320.552 57.5121 320.924 57.3321 321.632L56.0001 321.548ZM57.2361 324.308C57.2361 324.764 57.6321 325.148 58.4601 325.148C59.4081 325.148 60.1401 324.464 60.1401 323.096V323.036L58.7961 323.276C57.9321 323.432 57.2361 323.504 57.2361 324.308ZM63.4102 319.64H64.5742L64.6102 320.732C64.9462 319.868 65.6782 319.496 66.5422 319.496C67.9822 319.496 68.7142 320.516 68.7142 321.908V326H67.4182V322.304C67.4182 321.188 67.0822 320.588 66.2062 320.588C65.2822 320.588 64.7062 321.188 64.7062 322.304V326H63.4102V319.64ZM74.6257 321.872C74.5057 321.08 73.8817 320.612 73.1617 320.612C72.0817 320.612 71.4697 321.44 71.4697 322.82C71.4697 324.2 72.0817 325.028 73.1617 325.028C73.9177 325.028 74.5297 324.536 74.6617 323.66L76.0177 323.732C75.8257 325.22 74.6257 326.144 73.1617 326.144C71.3257 326.144 70.1257 324.848 70.1257 322.82C70.1257 320.792 71.3257 319.496 73.1617 319.496C74.5777 319.496 75.8017 320.372 75.9697 321.8L74.6257 321.872ZM77.1077 322.82C77.1077 320.792 78.3077 319.496 80.1437 319.496C81.6557 319.496 82.9517 320.504 83.0237 322.772V323.192H78.4757C78.5477 324.356 79.1477 325.04 80.1437 325.04C80.7677 325.04 81.3317 324.68 81.5957 324.08L82.9397 324.176C82.5557 325.388 81.4397 326.144 80.1437 326.144C78.3077 326.144 77.1077 324.848 77.1077 322.82ZM78.4877 322.22H81.6677C81.5117 321.02 80.8517 320.6 80.1437 320.6C79.2197 320.6 78.6317 321.2 78.4877 322.22Z" fill="#696986"/>
<path d="M272 0H512C529.673 0 544 14.3269 544 32V330C544 347.673 529.673 362 512 362H272V0Z" fill="#E4E4EC"/>
<path d="M272 0H544H272ZM544 362H272H544ZM271.25 362V0H272.75V362H271.25ZM544 0V362V0Z" fill="#49494D"/>
<rect x="388.5" y="32.5" width="39" height="39" rx="19.5" stroke="#ABABBF"/>
<path d="M401.27 49.624C401.414 46.096 404.198 43.576 408.206 43.576C412.046 43.576 414.806 45.832 414.806 48.976C414.806 51.712 412.622 53.104 410.462 54.28C409.862 54.616 407.078 56.008 406.934 57.232H414.806V61H401.27C401.27 56.032 403.526 53.464 407.39 51.424C409.07 50.464 409.982 49.864 409.982 48.904C409.982 48.016 409.262 47.344 408.206 47.344C407.006 47.344 406.262 48.232 406.046 49.888L401.27 49.624Z" fill="#31313A"/>
<path d="M358.346 114L365.514 94.12H369.966L377.134 114H373.298L371.674 109.324H363.806L362.182 114H358.346ZM364.898 106.16H370.582L367.726 97.816L364.898 106.16ZM389.065 104.62C388.785 102.772 387.469 101.764 385.901 101.764C383.605 101.764 382.289 103.528 382.289 106.58C382.289 109.632 383.605 111.396 385.901 111.396C387.553 111.396 388.869 110.36 389.149 108.372L392.901 108.54C392.481 112.124 389.569 114.336 385.901 114.336C381.477 114.336 378.565 111.284 378.565 106.58C378.565 101.876 381.477 98.824 385.901 98.824C389.457 98.824 392.397 100.952 392.789 104.424L389.065 104.62ZM405.471 104.62C405.191 102.772 403.875 101.764 402.307 101.764C400.011 101.764 398.695 103.528 398.695 106.58C398.695 109.632 400.011 111.396 402.307 111.396C403.959 111.396 405.275 110.36 405.555 108.372L409.307 108.54C408.887 112.124 405.975 114.336 402.307 114.336C397.883 114.336 394.971 111.284 394.971 106.58C394.971 101.876 397.883 98.824 402.307 98.824C405.863 98.824 408.803 100.952 409.195 104.424L405.471 104.62ZM411.377 106.58C411.377 101.876 414.289 98.824 418.713 98.824C422.521 98.824 425.629 101.4 425.685 106.664L425.713 107.56H415.157C415.325 110.024 416.613 111.48 418.713 111.48C420.057 111.48 421.261 110.724 421.793 109.436L425.489 109.716C424.621 112.572 421.933 114.336 418.713 114.336C414.289 114.336 411.377 111.284 411.377 106.58ZM415.213 105.152H421.961C421.681 102.632 420.281 101.68 418.713 101.68C416.753 101.68 415.493 102.996 415.213 105.152ZM437.577 103.892C437.325 102.436 435.981 101.54 434.581 101.54C433.209 101.54 432.117 102.268 432.145 103.444C432.173 104.648 433.657 105.18 435.113 105.432C439.145 106.104 441.413 107.168 441.413 110.024C441.413 112.964 438.557 114.336 435.085 114.336C431.025 114.336 428.281 112.432 428.057 109.296L431.725 109.1C432.005 110.64 433.153 111.592 435.029 111.592C436.205 111.592 437.689 111.144 437.689 109.94C437.661 108.512 436.037 108.288 434.525 107.952C430.885 107.224 428.393 106.3 428.393 103.5C428.393 100.588 430.829 98.796 434.777 98.796C438.277 98.796 440.769 100.7 441.245 103.724L437.577 103.892ZM453.3 103.892C453.048 102.436 451.704 101.54 450.304 101.54C448.932 101.54 447.84 102.268 447.868 103.444C447.896 104.648 449.38 105.18 450.836 105.432C454.868 106.104 457.136 107.168 457.136 110.024C457.136 112.964 454.28 114.336 450.808 114.336C446.748 114.336 444.004 112.432 443.78 109.296L447.448 109.1C447.728 110.64 448.876 111.592 450.752 111.592C451.928 111.592 453.412 111.144 453.412 109.94C453.384 108.512 451.76 108.288 450.248 107.952C446.608 107.224 444.116 106.3 444.116 103.5C444.116 100.588 446.552 98.796 450.5 98.796C454 98.796 456.492 100.7 456.968 103.724L453.3 103.892ZM352.203 146V126.12H355.871V142.78H365.279V146H352.203ZM368.329 131.16H371.969V146H368.329V131.16ZM368.273 129.088V126.12H372.025V129.088H368.273ZM389.346 150.2H385.706V143.984C384.838 145.524 383.354 146.336 381.366 146.336C377.082 146.336 375.01 142.836 375.01 138.58C375.01 134.324 377.082 130.824 381.366 130.824C383.466 130.824 385.006 131.692 385.818 133.288L385.902 131.16H389.346V150.2ZM378.762 138.58C378.762 141.128 379.854 143.424 382.374 143.424C384.894 143.424 385.986 141.128 385.986 138.58C385.986 136.06 384.894 133.736 382.374 133.736C379.882 133.736 378.762 136.06 378.762 138.58ZM405.543 146H402.211L402.155 143.62C401.343 145.58 399.691 146.336 397.759 146.336C394.539 146.336 392.747 144.04 392.747 140.708V131.16H396.387V139.532C396.387 142.024 397.031 143.396 398.879 143.396C400.783 143.396 401.903 142.024 401.903 139.532V131.16H405.543V146ZM409.153 131.16H412.793V146H409.153V131.16ZM409.097 129.088V126.12H412.849V129.088H409.097ZM430.17 126.12V146H426.726L426.642 143.9C425.83 145.412 424.122 146.336 422.106 146.336C418.242 146.336 415.834 143.34 415.834 138.58C415.834 133.82 418.242 130.824 422.106 130.824C424.01 130.824 425.69 131.692 426.53 133.148V126.12H430.17ZM419.558 138.58C419.558 141.52 420.986 143.424 423.17 143.424C425.382 143.424 426.782 141.52 426.782 138.58C426.782 135.556 425.354 133.652 423.17 133.652C420.958 133.652 419.558 135.556 419.558 138.58ZM433.325 131.16H436.965V146H433.325V131.16ZM433.269 129.088V126.12H437.021V129.088H433.269ZM441.566 127.8H445.206V131.16H449.126V133.96H445.206V141.436C445.206 142.584 445.766 143.172 446.886 143.172H449.126V146H446.27C443.218 146 441.566 144.46 441.566 141.436V133.96H439.242V131.16H441.566V127.8ZM450.629 131.16H454.185L458.105 142.192L461.913 131.16H465.441L459.533 147.568C458.917 149.388 457.685 150.2 455.697 150.2H453.261V147.428H455.081C455.893 147.428 456.341 147.148 456.649 146.476L457.069 145.412H456.005L450.629 131.16Z" fill="#31313A"/>
<path d="M336.286 206.64H338.622L341.294 211.456L343.966 206.64H346.302L342.35 213.504V218H340.254V213.504L336.286 206.64ZM350.87 218.192C348.342 218.192 346.678 216.448 346.678 213.76C346.678 211.072 348.342 209.328 350.87 209.328C353.398 209.328 355.062 211.072 355.062 213.76C355.062 216.448 353.398 218.192 350.87 218.192ZM348.806 213.76C348.806 215.504 349.558 216.512 350.87 216.512C352.182 216.512 352.934 215.504 352.934 213.76C352.934 212.016 352.182 211.008 350.87 211.008C349.558 211.008 348.806 212.016 348.806 213.76ZM364.121 218H362.217L362.185 216.64C361.721 217.76 360.777 218.192 359.673 218.192C357.833 218.192 356.809 216.88 356.809 214.976V209.52H358.889V214.304C358.889 215.728 359.257 216.512 360.313 216.512C361.401 216.512 362.041 215.728 362.041 214.304V209.52H364.121V218ZM366.476 209.52H368.412L368.46 211.168C368.78 210.064 369.404 209.52 370.492 209.52H371.292V211.136H370.476C369.116 211.136 368.556 211.808 368.556 213.168V218H366.476V209.52ZM377.251 218V206.64H381.315C384.275 206.64 385.763 207.632 385.763 209.792C385.763 211.12 384.947 211.952 383.555 212.112C385.267 212.288 386.243 213.248 386.243 214.784C386.243 216.864 384.739 218 381.955 218H377.251ZM379.347 216.208H382.003C383.299 216.208 384.099 215.68 384.099 214.64C384.099 213.6 383.299 213.056 382.003 213.056H379.347V216.208ZM379.347 211.392H381.459C382.803 211.392 383.619 210.896 383.619 209.92C383.619 208.912 382.851 208.432 381.459 208.432H379.347V211.392ZM392.095 218.192C389.567 218.192 387.903 216.448 387.903 213.76C387.903 211.072 389.567 209.328 392.095 209.328C394.623 209.328 396.287 211.072 396.287 213.76C396.287 216.448 394.623 218.192 392.095 218.192ZM390.031 213.76C390.031 215.504 390.783 216.512 392.095 216.512C393.407 216.512 394.159 215.504 394.159 213.76C394.159 212.016 393.407 211.008 392.095 211.008C390.783 211.008 390.031 212.016 390.031 213.76ZM398.081 209.52H400.017L400.065 211.168C400.385 210.064 401.009 209.52 402.097 209.52H402.897V211.136H402.081C400.721 211.136 400.161 211.808 400.161 213.168V218H398.081V209.52ZM404.404 209.52H406.34L406.388 211.168C406.708 210.064 407.332 209.52 408.42 209.52H409.22V211.136H408.404C407.044 211.136 406.484 211.808 406.484 213.168V218H404.404V209.52ZM414.221 218.192C411.693 218.192 410.029 216.448 410.029 213.76C410.029 211.072 411.693 209.328 414.221 209.328C416.749 209.328 418.413 211.072 418.413 213.76C418.413 216.448 416.749 218.192 414.221 218.192ZM412.157 213.76C412.157 215.504 412.909 216.512 414.221 216.512C415.533 216.512 416.285 215.504 416.285 213.76C416.285 212.016 415.533 211.008 414.221 211.008C412.909 211.008 412.157 212.016 412.157 213.76ZM426.374 209.52L428.118 215.632L429.83 209.52H431.862L429.27 218H427.142L425.478 212.32L423.814 218H421.686L419.094 209.52H421.126L422.838 215.632L424.582 209.52H426.374ZM437.497 218V206.64H439.593V216.16H444.969V218H437.497ZM446.832 209.52H448.912V218H446.832V209.52ZM446.8 208.336V206.64H448.944V208.336H446.8ZM451.046 209.52H452.918L452.966 210.88C453.382 209.888 454.23 209.328 455.35 209.328C456.55 209.328 457.414 209.968 457.782 211.072C458.198 209.92 459.078 209.328 460.294 209.328C462.022 209.328 463.094 210.448 463.094 212.544V218H461.014V213.2C461.014 211.76 460.566 211.008 459.67 211.008C458.582 211.008 458.006 211.776 458.006 213.2V218H456.118V213.2C456.118 211.776 455.67 211.008 454.79 211.008C453.702 211.008 453.126 211.808 453.126 213.2V218H451.046V209.52ZM465.447 209.52H467.527V218H465.447V209.52ZM465.415 208.336V206.64H467.559V208.336H465.415ZM470.276 207.6H472.356V209.52H474.596V211.12H472.356V215.392C472.356 216.048 472.676 216.384 473.316 216.384H474.596V218H472.964C471.22 218 470.276 217.12 470.276 215.392V211.12H468.948V209.52H470.276V207.6ZM476.519 215.824H478.807V218H476.519V215.824ZM476.519 212.672V210.496H478.807V212.672H476.519Z" fill="#696986"/>
<path d="M320.056 254.44C320.576 257.12 322.136 259 324.736 259.68V251.44C319.256 250.08 315.336 247.68 315.336 243.16C315.336 238.36 319.096 235.24 324.736 235V231.8H327.936V235.16C332.936 236 336.176 239.52 336.736 244.4L331.456 244.64C331.176 242.36 329.896 240.68 327.936 239.92V247.8C333.456 249.28 337.216 251.92 337.216 256.2C337.216 261.16 333.136 264.04 327.936 264.44V267.64H324.736V264.36C319.056 263.72 315.176 260.08 314.776 254.76L320.056 254.44ZM320.696 243.2C320.736 245.24 322.536 246.24 324.736 246.92V239.52C322.296 239.76 320.656 241.16 320.696 243.2ZM327.936 259.88C330.336 259.6 331.896 258.44 331.856 256.44C331.856 254.64 330.656 253.44 327.936 252.4V259.88ZM351.494 264.64C344.614 264.64 340.054 261.4 340.054 256.2C340.054 252.6 342.254 249.84 346.054 248.6C343.054 247.56 341.414 245.6 341.414 242.76C341.414 238.2 345.454 234.96 351.494 234.96C357.574 234.96 361.574 238.2 361.574 242.76C361.574 245.6 359.894 247.56 356.934 248.6C360.734 249.88 362.934 252.64 362.934 256.2C362.934 261.4 358.374 264.64 351.494 264.64ZM345.494 255.52C345.494 258.28 347.854 260.04 351.494 260.04C355.134 260.04 357.494 258.28 357.494 255.52C357.494 252.72 355.134 250.92 351.494 250.92C347.854 250.92 345.494 252.72 345.494 255.52ZM346.814 243.2C346.814 245.4 348.614 246.84 351.494 246.84C354.374 246.84 356.174 245.4 356.174 243.2C356.174 240.96 354.374 239.56 351.494 239.56C348.614 239.56 346.814 240.96 346.814 243.2ZM382.154 242.48C381.394 240.52 379.714 239.48 377.434 239.48C373.394 239.48 371.154 243.08 370.834 249C372.354 246.44 374.834 245.08 377.834 245.08C383.474 245.08 387.274 248.96 387.274 254.68C387.274 260.96 382.754 264.64 376.594 264.64C373.674 264.64 370.954 263.52 368.874 261.16C366.914 259 365.914 255.56 365.914 251.36C365.914 242.68 369.154 234.96 377.514 234.96C382.114 234.96 385.954 237.56 387.154 242.16L382.154 242.48ZM371.274 254.68C371.234 257.92 373.474 260.32 376.674 260.32C379.794 260.32 381.994 257.92 381.994 254.68C381.994 251.44 379.914 249.12 376.874 249.12C373.634 249.12 371.314 251.44 371.274 254.68ZM402.531 264.64C395.131 264.64 390.731 258.8 390.731 249.84C390.731 240.8 395.131 234.96 402.531 234.96C409.971 234.96 414.371 240.8 414.371 249.84C414.371 258.8 409.971 264.64 402.531 264.64ZM396.131 249.84C396.131 256.44 398.411 260.04 402.531 260.04C406.691 260.04 408.971 256.44 408.971 249.84C408.971 243.2 406.691 239.56 402.531 239.56C398.411 239.56 396.131 243.2 396.131 249.84ZM422.168 264L419.568 270.28H416.768L418.488 264H416.448V258.56H422.168V264ZM436.009 264.64C428.609 264.64 424.209 258.8 424.209 249.84C424.209 240.8 428.609 234.96 436.009 234.96C443.449 234.96 447.849 240.8 447.849 249.84C447.849 258.8 443.449 264.64 436.009 264.64ZM429.609 249.84C429.609 256.44 431.889 260.04 436.009 260.04C440.169 260.04 442.449 256.44 442.449 249.84C442.449 243.2 440.169 239.56 436.009 239.56C431.889 239.56 429.609 243.2 429.609 249.84ZM462.787 264.64C455.387 264.64 450.987 258.8 450.987 249.84C450.987 240.8 455.387 234.96 462.787 234.96C470.227 234.96 474.627 240.8 474.627 249.84C474.627 258.8 470.227 264.64 462.787 264.64ZM456.387 249.84C456.387 256.44 458.667 260.04 462.787 260.04C466.947 260.04 469.227 256.44 469.227 249.84C469.227 243.2 466.947 239.56 462.787 239.56C458.667 239.56 456.387 243.2 456.387 249.84ZM489.565 264.64C482.165 264.64 477.765 258.8 477.765 249.84C477.765 240.8 482.165 234.96 489.565 234.96C497.005 234.96 501.405 240.8 501.405 249.84C501.405 258.8 497.005 264.64 489.565 264.64ZM483.165 249.84C483.165 256.44 485.445 260.04 489.565 260.04C493.725 260.04 496.005 256.44 496.005 249.84C496.005 243.2 493.725 239.56 489.565 239.56C485.445 239.56 483.165 243.2 483.165 249.84Z" fill="#0C0C0D"/>
</g>
<rect x="0.75" y="0.75" width="542.5" height="360.5" rx="31.25" stroke="#49494D" stroke-width="1.5"/>
<defs>
<filter id="filter0_d_13275_11031" x="136" y="168" width="32" height="32" filterUnits="userSpaceOnUse" color-interpolation-filters="sRGB">
<feFlood flood-opacity="0" result="BackgroundImageFix"/>
<feColorMatrix in="SourceAlpha" type="matrix" values="0 0 0 0 0 0 0 0 0 0 0 0 0 0 0 0 0 0 127 0" result="hardAlpha"/>
<feOffset dy="4"/>
<feGaussianBlur stdDeviation="4"/>
<feComposite in2="hardAlpha" operator="out"/>
<feColorMatrix type="matrix" values="0 0 0 0 0.0444 0 0 0 0 0.0795628 0 0 0 0 0.1956 0 0 0 0.16 0"/>
<feBlend mode="normal" in2="BackgroundImageFix" result="effect1_dropShadow_13275_11031"/>
<feBlend mode="normal" in="SourceGraphic" in2="effect1_dropShadow_13275_11031" result="shape"/>
</filter>
<filter id="filter1_d_13275_11031" x="104" y="270" width="32" height="32" filterUnits="userSpaceOnUse" color-interpolation-filters="sRGB">
<feFlood flood-opacity="0" result="BackgroundImageFix"/>
<feColorMatrix in="SourceAlpha" type="matrix" values="0 0 0 0 0 0 0 0 0 0 0 0 0 0 0 0 0 0 127 0" result="hardAlpha"/>
<feOffset dy="4"/>
<feGaussianBlur stdDeviation="4"/>
<feComposite in2="hardAlpha" operator="out"/>
<feColorMatrix type="matrix" values="0 0 0 0 0.0444 0 0 0 0 0.0795628 0 0 0 0 0.1956 0 0 0 0.16 0"/>
<feBlend mode="normal" in2="BackgroundImageFix" result="effect1_dropShadow_13275_11031"/>
<feBlend mode="normal" in="SourceGraphic" in2="effect1_dropShadow_13275_11031" result="shape"/>
</filter>
<clipPath id="clip0_13275_11031">
<rect width="544" height="362" rx="32" fill="white"/>
</clipPath>
<clipPath id="clip1_13275_11031">
<rect x="216" y="190" width="20" height="20" rx="10" fill="white"/>
</clipPath>
<clipPath id="clip2_13275_11031">
<rect x="188" y="292" width="20" height="20" rx="10" fill="white"/>
</clipPath>
<clipPath id="clip3_13275_11031">
<rect x="202" y="292" width="20" height="20" rx="10" fill="white"/>
</clipPath>
</defs>
</svg>
