<svg width="53" height="52" viewBox="0 0 53 52" fill="none" xmlns="http://www.w3.org/2000/svg">
<g filter="url(#filter0_d_13695_12388)">
<g clip-path="url(#clip0_13695_12388)">
<rect x="2.66663" width="48" height="48" rx="12" fill="url(#paint0_linear_13695_12388)"/>
<rect x="2.66663" width="48" height="48" rx="12" fill="url(#paint1_linear_13695_12388)"/>
<rect x="2.66663" width="48" height="48" rx="12" fill="url(#paint2_radial_13695_12388)" fill-opacity="0.12"/>
<g opacity="0.2" filter="url(#filter1_f_13695_12388)">
<path d="M37.5694 11.4773C37.7217 11.6348 37.8385 11.8125 37.9198 12.0004C38.001 12.1883 38.0416 12.3965 38.0416 12.6199V12.625V17.5C38.0416 18.3988 37.3155 19.125 36.4166 19.125C35.5178 19.125 34.7916 18.3988 34.7916 17.5V16.5504L29.4393 21.8977C28.8401 22.4969 27.8752 22.5375 27.2303 21.984L22.6041 18.0129L17.9729 21.984C17.2924 22.568 16.2666 22.4867 15.6826 21.8063C15.0987 21.1258 15.1799 20.1 15.8604 19.516L21.5479 14.641C22.1573 14.118 23.0561 14.118 23.6655 14.641L28.2104 18.5359L32.4912 14.25H31.5416C30.6428 14.25 29.9166 13.5238 29.9166 12.625C29.9166 11.7262 30.6428 11 31.5416 11H36.4166C36.8635 11 37.2698 11.1828 37.5643 11.4723L37.5694 11.4773ZM13.6666 26.4375C13.6666 25.0918 14.7584 24 16.1041 24H37.2291C38.5748 24 39.6666 25.0918 39.6666 26.4375V34.5625C39.6666 35.9082 38.5748 37 37.2291 37H16.1041C14.7584 37 13.6666 35.9082 13.6666 34.5625V26.4375ZM16.1041 32.125V34.5625H18.5416C18.5416 33.2168 17.4498 32.125 16.1041 32.125ZM18.5416 26.4375H16.1041V28.875C17.4498 28.875 18.5416 27.7832 18.5416 26.4375ZM37.2291 32.125C35.8834 32.125 34.7916 33.2168 34.7916 34.5625H37.2291V32.125ZM34.7916 26.4375C34.7916 27.7832 35.8834 28.875 37.2291 28.875V26.4375H34.7916ZM29.9166 30.5C29.9166 29.638 29.5742 28.8114 28.9647 28.2019C28.3552 27.5924 27.5286 27.25 26.6666 27.25C25.8047 27.25 24.978 27.5924 24.3685 28.2019C23.759 28.8114 23.4166 29.638 23.4166 30.5C23.4166 31.362 23.759 32.1886 24.3685 32.7981C24.978 33.4076 25.8047 33.75 26.6666 33.75C27.5286 33.75 28.3552 33.4076 28.9647 32.7981C29.5742 32.1886 29.9166 31.362 29.9166 30.5Z" fill="#9152FF"/>
</g>
<g opacity="0.4" filter="url(#filter2_f_13695_12388)">
<path d="M37.5694 11.4773C37.7217 11.6348 37.8385 11.8125 37.9198 12.0004C38.001 12.1883 38.0416 12.3965 38.0416 12.6199V12.625V17.5C38.0416 18.3988 37.3155 19.125 36.4166 19.125C35.5178 19.125 34.7916 18.3988 34.7916 17.5V16.5504L29.4393 21.8977C28.8401 22.4969 27.8752 22.5375 27.2303 21.984L22.6041 18.0129L17.9729 21.984C17.2924 22.568 16.2666 22.4867 15.6826 21.8063C15.0987 21.1258 15.1799 20.1 15.8604 19.516L21.5479 14.641C22.1573 14.118 23.0561 14.118 23.6655 14.641L28.2104 18.5359L32.4912 14.25H31.5416C30.6428 14.25 29.9166 13.5238 29.9166 12.625C29.9166 11.7262 30.6428 11 31.5416 11H36.4166C36.8635 11 37.2698 11.1828 37.5643 11.4723L37.5694 11.4773ZM13.6666 26.4375C13.6666 25.0918 14.7584 24 16.1041 24H37.2291C38.5748 24 39.6666 25.0918 39.6666 26.4375V34.5625C39.6666 35.9082 38.5748 37 37.2291 37H16.1041C14.7584 37 13.6666 35.9082 13.6666 34.5625V26.4375ZM16.1041 32.125V34.5625H18.5416C18.5416 33.2168 17.4498 32.125 16.1041 32.125ZM18.5416 26.4375H16.1041V28.875C17.4498 28.875 18.5416 27.7832 18.5416 26.4375ZM37.2291 32.125C35.8834 32.125 34.7916 33.2168 34.7916 34.5625H37.2291V32.125ZM34.7916 26.4375C34.7916 27.7832 35.8834 28.875 37.2291 28.875V26.4375H34.7916ZM29.9166 30.5C29.9166 29.638 29.5742 28.8114 28.9647 28.2019C28.3552 27.5924 27.5286 27.25 26.6666 27.25C25.8047 27.25 24.978 27.5924 24.3685 28.2019C23.759 28.8114 23.4166 29.638 23.4166 30.5C23.4166 31.362 23.759 32.1886 24.3685 32.7981C24.978 33.4076 25.8047 33.75 26.6666 33.75C27.5286 33.75 28.3552 33.4076 28.9647 32.7981C29.5742 32.1886 29.9166 31.362 29.9166 30.5Z" fill="#9152FF"/>
</g>
<g opacity="0.6" filter="url(#filter3_f_13695_12388)">
<path d="M37.5694 11.4773C37.7217 11.6348 37.8385 11.8125 37.9198 12.0004C38.001 12.1883 38.0416 12.3965 38.0416 12.6199V12.625V17.5C38.0416 18.3988 37.3155 19.125 36.4166 19.125C35.5178 19.125 34.7916 18.3988 34.7916 17.5V16.5504L29.4393 21.8977C28.8401 22.4969 27.8752 22.5375 27.2303 21.984L22.6041 18.0129L17.9729 21.984C17.2924 22.568 16.2666 22.4867 15.6826 21.8063C15.0987 21.1258 15.1799 20.1 15.8604 19.516L21.5479 14.641C22.1573 14.118 23.0561 14.118 23.6655 14.641L28.2104 18.5359L32.4912 14.25H31.5416C30.6428 14.25 29.9166 13.5238 29.9166 12.625C29.9166 11.7262 30.6428 11 31.5416 11H36.4166C36.8635 11 37.2698 11.1828 37.5643 11.4723L37.5694 11.4773ZM13.6666 26.4375C13.6666 25.0918 14.7584 24 16.1041 24H37.2291C38.5748 24 39.6666 25.0918 39.6666 26.4375V34.5625C39.6666 35.9082 38.5748 37 37.2291 37H16.1041C14.7584 37 13.6666 35.9082 13.6666 34.5625V26.4375ZM16.1041 32.125V34.5625H18.5416C18.5416 33.2168 17.4498 32.125 16.1041 32.125ZM18.5416 26.4375H16.1041V28.875C17.4498 28.875 18.5416 27.7832 18.5416 26.4375ZM37.2291 32.125C35.8834 32.125 34.7916 33.2168 34.7916 34.5625H37.2291V32.125ZM34.7916 26.4375C34.7916 27.7832 35.8834 28.875 37.2291 28.875V26.4375H34.7916ZM29.9166 30.5C29.9166 29.638 29.5742 28.8114 28.9647 28.2019C28.3552 27.5924 27.5286 27.25 26.6666 27.25C25.8047 27.25 24.978 27.5924 24.3685 28.2019C23.759 28.8114 23.4166 29.638 23.4166 30.5C23.4166 31.362 23.759 32.1886 24.3685 32.7981C24.978 33.4076 25.8047 33.75 26.6666 33.75C27.5286 33.75 28.3552 33.4076 28.9647 32.7981C29.5742 32.1886 29.9166 31.362 29.9166 30.5Z" fill="#9152FF"/>
</g>
<path d="M37.5694 11.4773C37.7217 11.6348 37.8385 11.8125 37.9198 12.0004C38.001 12.1883 38.0416 12.3965 38.0416 12.6199V12.625V17.5C38.0416 18.3988 37.3155 19.125 36.4166 19.125C35.5178 19.125 34.7916 18.3988 34.7916 17.5V16.5504L29.4393 21.8977C28.8401 22.4969 27.8752 22.5375 27.2303 21.984L22.6041 18.0129L17.9729 21.984C17.2924 22.568 16.2666 22.4867 15.6826 21.8063C15.0987 21.1258 15.1799 20.1 15.8604 19.516L21.5479 14.641C22.1573 14.118 23.0561 14.118 23.6655 14.641L28.2104 18.5359L32.4912 14.25H31.5416C30.6428 14.25 29.9166 13.5238 29.9166 12.625C29.9166 11.7262 30.6428 11 31.5416 11H36.4166C36.8635 11 37.2698 11.1828 37.5643 11.4723L37.5694 11.4773ZM13.6666 26.4375C13.6666 25.0918 14.7584 24 16.1041 24H37.2291C38.5748 24 39.6666 25.0918 39.6666 26.4375V34.5625C39.6666 35.9082 38.5748 37 37.2291 37H16.1041C14.7584 37 13.6666 35.9082 13.6666 34.5625V26.4375ZM16.1041 32.125V34.5625H18.5416C18.5416 33.2168 17.4498 32.125 16.1041 32.125ZM18.5416 26.4375H16.1041V28.875C17.4498 28.875 18.5416 27.7832 18.5416 26.4375ZM37.2291 32.125C35.8834 32.125 34.7916 33.2168 34.7916 34.5625H37.2291V32.125ZM34.7916 26.4375C34.7916 27.7832 35.8834 28.875 37.2291 28.875V26.4375H34.7916ZM29.9166 30.5C29.9166 29.638 29.5742 28.8114 28.9647 28.2019C28.3552 27.5924 27.5286 27.25 26.6666 27.25C25.8047 27.25 24.978 27.5924 24.3685 28.2019C23.759 28.8114 23.4166 29.638 23.4166 30.5C23.4166 31.362 23.759 32.1886 24.3685 32.7981C24.978 33.4076 25.8047 33.75 26.6666 33.75C27.5286 33.75 28.3552 33.4076 28.9647 32.7981C29.5742 32.1886 29.9166 31.362 29.9166 30.5Z" fill="#9152FF"/>
</g>
<rect x="3.16663" y="0.5" width="47" height="47" rx="11.5" stroke="white" stroke-opacity="0.06"/>
</g>
<defs>
<filter id="filter0_d_13695_12388" x="0.666626" y="0" width="52" height="52" filterUnits="userSpaceOnUse" color-interpolation-filters="sRGB">
<feFlood flood-opacity="0" result="BackgroundImageFix"/>
<feColorMatrix in="SourceAlpha" type="matrix" values="0 0 0 0 0 0 0 0 0 0 0 0 0 0 0 0 0 0 127 0" result="hardAlpha"/>
<feOffset dy="2"/>
<feGaussianBlur stdDeviation="1"/>
<feComposite in2="hardAlpha" operator="out"/>
<feColorMatrix type="matrix" values="0 0 0 0 0 0 0 0 0 0 0 0 0 0 0 0 0 0 0.16 0"/>
<feBlend mode="normal" in2="BackgroundImageFix" result="effect1_dropShadow_13695_12388"/>
<feBlend mode="normal" in="SourceGraphic" in2="effect1_dropShadow_13695_12388" result="shape"/>
</filter>
<filter id="filter1_f_13695_12388" x="9.66663" y="7" width="34" height="34" filterUnits="userSpaceOnUse" color-interpolation-filters="sRGB">
<feFlood flood-opacity="0" result="BackgroundImageFix"/>
<feBlend mode="normal" in="SourceGraphic" in2="BackgroundImageFix" result="shape"/>
<feGaussianBlur stdDeviation="2" result="effect1_foregroundBlur_13695_12388"/>
</filter>
<filter id="filter2_f_13695_12388" x="5.66663" y="3" width="42" height="42" filterUnits="userSpaceOnUse" color-interpolation-filters="sRGB">
<feFlood flood-opacity="0" result="BackgroundImageFix"/>
<feBlend mode="normal" in="SourceGraphic" in2="BackgroundImageFix" result="shape"/>
<feGaussianBlur stdDeviation="4" result="effect1_foregroundBlur_13695_12388"/>
</filter>
<filter id="filter3_f_13695_12388" x="-2.33337" y="-5" width="58" height="58" filterUnits="userSpaceOnUse" color-interpolation-filters="sRGB">
<feFlood flood-opacity="0" result="BackgroundImageFix"/>
<feBlend mode="normal" in="SourceGraphic" in2="BackgroundImageFix" result="shape"/>
<feGaussianBlur stdDeviation="8" result="effect1_foregroundBlur_13695_12388"/>
</filter>
<linearGradient id="paint0_linear_13695_12388" x1="2.73998" y1="-0.222234" x2="50.5906" y2="48.1135" gradientUnits="userSpaceOnUse">
<stop stop-color="#232328"/>
<stop offset="0.5" stop-color="#1F1F23"/>
<stop offset="0.878699" stop-color="#18181B"/>
</linearGradient>
<linearGradient id="paint1_linear_13695_12388" x1="2.73998" y1="-0.222236" x2="26.6665" y2="24.2222" gradientUnits="userSpaceOnUse">
<stop stop-color="white" stop-opacity="0.12"/>
<stop offset="0.5" stop-color="#808080" stop-opacity="0.06"/>
<stop offset="1" stop-opacity="0"/>
</linearGradient>
<radialGradient id="paint2_radial_13695_12388" cx="0" cy="0" r="1" gradientUnits="userSpaceOnUse" gradientTransform="translate(50.6666 48) rotate(-135) scale(36.7696)">
<stop stop-color="#6F45F7"/>
<stop offset="1" stop-color="#6F45F7" stop-opacity="0"/>
</radialGradient>
<clipPath id="clip0_13695_12388">
<rect x="2.66663" width="48" height="48" rx="12" fill="white"/>
</clipPath>
</defs>
</svg>
