<svg width="24" height="24" viewBox="0 0 24 24" fill="none" xmlns="http://www.w3.org/2000/svg">
<path d="M11.9989 2.55753L5.89755 4.42166L5.89684 4.42023C5.84498 4.43621 5.79047 4.4418 5.73645 4.43667C5.68243 4.43154 5.62994 4.41579 5.58203 4.39032C5.5341 4.36485 5.49168 4.33018 5.4572 4.28827C5.42272 4.24637 5.39685 4.19807 5.38109 4.14613C5.36532 4.09421 5.35996 4.03968 5.36532 3.98568C5.37069 3.93168 5.38666 3.87926 5.41233 3.83145C5.43801 3.78364 5.47286 3.74137 5.51491 3.70706C5.55697 3.67276 5.60538 3.6471 5.65737 3.63155L11.8792 1.73229C11.9572 1.70838 12.0406 1.70838 12.1186 1.73229L18.4759 3.67314C18.5801 3.70525 18.6673 3.77732 18.7184 3.87357C18.7696 3.96982 18.7805 4.0824 18.7488 4.1867C18.7172 4.29099 18.6455 4.37849 18.5495 4.43005C18.4535 4.48161 18.3409 4.49303 18.2365 4.46181L11.9989 2.55753Z" fill="#D3D3DE"/>
<path fill-rule="evenodd" clip-rule="evenodd" d="M11.8554 22.259C11.8306 22.2498 11.8066 22.2382 11.7838 22.2243L11.2989 21.9633C8.62757 20.5258 6.77141 18.7147 5.49167 16.8728C4.38458 15.2721 3.58003 13.4822 3.11787 11.5915C2.77836 10.2071 2.6065 8.78683 2.60598 7.36136C2.59925 6.70153 2.64263 6.04217 2.73575 5.38893L2.83837 4.7684C2.84052 4.73558 2.84661 4.70305 2.85657 4.67153C2.87294 4.61975 2.89942 4.57173 2.93448 4.53025C2.96954 4.48877 3.01248 4.45467 3.06082 4.42991C3.10916 4.40515 3.16193 4.39023 3.21607 4.386C3.27022 4.38178 3.32466 4.38835 3.37625 4.40532C3.42784 4.42229 3.47555 4.44934 3.51661 4.48488C3.55315 4.51651 3.58378 4.55431 3.60714 4.59652C3.61169 4.60459 3.61597 4.61281 3.61996 4.62116L7.28482 11.7705H16.7992C16.8422 11.7705 16.8845 11.7772 16.9247 11.7901L16.9672 11.7105L20.3758 4.61812C20.424 4.52109 20.5085 4.447 20.6111 4.41197C20.6277 4.40628 20.6446 4.40169 20.6616 4.3982C20.6689 4.3966 20.6762 4.39518 20.6835 4.39397C20.737 4.38513 20.7916 4.38694 20.8444 4.39933C20.8971 4.41171 20.9469 4.4344 20.9908 4.46611C21.0348 4.49781 21.072 4.5379 21.1003 4.58406C21.1287 4.63021 21.1477 4.68152 21.1561 4.73505L21.2644 5.38965C21.3575 6.04289 21.4009 6.70225 21.3941 7.36208C21.3936 8.78755 21.2217 10.2078 20.8822 11.5923C20.4205 13.4825 19.6164 15.2722 18.5099 16.8728C17.228 18.7147 15.3711 20.5251 12.7026 21.9633L12.1958 22.2365C12.136 22.2689 12.0691 22.2858 12.0011 22.2858C11.9512 22.2858 11.9018 22.2766 11.8554 22.259ZM17.7014 12.0747L20.526 6.20259C20.5583 6.5876 20.5724 6.97404 20.5682 7.36064C20.5675 8.71944 20.4036 10.0732 20.08 11.3929C19.6424 13.1858 18.8801 14.8835 17.831 16.4017C16.7337 17.9799 15.1937 19.5345 13.0169 20.8371L17.6935 12.0905L17.7014 12.0747ZM16.4965 12.5914H7.70564L12.01 20.9882L16.4965 12.5914ZM3.47522 6.14034L11.0167 20.8596C8.82004 19.5525 7.26909 17.989 6.16488 16.4017C5.11574 14.8835 4.35349 13.1858 3.91583 11.3929C3.59229 10.0735 3.42837 8.71991 3.42759 7.36136C3.42321 6.95368 3.43912 6.54617 3.47522 6.14034Z" fill="#D3D3DE"/>
<path d="M11.9989 2.55753L5.89755 4.42166L5.89684 4.42023C5.84498 4.43621 5.79047 4.4418 5.73645 4.43667C5.68243 4.43154 5.62994 4.41579 5.58203 4.39032C5.5341 4.36485 5.49168 4.33018 5.4572 4.28827C5.42272 4.24637 5.39685 4.19807 5.38109 4.14613C5.36532 4.09421 5.35996 4.03968 5.36532 3.98568C5.37069 3.93168 5.38666 3.87926 5.41233 3.83145C5.43801 3.78364 5.47286 3.74137 5.51491 3.70706C5.55697 3.67276 5.60538 3.6471 5.65737 3.63155L11.8792 1.73229C11.9572 1.70838 12.0406 1.70838 12.1186 1.73229L18.4759 3.67314C18.5801 3.70525 18.6673 3.77732 18.7184 3.87357C18.7696 3.96982 18.7805 4.0824 18.7488 4.1867C18.7172 4.29099 18.6455 4.37849 18.5495 4.43005C18.4535 4.48161 18.3409 4.49303 18.2365 4.46181L11.9989 2.55753Z" stroke="#D3D3DE"/>
<path fill-rule="evenodd" clip-rule="evenodd" d="M11.8554 22.259C11.8306 22.2498 11.8066 22.2382 11.7838 22.2243L11.2989 21.9633C8.62757 20.5258 6.77141 18.7147 5.49167 16.8728C4.38458 15.2721 3.58003 13.4822 3.11787 11.5915C2.77836 10.2071 2.6065 8.78683 2.60598 7.36136C2.59925 6.70153 2.64263 6.04217 2.73575 5.38893L2.83837 4.7684C2.84052 4.73558 2.84661 4.70305 2.85657 4.67153C2.87294 4.61975 2.89942 4.57173 2.93448 4.53025C2.96954 4.48877 3.01248 4.45467 3.06082 4.42991C3.10916 4.40515 3.16193 4.39023 3.21607 4.386C3.27022 4.38178 3.32466 4.38835 3.37625 4.40532C3.42784 4.42229 3.47555 4.44934 3.51661 4.48488C3.55315 4.51651 3.58378 4.55431 3.60714 4.59652C3.61169 4.60459 3.61597 4.61281 3.61996 4.62116L7.28482 11.7705H16.7992C16.8422 11.7705 16.8845 11.7772 16.9247 11.7901L16.9672 11.7105L20.3758 4.61812C20.424 4.52109 20.5085 4.447 20.6111 4.41197C20.6277 4.40628 20.6446 4.40169 20.6616 4.3982C20.6689 4.3966 20.6762 4.39518 20.6835 4.39397C20.737 4.38513 20.7916 4.38694 20.8444 4.39933C20.8971 4.41171 20.9469 4.4344 20.9908 4.46611C21.0348 4.49781 21.072 4.5379 21.1003 4.58406C21.1287 4.63021 21.1477 4.68152 21.1561 4.73505L21.2644 5.38965C21.3575 6.04289 21.4009 6.70225 21.3941 7.36208C21.3936 8.78755 21.2217 10.2078 20.8822 11.5923C20.4205 13.4825 19.6164 15.2722 18.5099 16.8728C17.228 18.7147 15.3711 20.5251 12.7026 21.9633L12.1958 22.2365C12.136 22.2689 12.0691 22.2858 12.0011 22.2858C11.9512 22.2858 11.9018 22.2766 11.8554 22.259ZM17.7014 12.0747L20.526 6.20259C20.5583 6.5876 20.5724 6.97404 20.5682 7.36064C20.5675 8.71944 20.4036 10.0732 20.08 11.3929C19.6424 13.1858 18.8801 14.8835 17.831 16.4017C16.7337 17.9799 15.1937 19.5345 13.0169 20.8371L17.6935 12.0905L17.7014 12.0747ZM16.4965 12.5914H7.70564L12.01 20.9882L16.4965 12.5914ZM3.47522 6.14034L11.0167 20.8596C8.82004 19.5525 7.26909 17.989 6.16488 16.4017C5.11574 14.8835 4.35349 13.1858 3.91583 11.3929C3.59229 10.0735 3.42837 8.71991 3.42759 7.36136C3.42321 6.95368 3.43912 6.54617 3.47522 6.14034Z" stroke="#D3D3DE"/>
</svg>
