<svg width="52" height="52" viewBox="0 0 52 52" fill="none" xmlns="http://www.w3.org/2000/svg">
<g filter="url(#filter0_d_13446_11005)">
<g clip-path="url(#clip0_13446_11005)">
<rect x="2" width="48" height="48" rx="12" fill="url(#paint0_linear_13446_11005)"/>
<rect x="2" width="48" height="48" rx="12" fill="url(#paint1_linear_13446_11005)"/>
<path opacity="0.2" fill-rule="evenodd" clip-rule="evenodd" d="M23.4339 16.9315C23.759 16.4652 23.9496 15.8982 23.9496 15.2866C23.9496 13.6962 22.6604 12.407 21.07 12.407C19.4796 12.407 18.1904 13.6962 18.1904 15.2866C18.1904 16.7695 19.3113 17.9906 20.752 18.1489L22.1352 20.931C20.9313 21.8369 20.05 23.1483 19.6942 24.6623H16.336C15.8296 23.8369 14.9189 23.2863 13.8796 23.2863C12.2893 23.2863 11 24.5756 11 26.166C11 27.7563 12.2893 29.0456 13.8796 29.0456C14.9455 29.0456 15.8761 28.4665 16.374 27.6057H19.6795C20.3355 30.5292 22.9467 32.7135 26.0682 32.7135C27.9686 32.7135 29.68 31.9038 30.876 30.6106L34.2421 32.8012C34.2885 34.3509 35.5594 35.5929 37.1204 35.5929C38.7107 35.5929 40 34.3037 40 32.7133C40 31.1229 38.7107 29.8337 37.1204 29.8337C36.5937 29.8337 36.1 29.9751 35.6752 30.222L32.34 28.0515C32.5193 27.4544 32.6156 26.8215 32.6156 26.1661C32.6156 25.2811 32.44 24.4371 32.1218 23.6671L35.824 20.8137C36.1722 20.9631 36.5558 21.0459 36.9588 21.0459C38.5492 21.0459 39.8384 19.7566 39.8384 18.1662C39.8384 16.5759 38.5492 15.2866 36.9588 15.2866C35.3684 15.2866 34.0792 16.5759 34.0792 18.1662C34.0792 18.2561 34.0833 18.3451 34.0913 18.4329L30.413 21.2679C29.2571 20.2418 27.7354 19.6186 26.0682 19.6186C25.6442 19.6186 25.2296 19.6589 24.8281 19.7359L23.4339 16.9315ZM26.0682 28.4619C27.3361 28.4619 28.364 27.434 28.364 26.1661C28.364 24.8981 27.3361 23.8702 26.0682 23.8702C24.8002 23.8702 23.7723 24.8981 23.7723 26.1661C23.7723 27.434 24.8002 28.4619 26.0682 28.4619Z" fill="#AFF113"/>
<g opacity="0.4" filter="url(#filter1_f_13446_11005)">
<path fill-rule="evenodd" clip-rule="evenodd" d="M23.4339 16.9315C23.759 16.4652 23.9496 15.8982 23.9496 15.2866C23.9496 13.6962 22.6604 12.407 21.07 12.407C19.4796 12.407 18.1904 13.6962 18.1904 15.2866C18.1904 16.7695 19.3113 17.9906 20.752 18.1489L22.1352 20.931C20.9313 21.8369 20.05 23.1483 19.6942 24.6623H16.336C15.8296 23.8369 14.9189 23.2863 13.8796 23.2863C12.2893 23.2863 11 24.5756 11 26.166C11 27.7563 12.2893 29.0456 13.8796 29.0456C14.9455 29.0456 15.8761 28.4665 16.374 27.6057H19.6795C20.3355 30.5292 22.9467 32.7135 26.0682 32.7135C27.9686 32.7135 29.68 31.9038 30.876 30.6106L34.2421 32.8012C34.2885 34.3509 35.5594 35.5929 37.1204 35.5929C38.7107 35.5929 40 34.3037 40 32.7133C40 31.1229 38.7107 29.8337 37.1204 29.8337C36.5937 29.8337 36.1 29.9751 35.6752 30.222L32.34 28.0515C32.5193 27.4544 32.6156 26.8215 32.6156 26.1661C32.6156 25.2811 32.44 24.4371 32.1218 23.6671L35.824 20.8137C36.1722 20.9631 36.5558 21.0459 36.9588 21.0459C38.5492 21.0459 39.8384 19.7566 39.8384 18.1662C39.8384 16.5759 38.5492 15.2866 36.9588 15.2866C35.3684 15.2866 34.0792 16.5759 34.0792 18.1662C34.0792 18.2561 34.0833 18.3451 34.0913 18.4329L30.413 21.2679C29.2571 20.2418 27.7354 19.6186 26.0682 19.6186C25.6442 19.6186 25.2296 19.6589 24.8281 19.7359L23.4339 16.9315ZM26.0682 28.4619C27.3361 28.4619 28.364 27.434 28.364 26.1661C28.364 24.8981 27.3361 23.8702 26.0682 23.8702C24.8002 23.8702 23.7723 24.8981 23.7723 26.1661C23.7723 27.434 24.8002 28.4619 26.0682 28.4619Z" fill="#AFF113"/>
</g>
<g opacity="0.6" filter="url(#filter2_f_13446_11005)">
<path fill-rule="evenodd" clip-rule="evenodd" d="M23.4339 16.9315C23.759 16.4652 23.9496 15.8982 23.9496 15.2866C23.9496 13.6962 22.6604 12.407 21.07 12.407C19.4796 12.407 18.1904 13.6962 18.1904 15.2866C18.1904 16.7695 19.3113 17.9906 20.752 18.1489L22.1352 20.931C20.9313 21.8369 20.05 23.1483 19.6942 24.6623H16.336C15.8296 23.8369 14.9189 23.2863 13.8796 23.2863C12.2893 23.2863 11 24.5756 11 26.166C11 27.7563 12.2893 29.0456 13.8796 29.0456C14.9455 29.0456 15.8761 28.4665 16.374 27.6057H19.6795C20.3355 30.5292 22.9467 32.7135 26.0682 32.7135C27.9686 32.7135 29.68 31.9038 30.876 30.6106L34.2421 32.8012C34.2885 34.3509 35.5594 35.5929 37.1204 35.5929C38.7107 35.5929 40 34.3037 40 32.7133C40 31.1229 38.7107 29.8337 37.1204 29.8337C36.5937 29.8337 36.1 29.9751 35.6752 30.222L32.34 28.0515C32.5193 27.4544 32.6156 26.8215 32.6156 26.1661C32.6156 25.2811 32.44 24.4371 32.1218 23.6671L35.824 20.8137C36.1722 20.9631 36.5558 21.0459 36.9588 21.0459C38.5492 21.0459 39.8384 19.7566 39.8384 18.1662C39.8384 16.5759 38.5492 15.2866 36.9588 15.2866C35.3684 15.2866 34.0792 16.5759 34.0792 18.1662C34.0792 18.2561 34.0833 18.3451 34.0913 18.4329L30.413 21.2679C29.2571 20.2418 27.7354 19.6186 26.0682 19.6186C25.6442 19.6186 25.2296 19.6589 24.8281 19.7359L23.4339 16.9315ZM26.0682 28.4619C27.3361 28.4619 28.364 27.434 28.364 26.1661C28.364 24.8981 27.3361 23.8702 26.0682 23.8702C24.8002 23.8702 23.7723 24.8981 23.7723 26.1661C23.7723 27.434 24.8002 28.4619 26.0682 28.4619Z" fill="#AFF113"/>
</g>
<path fill-rule="evenodd" clip-rule="evenodd" d="M23.4339 16.9315C23.759 16.4652 23.9496 15.8982 23.9496 15.2866C23.9496 13.6962 22.6604 12.407 21.07 12.407C19.4796 12.407 18.1904 13.6962 18.1904 15.2866C18.1904 16.7695 19.3113 17.9906 20.752 18.1489L22.1352 20.931C20.9313 21.8369 20.05 23.1483 19.6942 24.6623H16.336C15.8296 23.8369 14.9189 23.2863 13.8796 23.2863C12.2893 23.2863 11 24.5756 11 26.166C11 27.7563 12.2893 29.0456 13.8796 29.0456C14.9455 29.0456 15.8761 28.4665 16.374 27.6057H19.6795C20.3355 30.5292 22.9467 32.7135 26.0682 32.7135C27.9686 32.7135 29.68 31.9038 30.876 30.6106L34.2421 32.8012C34.2885 34.3509 35.5594 35.5929 37.1204 35.5929C38.7107 35.5929 40 34.3037 40 32.7133C40 31.1229 38.7107 29.8337 37.1204 29.8337C36.5937 29.8337 36.1 29.9751 35.6752 30.222L32.34 28.0515C32.5193 27.4544 32.6156 26.8215 32.6156 26.1661C32.6156 25.2811 32.44 24.4371 32.1218 23.6671L35.824 20.8137C36.1722 20.9631 36.5558 21.0459 36.9588 21.0459C38.5492 21.0459 39.8384 19.7566 39.8384 18.1662C39.8384 16.5759 38.5492 15.2866 36.9588 15.2866C35.3684 15.2866 34.0792 16.5759 34.0792 18.1662C34.0792 18.2561 34.0833 18.3451 34.0913 18.4329L30.413 21.2679C29.2571 20.2418 27.7354 19.6186 26.0682 19.6186C25.6442 19.6186 25.2296 19.6589 24.8281 19.7359L23.4339 16.9315ZM26.0682 28.4619C27.3361 28.4619 28.364 27.434 28.364 26.1661C28.364 24.8981 27.3361 23.8702 26.0682 23.8702C24.8002 23.8702 23.7723 24.8981 23.7723 26.1661C23.7723 27.434 24.8002 28.4619 26.0682 28.4619Z" fill="#AFF113"/>
</g>
<rect x="2.5" y="0.5" width="47" height="47" rx="11.5" stroke="white" stroke-opacity="0.06"/>
</g>
<defs>
<filter id="filter0_d_13446_11005" x="0" y="0" width="52" height="52" filterUnits="userSpaceOnUse" color-interpolation-filters="sRGB">
<feFlood flood-opacity="0" result="BackgroundImageFix"/>
<feColorMatrix in="SourceAlpha" type="matrix" values="0 0 0 0 0 0 0 0 0 0 0 0 0 0 0 0 0 0 127 0" result="hardAlpha"/>
<feOffset dy="2"/>
<feGaussianBlur stdDeviation="1"/>
<feComposite in2="hardAlpha" operator="out"/>
<feColorMatrix type="matrix" values="0 0 0 0 0 0 0 0 0 0 0 0 0 0 0 0 0 0 0.16 0"/>
<feBlend mode="normal" in2="BackgroundImageFix" result="effect1_dropShadow_13446_11005"/>
<feBlend mode="normal" in="SourceGraphic" in2="effect1_dropShadow_13446_11005" result="shape"/>
</filter>
<filter id="filter1_f_13446_11005" x="3" y="4.40698" width="45" height="39.186" filterUnits="userSpaceOnUse" color-interpolation-filters="sRGB">
<feFlood flood-opacity="0" result="BackgroundImageFix"/>
<feBlend mode="normal" in="SourceGraphic" in2="BackgroundImageFix" result="shape"/>
<feGaussianBlur stdDeviation="4" result="effect1_foregroundBlur_13446_11005"/>
</filter>
<filter id="filter2_f_13446_11005" x="-5" y="-3.59302" width="61" height="55.186" filterUnits="userSpaceOnUse" color-interpolation-filters="sRGB">
<feFlood flood-opacity="0" result="BackgroundImageFix"/>
<feBlend mode="normal" in="SourceGraphic" in2="BackgroundImageFix" result="shape"/>
<feGaussianBlur stdDeviation="8" result="effect1_foregroundBlur_13446_11005"/>
</filter>
<linearGradient id="paint0_linear_13446_11005" x1="2.07336" y1="-0.222234" x2="49.924" y2="48.1135" gradientUnits="userSpaceOnUse">
<stop stop-color="#232328"/>
<stop offset="0.5" stop-color="#1F1F23"/>
<stop offset="0.878699" stop-color="#18181B"/>
</linearGradient>
<linearGradient id="paint1_linear_13446_11005" x1="2.07336" y1="-0.222236" x2="25.9999" y2="24.2222" gradientUnits="userSpaceOnUse">
<stop stop-color="white" stop-opacity="0.12"/>
<stop offset="0.5" stop-color="#808080" stop-opacity="0.06"/>
<stop offset="1" stop-opacity="0"/>
</linearGradient>
<clipPath id="clip0_13446_11005">
<rect x="2" width="48" height="48" rx="12" fill="white"/>
</clipPath>
</defs>
</svg>
