<svg width="20" height="20" viewBox="0 0 20 20" fill="none" xmlns="http://www.w3.org/2000/svg">
<path d="M6.44661 10.53C6.44661 11.3007 7.00928 11.9296 7.6949 11.9296C8.38997 11.9296 8.94318 11.3007 8.94318 10.5277C8.95501 9.76166 8.39706 9.12806 7.6949 9.12806C6.99983 9.12806 6.44661 9.7593 6.44661 10.53Z" fill="#4F4F63"/>
<path d="M11.0662 10.53C11.0662 11.3007 11.6289 11.9296 12.3145 11.9296C13.0143 11.9296 13.5628 11.3007 13.5628 10.5277C13.5746 9.76166 13.0167 9.12806 12.3145 9.12806C11.6171 9.12806 11.0662 9.7593 11.0662 10.53Z" fill="#4F4F63"/>
<path fill-rule="evenodd" clip-rule="evenodd" d="M1.25 3.75C1.25 2.37109 2.37109 1.25 3.75 1.25H16.25C17.6289 1.25 18.75 2.37109 18.75 3.75V16.25C18.75 17.6289 17.6289 18.75 16.25 18.75H3.75C2.37109 18.75 1.25 17.6289 1.25 16.25V3.75ZM14.8158 5.58179C14.8239 5.58481 14.8307 5.5907 14.8347 5.59834C16.4045 7.90814 17.18 10.5111 16.8916 13.5065C16.891 13.5131 16.8891 13.5195 16.8858 13.5252C16.8825 13.5309 16.878 13.5358 16.8727 13.5396C15.8208 14.3174 14.6439 14.9099 13.3926 15.2915C13.3836 15.2943 13.374 15.2942 13.3651 15.2912C13.3562 15.2882 13.3484 15.2825 13.3429 15.2749C13.0786 14.9082 12.8416 14.5226 12.6337 14.1212C12.631 14.1157 12.6294 14.1096 12.6291 14.1034C12.6289 14.0973 12.6299 14.0911 12.6321 14.0853C12.6343 14.0796 12.6377 14.0743 12.642 14.0699C12.6464 14.0655 12.6516 14.062 12.6573 14.0597C13.0329 13.9188 13.3959 13.7464 13.7425 13.5444C13.7486 13.5406 13.7538 13.5354 13.7575 13.5293C13.7612 13.5231 13.7634 13.5161 13.7638 13.5089C13.7643 13.5017 13.763 13.4946 13.7601 13.488C13.7572 13.4814 13.7528 13.4756 13.7472 13.4711C13.6739 13.4167 13.6006 13.3576 13.5321 13.3008C13.5258 13.2959 13.5182 13.2929 13.5103 13.292C13.5023 13.2912 13.4943 13.2926 13.4871 13.2961C11.2388 14.334 8.77533 14.334 6.50099 13.2961C6.49359 13.2929 6.48545 13.2919 6.4775 13.2932C6.46955 13.2944 6.46212 13.2979 6.45607 13.3032C6.38751 13.3599 6.31422 13.4167 6.24093 13.4711C6.23532 13.4756 6.23088 13.4814 6.22798 13.488C6.22509 13.4946 6.22382 13.5017 6.22428 13.5089C6.22474 13.5161 6.22693 13.5231 6.23065 13.5293C6.23437 13.5354 6.23951 13.5406 6.24565 13.5444C6.59312 13.7453 6.95598 13.9185 7.33081 14.0621C7.33655 14.0644 7.34176 14.0679 7.3461 14.0723C7.35044 14.0767 7.35382 14.0819 7.35604 14.0877C7.35826 14.0935 7.35927 14.0996 7.35899 14.1058C7.35872 14.112 7.35718 14.118 7.35445 14.1236C7.15013 14.527 6.9129 14.9129 6.6452 15.2773C6.63969 15.2849 6.63194 15.2906 6.62304 15.2935C6.61413 15.2965 6.60452 15.2966 6.59555 15.2938C5.34786 14.9105 4.17431 14.3182 3.12493 13.542C3.11966 13.5381 3.11525 13.5331 3.11199 13.5274C3.10874 13.5217 3.1067 13.5154 3.10602 13.5089C2.86487 10.9154 3.35899 8.29114 5.16049 5.59834C5.16487 5.59094 5.1715 5.58514 5.17941 5.58179C6.08144 5.16775 7.03354 4.8729 8.0117 4.70468C8.02045 4.70341 8.02938 4.70475 8.03737 4.70854C8.04536 4.71232 8.05205 4.71838 8.05662 4.72595C8.18883 4.96035 8.308 5.20187 8.41361 5.44939C9.46673 5.28955 10.5379 5.28955 11.5911 5.44939C11.6962 5.20248 11.8138 4.96102 11.9433 4.72595C11.9476 4.71815 11.9543 4.71189 11.9624 4.70808C11.9704 4.70426 11.9795 4.70307 11.9883 4.70468C12.9647 4.87366 13.9151 5.16849 14.8158 5.58179Z" fill="#4F4F63"/>
</svg>
