<svg width="456" height="352" viewBox="0 0 456 352" fill="none" xmlns="http://www.w3.org/2000/svg">
<rect width="456" height="352" rx="32" fill="#26262B"/>
<rect x="0.5" y="0.5" width="455" height="351" rx="31.5" stroke="white" stroke-opacity="0.16"/>
<rect width="456" height="224" transform="translate(0 128)" fill="url(#paint0_linear_13357_11263)"/>
<path opacity="0.2" d="M28 132L28 352" stroke="url(#paint1_linear_13357_11263)"/>
<path opacity="0.4" d="M128 132L128 352" stroke="url(#paint2_linear_13357_11263)"/>
<path opacity="0.6" d="M228 132L228 352" stroke="url(#paint3_linear_13357_11263)"/>
<path opacity="0.8" d="M328 132L328 352" stroke="url(#paint4_linear_13357_11263)"/>
<path d="M428 132L428 352" stroke="url(#paint5_linear_13357_11263)"/>
<path d="M37.24 59V39.12H40.908V55.78H50.316V59H37.24ZM51.6526 51.58C51.6526 46.876 54.5646 43.824 58.9886 43.824C62.7966 43.824 65.9046 46.4 65.9606 51.664L65.9886 52.56H55.4326C55.6006 55.024 56.8886 56.48 58.9886 56.48C60.3326 56.48 61.5366 55.724 62.0686 54.436L65.7646 54.716C64.8966 57.572 62.2086 59.336 58.9886 59.336C54.5646 59.336 51.6526 56.284 51.6526 51.58ZM55.4886 50.152H62.2366C61.9566 47.632 60.5566 46.68 58.9886 46.68C57.0286 46.68 55.7686 47.996 55.4886 50.152ZM82.1833 44.16L76.6953 59H72.4393L66.9513 44.16H70.7033L74.5673 55.332L78.4033 44.16H82.1833ZM83.2073 51.58C83.2073 46.876 86.1193 43.824 90.5433 43.824C94.3513 43.824 97.4592 46.4 97.5153 51.664L97.5433 52.56H86.9873C87.1553 55.024 88.4433 56.48 90.5433 56.48C91.8873 56.48 93.0913 55.724 93.6233 54.436L97.3193 54.716C96.4513 57.572 93.7633 59.336 90.5433 59.336C86.1193 59.336 83.2073 56.284 83.2073 51.58ZM87.0433 50.152H93.7913C93.5113 47.632 92.1113 46.68 90.5433 46.68C88.5833 46.68 87.3233 47.996 87.0433 50.152ZM100.452 44.16H103.84L103.924 47.044C104.484 45.112 105.576 44.16 107.48 44.16H108.88V46.988H107.452C105.072 46.988 104.092 48.164 104.092 50.544V59H100.452V44.16ZM110.966 48.668C111.554 45.616 113.962 43.824 117.602 43.824C121.886 43.824 124.154 46.036 124.154 50.208V55.276C124.154 56.144 124.518 56.368 125.078 56.368H125.638V59L124.798 59.028C123.65 59.028 121.27 59.056 120.99 56.76C120.318 58.216 118.638 59.336 116.062 59.336C113.094 59.336 110.742 57.74 110.742 55.108C110.742 52.224 112.87 51.3 116.342 50.6L120.514 49.76C120.486 47.52 119.534 46.428 117.602 46.428C116.034 46.428 115.026 47.268 114.662 48.892L110.966 48.668ZM114.466 54.996C114.466 56.004 115.306 56.788 117.042 56.788C119.058 56.788 120.57 55.332 120.57 52.392V52.224L117.77 52.728C115.894 53.092 114.466 53.288 114.466 54.996ZM133.917 58.272C130.053 58.272 127.449 55.416 127.449 51.188C127.449 46.792 130.053 43.824 133.889 43.824C135.821 43.824 137.445 44.804 138.201 46.428V44.16H141.757V57.32C141.757 61.268 138.817 63.536 134.617 63.536C131.229 63.536 128.653 61.856 127.841 59.308L131.565 59.056C132.041 60.148 133.133 60.82 134.645 60.82C136.829 60.82 138.117 59.784 138.117 57.796V55.92C137.389 57.376 135.765 58.272 133.917 58.272ZM131.173 51.16C131.173 53.876 132.573 55.584 134.701 55.584C136.857 55.584 138.201 53.876 138.229 51.16C138.257 48.416 136.885 46.708 134.701 46.708C132.517 46.708 131.173 48.416 131.173 51.16ZM144.895 51.58C144.895 46.876 147.807 43.824 152.231 43.824C156.039 43.824 159.147 46.4 159.203 51.664L159.231 52.56H148.675C148.843 55.024 150.131 56.48 152.231 56.48C153.575 56.48 154.779 55.724 155.311 54.436L159.007 54.716C158.139 57.572 155.451 59.336 152.231 59.336C147.807 59.336 144.895 56.284 144.895 51.58ZM148.731 50.152H155.479C155.199 47.632 153.799 46.68 152.231 46.68C150.271 46.68 149.011 47.996 148.731 50.152ZM176.928 39.12C181.604 39.12 184.404 41.5 184.404 45.448C184.404 49.452 181.604 51.86 176.928 51.86H172.924V59H169.256V39.12H176.928ZM172.924 48.64H176.788C179.252 48.64 180.596 47.576 180.596 45.448C180.596 43.376 179.28 42.34 176.788 42.34H172.924V48.64ZM193.465 59.336C189.041 59.336 186.129 56.284 186.129 51.58C186.129 46.876 189.041 43.824 193.465 43.824C197.889 43.824 200.801 46.876 200.801 51.58C200.801 56.284 197.889 59.336 193.465 59.336ZM189.853 51.58C189.853 54.632 191.169 56.396 193.465 56.396C195.761 56.396 197.077 54.632 197.077 51.58C197.077 48.528 195.761 46.764 193.465 46.764C191.169 46.764 189.853 48.528 189.853 51.58ZM212.684 48.892C212.432 47.436 211.088 46.54 209.688 46.54C208.316 46.54 207.224 47.268 207.252 48.444C207.28 49.648 208.764 50.18 210.22 50.432C214.252 51.104 216.52 52.168 216.52 55.024C216.52 57.964 213.664 59.336 210.192 59.336C206.132 59.336 203.388 57.432 203.164 54.296L206.832 54.1C207.112 55.64 208.26 56.592 210.136 56.592C211.312 56.592 212.796 56.144 212.796 54.94C212.768 53.512 211.144 53.288 209.632 52.952C205.992 52.224 203.5 51.3 203.5 48.5C203.5 45.588 205.936 43.796 209.884 43.796C213.384 43.796 215.876 45.7 216.352 48.724L212.684 48.892ZM219.233 44.16H222.873V59H219.233V44.16ZM219.177 42.088V39.12H222.929V42.088H219.177ZM227.475 40.8H231.115V44.16H235.035V46.96H231.115V54.436C231.115 55.584 231.675 56.172 232.795 56.172H235.035V59H232.179C229.127 59 227.475 57.46 227.475 54.436V46.96H225.151V44.16H227.475V40.8ZM237.909 44.16H241.549V59H237.909V44.16ZM237.853 42.088V39.12H241.605V42.088H237.853ZM251.926 59.336C247.502 59.336 244.59 56.284 244.59 51.58C244.59 46.876 247.502 43.824 251.926 43.824C256.35 43.824 259.262 46.876 259.262 51.58C259.262 56.284 256.35 59.336 251.926 59.336ZM248.314 51.58C248.314 54.632 249.63 56.396 251.926 56.396C254.222 56.396 255.538 54.632 255.538 51.58C255.538 48.528 254.222 46.764 251.926 46.764C249.63 46.764 248.314 48.528 248.314 51.58ZM262.19 44.16H265.466L265.55 46.568C266.362 44.608 268.042 43.824 270.03 43.824C273.306 43.824 275.098 46.12 275.098 49.452V59H271.486V50.6C271.486 48.136 270.842 46.764 268.938 46.764C266.95 46.764 265.83 48.136 265.83 50.6V59H262.19V44.16Z" fill="#D3D3DE"/>
<path d="M298.42 59H295.088L295.032 56.62C294.22 58.58 292.568 59.336 290.636 59.336C287.416 59.336 285.624 57.04 285.624 53.708V44.16H289.264V52.532C289.264 55.024 289.908 56.396 291.756 56.396C293.66 56.396 294.78 55.024 294.78 52.532V44.16H298.42V59ZM302.331 63.2V44.16H305.775L305.859 46.288C306.671 44.692 308.211 43.824 310.311 43.824C314.595 43.824 316.667 47.324 316.667 51.58C316.667 55.836 314.595 59.336 310.311 59.336C308.323 59.336 306.839 58.524 305.971 56.984V63.2H302.331ZM305.691 51.58C305.691 54.128 306.783 56.424 309.303 56.424C311.823 56.424 312.915 54.128 312.915 51.58C312.915 49.06 311.795 46.736 309.303 46.736C306.783 46.736 305.691 49.06 305.691 51.58ZM328.045 40.8H331.685V44.16H335.605V46.96H331.685V54.436C331.685 55.584 332.245 56.172 333.365 56.172H335.605V59H332.749C329.697 59 328.045 57.46 328.045 54.436V46.96H325.721V44.16H328.045V40.8ZM344.703 59.336C340.279 59.336 337.367 56.284 337.367 51.58C337.367 46.876 340.279 43.824 344.703 43.824C349.127 43.824 352.039 46.876 352.039 51.58C352.039 56.284 349.127 59.336 344.703 59.336ZM341.091 51.58C341.091 54.632 342.407 56.396 344.703 56.396C346.999 56.396 348.315 54.632 348.315 51.58C348.315 48.528 346.999 46.764 344.703 46.764C342.407 46.764 341.091 48.528 341.091 51.58ZM375.244 39.12V42.34H366.368L365.64 47.688C366.536 46.456 368.384 45.756 370.232 45.756C373.956 45.756 376.616 48.528 376.616 52.364C376.616 56.592 373.592 59.448 369.168 59.448C364.912 59.448 361.748 57.068 361.44 53.652L365.192 53.456C365.5 55.192 367.18 56.228 369.112 56.228C371.296 56.228 372.836 54.66 372.836 52.448C372.836 50.124 371.296 48.64 368.916 48.64C367.32 48.64 365.948 49.396 365.444 50.6H361.72L363.232 39.12H375.244ZM390.287 44.132H394.347L389.195 51.44L394.543 59H390.483L387.039 53.848L383.595 59H379.507L384.939 51.412L379.731 44.132H383.791L387.039 49.004L390.287 44.132Z" fill="#8061E5"/>
<path d="M37.12 165.06H38.954V175H37.12V165.06ZM41.0028 167.58H42.6408L42.6828 168.784C43.0888 167.804 43.9288 167.412 44.9228 167.412C46.5608 167.412 47.4568 168.56 47.4568 170.226V175H45.6508V170.8C45.6508 169.568 45.3288 168.882 44.3768 168.882C43.3828 168.882 42.8228 169.568 42.8228 170.8V175H41.0028V167.58ZM49.551 167.58H51.371V175H49.551V167.58ZM49.523 166.544V165.06H51.399V166.544H49.523ZM53.8116 165.9H55.6316V167.58H57.5916V168.98H55.6316V172.718C55.6316 173.292 55.9116 173.586 56.4716 173.586H57.5916V175H56.1636C54.6376 175 53.8116 174.23 53.8116 172.718V168.98H52.6496V167.58H53.8116V165.9ZM59.1689 167.58H60.9889V175H59.1689V167.58ZM59.1409 166.544V165.06H61.0169V166.544H59.1409ZM62.8023 169.834C63.0963 168.308 64.3003 167.412 66.1203 167.412C68.2623 167.412 69.3963 168.518 69.3963 170.604V173.138C69.3963 173.572 69.5783 173.684 69.8583 173.684H70.1383V175L69.7183 175.014C69.1443 175.014 67.9543 175.028 67.8143 173.88C67.4783 174.608 66.6383 175.168 65.3503 175.168C63.8663 175.168 62.6903 174.37 62.6903 173.054C62.6903 171.612 63.7543 171.15 65.4903 170.8L67.5763 170.38C67.5623 169.26 67.0863 168.714 66.1203 168.714C65.3363 168.714 64.8323 169.134 64.6503 169.946L62.8023 169.834ZM64.5523 172.998C64.5523 173.502 64.9723 173.894 65.8403 173.894C66.8483 173.894 67.6043 173.166 67.6043 171.696V171.612L66.2043 171.864C65.2663 172.046 64.5523 172.144 64.5523 172.998ZM71.6989 165.06H73.5189V173.054C73.5189 173.404 73.7009 173.586 74.0369 173.586H74.6109V175H73.5609C72.4549 175 71.6989 174.314 71.6989 173.138V165.06ZM79.6762 177.1V167.58H81.3982L81.4402 168.644C81.8462 167.846 82.6162 167.412 83.6662 167.412C85.8082 167.412 86.8442 169.162 86.8442 171.29C86.8442 173.418 85.8082 175.168 83.6662 175.168C82.6722 175.168 81.9302 174.762 81.4962 173.992V177.1H79.6762ZM81.3562 171.29C81.3562 172.564 81.9022 173.712 83.1622 173.712C84.4222 173.712 84.9682 172.564 84.9682 171.29C84.9682 170.03 84.4082 168.868 83.1622 168.868C81.9022 168.868 81.3562 170.03 81.3562 171.29ZM91.8285 175.168C89.6165 175.168 88.1605 173.642 88.1605 171.29C88.1605 168.938 89.6165 167.412 91.8285 167.412C94.0405 167.412 95.4965 168.938 95.4965 171.29C95.4965 173.642 94.0405 175.168 91.8285 175.168ZM90.0225 171.29C90.0225 172.816 90.6805 173.698 91.8285 173.698C92.9765 173.698 93.6345 172.816 93.6345 171.29C93.6345 169.764 92.9765 168.882 91.8285 168.882C90.6805 168.882 90.0225 169.764 90.0225 171.29ZM101.578 169.946C101.452 169.218 100.78 168.77 100.08 168.77C99.3941 168.77 98.8481 169.134 98.8621 169.722C98.8761 170.324 99.6181 170.59 100.346 170.716C102.362 171.052 103.496 171.584 103.496 173.012C103.496 174.482 102.068 175.168 100.332 175.168C98.3021 175.168 96.9301 174.216 96.8181 172.648L98.6521 172.55C98.7921 173.32 99.3661 173.796 100.304 173.796C100.892 173.796 101.634 173.572 101.634 172.97C101.62 172.256 100.808 172.144 100.052 171.976C98.2321 171.612 96.9861 171.15 96.9861 169.75C96.9861 168.294 98.2041 167.398 100.178 167.398C101.928 167.398 103.174 168.35 103.412 169.862L101.578 169.946ZM104.993 167.58H106.813V175H104.993V167.58ZM104.965 166.544V165.06H106.841V166.544H104.965ZM109.253 165.9H111.073V167.58H113.033V168.98H111.073V172.718C111.073 173.292 111.353 173.586 111.913 173.586H113.033V175H111.605C110.079 175 109.253 174.23 109.253 172.718V168.98H108.091V167.58H109.253V165.9ZM114.611 167.58H116.431V175H114.611V167.58ZM114.583 166.544V165.06H116.459V166.544H114.583ZM121.759 175.168C119.547 175.168 118.091 173.642 118.091 171.29C118.091 168.938 119.547 167.412 121.759 167.412C123.971 167.412 125.427 168.938 125.427 171.29C125.427 173.642 123.971 175.168 121.759 175.168ZM119.953 171.29C119.953 172.816 120.611 173.698 121.759 173.698C122.907 173.698 123.565 172.816 123.565 171.29C123.565 169.764 122.907 168.882 121.759 168.882C120.611 168.882 119.953 169.764 119.953 171.29ZM127.031 167.58H128.669L128.711 168.784C129.117 167.804 129.957 167.412 130.951 167.412C132.589 167.412 133.485 168.56 133.485 170.226V175H131.679V170.8C131.679 169.568 131.357 168.882 130.405 168.882C129.411 168.882 128.851 169.568 128.851 170.8V175H127.031V167.58ZM145.958 167.58L143.214 175H141.086L138.342 167.58H140.218L142.15 173.166L144.068 167.58H145.958ZM146.818 169.834C147.112 168.308 148.316 167.412 150.136 167.412C152.278 167.412 153.412 168.518 153.412 170.604V173.138C153.412 173.572 153.594 173.684 153.874 173.684H154.154V175L153.734 175.014C153.16 175.014 151.97 175.028 151.83 173.88C151.494 174.608 150.654 175.168 149.366 175.168C147.882 175.168 146.706 174.37 146.706 173.054C146.706 171.612 147.77 171.15 149.506 170.8L151.592 170.38C151.578 169.26 151.102 168.714 150.136 168.714C149.352 168.714 148.848 169.134 148.666 169.946L146.818 169.834ZM148.568 172.998C148.568 173.502 148.988 173.894 149.856 173.894C150.864 173.894 151.62 173.166 151.62 171.696V171.612L150.22 171.864C149.282 172.046 148.568 172.144 148.568 172.998ZM155.714 165.06H157.534V173.054C157.534 173.404 157.716 173.586 158.052 173.586H158.626V175H157.576C156.47 175 155.714 174.314 155.714 173.138V165.06ZM166.518 175H164.852L164.824 173.81C164.418 174.79 163.592 175.168 162.626 175.168C161.016 175.168 160.12 174.02 160.12 172.354V167.58H161.94V171.766C161.94 173.012 162.262 173.698 163.186 173.698C164.138 173.698 164.698 173.012 164.698 171.766V167.58H166.518V175ZM168.221 171.29C168.221 168.938 169.677 167.412 171.889 167.412C173.793 167.412 175.347 168.7 175.375 171.332L175.389 171.78H170.111C170.195 173.012 170.839 173.74 171.889 173.74C172.561 173.74 173.163 173.362 173.429 172.718L175.277 172.858C174.843 174.286 173.499 175.168 171.889 175.168C169.677 175.168 168.221 173.642 168.221 171.29ZM170.139 170.576H173.513C173.373 169.316 172.673 168.84 171.889 168.84C170.909 168.84 170.279 169.498 170.139 170.576Z" fill="#ABABBF"/>
<rect x="36" y="186" width="140" height="40" rx="6" fill="#31313A"/>
<rect x="36.5" y="186.5" width="139" height="39" rx="5.5" stroke="white" stroke-opacity="0.08"/>
<path d="M50.976 208.176C51.184 209.248 51.808 210 52.848 210.272V206.976C50.656 206.432 49.088 205.472 49.088 203.664C49.088 201.744 50.592 200.496 52.848 200.4V199.12H54.128V200.464C56.128 200.8 57.424 202.208 57.648 204.16L55.536 204.256C55.424 203.344 54.912 202.672 54.128 202.368V205.52C56.336 206.112 57.84 207.168 57.84 208.88C57.84 210.864 56.208 212.016 54.128 212.176V213.456H52.848V212.144C50.576 211.888 49.024 210.432 48.864 208.304L50.976 208.176ZM51.232 203.68C51.248 204.496 51.968 204.896 52.848 205.168V202.208C51.872 202.304 51.216 202.864 51.232 203.68ZM54.128 210.352C55.088 210.24 55.712 209.776 55.696 208.976C55.696 208.256 55.216 207.776 54.128 207.36V210.352ZM67.6231 200.64V202.48H62.5511L62.1351 205.536C62.6471 204.832 63.7031 204.432 64.7591 204.432C66.8871 204.432 68.4071 206.016 68.4071 208.208C68.4071 210.624 66.6791 212.256 64.1511 212.256C61.7191 212.256 59.9111 210.896 59.7351 208.944L61.8791 208.832C62.0551 209.824 63.0151 210.416 64.1191 210.416C65.3671 210.416 66.2471 209.52 66.2471 208.256C66.2471 206.928 65.3671 206.08 64.0071 206.08C63.0951 206.08 62.3111 206.512 62.0231 207.2H59.8951L60.7591 200.64H67.6231ZM74.9471 212.256C71.9871 212.256 70.2271 209.92 70.2271 206.336C70.2271 202.72 71.9871 200.384 74.9471 200.384C77.9231 200.384 79.6831 202.72 79.6831 206.336C79.6831 209.92 77.9231 212.256 74.9471 212.256ZM72.3871 206.336C72.3871 208.976 73.2991 210.416 74.9471 210.416C76.6111 210.416 77.5231 208.976 77.5231 206.336C77.5231 203.68 76.6111 202.224 74.9471 202.224C73.2991 202.224 72.3871 203.68 72.3871 206.336ZM83.2419 212L82.2019 214.512H81.0819L81.7699 212H80.9539V209.824H83.2419V212ZM89.2184 212.256C86.2584 212.256 84.4984 209.92 84.4984 206.336C84.4984 202.72 86.2584 200.384 89.2184 200.384C92.1944 200.384 93.9544 202.72 93.9544 206.336C93.9544 209.92 92.1944 212.256 89.2184 212.256ZM86.6584 206.336C86.6584 208.976 87.5704 210.416 89.2184 210.416C90.8824 210.416 91.7944 208.976 91.7944 206.336C91.7944 203.68 90.8824 202.224 89.2184 202.224C87.5704 202.224 86.6584 203.68 86.6584 206.336ZM100.37 212.256C97.4096 212.256 95.6496 209.92 95.6496 206.336C95.6496 202.72 97.4096 200.384 100.37 200.384C103.346 200.384 105.106 202.72 105.106 206.336C105.106 209.92 103.346 212.256 100.37 212.256ZM97.8096 206.336C97.8096 208.976 98.7216 210.416 100.37 210.416C102.034 210.416 102.946 208.976 102.946 206.336C102.946 203.68 102.034 202.224 100.37 202.224C98.7216 202.224 97.8096 203.68 97.8096 206.336ZM111.521 212.256C108.561 212.256 106.801 209.92 106.801 206.336C106.801 202.72 108.561 200.384 111.521 200.384C114.497 200.384 116.257 202.72 116.257 206.336C116.257 209.92 114.497 212.256 111.521 212.256ZM108.961 206.336C108.961 208.976 109.873 210.416 111.521 210.416C113.185 210.416 114.097 208.976 114.097 206.336C114.097 203.68 113.185 202.224 111.521 202.224C109.873 202.224 108.961 203.68 108.961 206.336Z" fill="#F1F1F3"/>
<path d="M37.12 265V255.06H38.954V263.39H43.658V265H37.12ZM44.4663 261.29C44.4663 258.938 45.9223 257.412 48.1343 257.412C50.0383 257.412 51.5923 258.7 51.6203 261.332L51.6343 261.78H46.3563C46.4403 263.012 47.0843 263.74 48.1343 263.74C48.8063 263.74 49.4083 263.362 49.6743 262.718L51.5223 262.858C51.0883 264.286 49.7443 265.168 48.1343 265.168C45.9223 265.168 44.4663 263.642 44.4663 261.29ZM46.3843 260.576H49.7583C49.6183 259.316 48.9183 258.84 48.1343 258.84C47.1543 258.84 46.5243 259.498 46.3843 260.576ZM59.8716 257.58L57.1276 265H54.9996L52.2556 257.58H54.1316L56.0636 263.166L57.9816 257.58H59.8716ZM60.5236 261.29C60.5236 258.938 61.9796 257.412 64.1916 257.412C66.0956 257.412 67.6496 258.7 67.6776 261.332L67.6916 261.78H62.4136C62.4976 263.012 63.1416 263.74 64.1916 263.74C64.8636 263.74 65.4656 263.362 65.7316 262.718L67.5796 262.858C67.1456 264.286 65.8016 265.168 64.1916 265.168C61.9796 265.168 60.5236 263.642 60.5236 261.29ZM62.4416 260.576H65.8156C65.6756 259.316 64.9756 258.84 64.1916 258.84C63.2116 258.84 62.5816 259.498 62.4416 260.576ZM69.2861 257.58H70.9801L71.0221 259.022C71.3021 258.056 71.8481 257.58 72.8001 257.58H73.5001V258.994H72.7861C71.5961 258.994 71.1061 259.582 71.1061 260.772V265H69.2861V257.58ZM74.6832 259.834C74.9772 258.308 76.1812 257.412 78.0012 257.412C80.1432 257.412 81.2772 258.518 81.2772 260.604V263.138C81.2772 263.572 81.4592 263.684 81.7392 263.684H82.0192V265L81.5992 265.014C81.0252 265.014 79.8352 265.028 79.6952 263.88C79.3592 264.608 78.5192 265.168 77.2312 265.168C75.7472 265.168 74.5712 264.37 74.5712 263.054C74.5712 261.612 75.6352 261.15 77.3712 260.8L79.4572 260.38C79.4432 259.26 78.9672 258.714 78.0012 258.714C77.2172 258.714 76.7132 259.134 76.5312 259.946L74.6832 259.834ZM76.4332 262.998C76.4332 263.502 76.8532 263.894 77.7212 263.894C78.7292 263.894 79.4852 263.166 79.4852 261.696V261.612L78.0852 261.864C77.1472 262.046 76.4332 262.144 76.4332 262.998ZM86.2987 264.636C84.3667 264.636 83.0647 263.208 83.0647 261.094C83.0647 258.896 84.3667 257.412 86.2847 257.412C87.2507 257.412 88.0627 257.902 88.4407 258.714V257.58H90.2187V264.16C90.2187 266.134 88.7487 267.268 86.6487 267.268C84.9547 267.268 83.6667 266.428 83.2607 265.154L85.1227 265.028C85.3607 265.574 85.9067 265.91 86.6627 265.91C87.7547 265.91 88.3987 265.392 88.3987 264.398V263.46C88.0347 264.188 87.2227 264.636 86.2987 264.636ZM84.9267 261.08C84.9267 262.438 85.6267 263.292 86.6907 263.292C87.7687 263.292 88.4407 262.438 88.4547 261.08C88.4687 259.708 87.7827 258.854 86.6907 258.854C85.5987 258.854 84.9267 259.708 84.9267 261.08ZM91.9274 261.29C91.9274 258.938 93.3834 257.412 95.5954 257.412C97.4994 257.412 99.0534 258.7 99.0814 261.332L99.0954 261.78H93.8174C93.9014 263.012 94.5454 263.74 95.5954 263.74C96.2674 263.74 96.8694 263.362 97.1354 262.718L98.9834 262.858C98.5494 264.286 97.2054 265.168 95.5954 265.168C93.3834 265.168 91.9274 263.642 91.9274 261.29ZM93.8454 260.576H97.2194C97.0794 259.316 96.3794 258.84 95.5954 258.84C94.6154 258.84 93.9854 259.498 93.8454 260.576ZM107.575 255.06V265H105.853L105.811 263.95C105.405 264.706 104.551 265.168 103.543 265.168C101.611 265.168 100.407 263.67 100.407 261.29C100.407 258.91 101.611 257.412 103.543 257.412C104.495 257.412 105.335 257.846 105.755 258.574V255.06H107.575ZM102.269 261.29C102.269 262.76 102.983 263.712 104.075 263.712C105.181 263.712 105.881 262.76 105.881 261.29C105.881 259.778 105.167 258.826 104.075 258.826C102.969 258.826 102.269 259.778 102.269 261.29ZM113.124 255.06H114.944V258.574C115.364 257.846 116.204 257.412 117.156 257.412C119.088 257.412 120.292 258.91 120.292 261.29C120.292 263.67 119.088 265.168 117.156 265.168C116.148 265.168 115.294 264.706 114.888 263.95L114.846 265H113.124V255.06ZM114.818 261.29C114.818 262.76 115.518 263.712 116.624 263.712C117.716 263.712 118.43 262.76 118.43 261.29C118.43 259.778 117.73 258.826 116.624 258.826C115.532 258.826 114.818 259.778 114.818 261.29ZM120.918 257.58H122.696L124.656 263.096L126.56 257.58H128.324L125.37 265.784C125.062 266.694 124.446 267.1 123.452 267.1H122.234V265.714H123.144C123.55 265.714 123.774 265.574 123.928 265.238L124.138 264.706H123.606L120.918 257.58ZM132.547 255.06H134.591L136.929 259.274L139.267 255.06H141.311L137.853 261.066V265H136.019V261.066L132.547 255.06ZM142.699 265V255.06H144.533V263.39H149.237V265H142.699ZM154.401 255.06C157.565 255.06 159.343 256.852 159.343 260.044C159.343 263.222 157.607 265 154.485 265H151.083V255.06H154.401ZM152.917 263.39H154.401C156.459 263.39 157.467 262.298 157.467 260.044C157.467 257.762 156.459 256.67 154.401 256.67H152.917V263.39ZM165.198 255.06C167.27 255.06 168.726 256.152 168.726 258.056C168.726 259.274 167.97 260.128 166.99 260.408C168.012 260.562 168.46 261.08 168.558 262.13L168.81 265H166.962L166.752 262.396C166.682 261.542 166.178 261.248 164.918 261.248H162.874V265H161.04V255.06H165.198ZM162.874 259.652H165.002C166.178 259.652 166.822 259.12 166.822 258.168C166.822 257.202 166.178 256.67 165.002 256.67H162.874V259.652Z" fill="#ABABBF"/>
<rect x="36" y="276" width="384" height="40" rx="6" fill="#AFF113"/>
<rect x="36.5" y="276.5" width="383" height="39" rx="5.5" stroke="white" stroke-opacity="0.48"/>
<path d="M50.976 298.176C51.184 299.248 51.808 300 52.848 300.272V296.976C50.656 296.432 49.088 295.472 49.088 293.664C49.088 291.744 50.592 290.496 52.848 290.4V289.12H54.128V290.464C56.128 290.8 57.424 292.208 57.648 294.16L55.536 294.256C55.424 293.344 54.912 292.672 54.128 292.368V295.52C56.336 296.112 57.84 297.168 57.84 298.88C57.84 300.864 56.208 302.016 54.128 302.176V303.456H52.848V302.144C50.576 301.888 49.024 300.432 48.864 298.304L50.976 298.176ZM51.232 293.68C51.248 294.496 51.968 294.896 52.848 295.168V292.208C51.872 292.304 51.216 292.864 51.232 293.68ZM54.128 300.352C55.088 300.24 55.712 299.776 55.696 298.976C55.696 298.256 55.216 297.776 54.128 297.36V300.352ZM60.3271 292.624C61.6871 292.624 62.3111 292.016 62.3271 290.64H63.9591V302H61.8631V294.224H59.4471V292.624H60.3271ZM74.5869 290.64V292.48H69.5149L69.0989 295.536C69.6109 294.832 70.6669 294.432 71.7229 294.432C73.8509 294.432 75.3709 296.016 75.3709 298.208C75.3709 300.624 73.6429 302.256 71.1149 302.256C68.6829 302.256 66.8749 300.896 66.6989 298.944L68.8429 298.832C69.0189 299.824 69.9789 300.416 71.0829 300.416C72.3309 300.416 73.2109 299.52 73.2109 298.256C73.2109 296.928 72.3309 296.08 70.9709 296.08C70.0589 296.08 69.2749 296.512 68.9869 297.2H66.8589L67.7229 290.64H74.5869ZM81.9109 302.256C78.9509 302.256 77.1909 299.92 77.1909 296.336C77.1909 292.72 78.9509 290.384 81.9109 290.384C84.8869 290.384 86.6469 292.72 86.6469 296.336C86.6469 299.92 84.8869 302.256 81.9109 302.256ZM79.3509 296.336C79.3509 298.976 80.2629 300.416 81.9109 300.416C83.5749 300.416 84.4869 298.976 84.4869 296.336C84.4869 293.68 83.5749 292.224 81.9109 292.224C80.2629 292.224 79.3509 293.68 79.3509 296.336ZM90.2056 302L89.1656 304.512H88.0456L88.7336 302H87.9176V299.824H90.2056V302ZM96.1821 302.256C93.2221 302.256 91.4621 299.92 91.4621 296.336C91.4621 292.72 93.2221 290.384 96.1821 290.384C99.1581 290.384 100.918 292.72 100.918 296.336C100.918 299.92 99.1581 302.256 96.1821 302.256ZM93.6221 296.336C93.6221 298.976 94.5341 300.416 96.1821 300.416C97.8461 300.416 98.7581 298.976 98.7581 296.336C98.7581 293.68 97.8461 292.224 96.1821 292.224C94.5341 292.224 93.6221 293.68 93.6221 296.336ZM107.333 302.256C104.373 302.256 102.613 299.92 102.613 296.336C102.613 292.72 104.373 290.384 107.333 290.384C110.309 290.384 112.069 292.72 112.069 296.336C112.069 299.92 110.309 302.256 107.333 302.256ZM104.773 296.336C104.773 298.976 105.685 300.416 107.333 300.416C108.997 300.416 109.909 298.976 109.909 296.336C109.909 293.68 108.997 292.224 107.333 292.224C105.685 292.224 104.773 293.68 104.773 296.336ZM118.485 302.256C115.525 302.256 113.765 299.92 113.765 296.336C113.765 292.72 115.525 290.384 118.485 290.384C121.461 290.384 123.221 292.72 123.221 296.336C123.221 299.92 121.461 302.256 118.485 302.256ZM115.925 296.336C115.925 298.976 116.837 300.416 118.485 300.416C120.149 300.416 121.061 298.976 121.061 296.336C121.061 293.68 120.149 292.224 118.485 292.224C116.837 292.224 115.925 293.68 115.925 296.336Z" fill="#074245"/>
<rect x="36" y="90" width="384" height="8" rx="4" fill="#4F4F63"/>
<rect x="36" y="90" width="296" height="8" rx="4" fill="#8061E5"/>
<g filter="url(#filter0_d_13357_11263)">
<rect x="322" y="84" width="20" height="20" rx="10" fill="#F1F1F3" shape-rendering="crispEdges"/>
<circle cx="332" cy="94" r="6" fill="#8061E5"/>
</g>
<path d="M0 128H456" stroke="#49494D" stroke-opacity="0.8"/>
<circle cx="28" cy="128" r="4" fill="#26262B"/>
<circle cx="28" cy="128" r="3.5" stroke="#49494D" stroke-opacity="0.8"/>
<circle cx="128" cy="128" r="4" fill="#26262B"/>
<circle cx="128" cy="128" r="3.5" stroke="#49494D" stroke-opacity="0.8"/>
<circle cx="228" cy="128" r="4" fill="#26262B"/>
<circle cx="228" cy="128" r="3.5" stroke="#49494D" stroke-opacity="0.8"/>
<circle cx="328" cy="128" r="4" fill="#26262B"/>
<circle cx="328" cy="128" r="3.5" stroke="#49494D" stroke-opacity="0.8"/>
<circle cx="428" cy="128" r="4" fill="#26262B"/>
<circle cx="428" cy="128" r="3.5" stroke="#49494D" stroke-opacity="0.8"/>
<defs>
<filter id="filter0_d_13357_11263" x="314" y="80" width="36" height="36" filterUnits="userSpaceOnUse" color-interpolation-filters="sRGB">
<feFlood flood-opacity="0" result="BackgroundImageFix"/>
<feColorMatrix in="SourceAlpha" type="matrix" values="0 0 0 0 0 0 0 0 0 0 0 0 0 0 0 0 0 0 127 0" result="hardAlpha"/>
<feOffset dy="4"/>
<feGaussianBlur stdDeviation="4"/>
<feComposite in2="hardAlpha" operator="out"/>
<feColorMatrix type="matrix" values="0 0 0 0 0.0444 0 0 0 0 0.0795628 0 0 0 0 0.1956 0 0 0 0.32 0"/>
<feBlend mode="normal" in2="BackgroundImageFix" result="effect1_dropShadow_13357_11263"/>
<feBlend mode="normal" in="SourceGraphic" in2="effect1_dropShadow_13357_11263" result="shape"/>
</filter>
<linearGradient id="paint0_linear_13357_11263" x1="228" y1="0" x2="228" y2="304.5" gradientUnits="userSpaceOnUse">
<stop stop-color="#1F1F23"/>
<stop offset="1" stop-color="#1F1F23" stop-opacity="0"/>
</linearGradient>
<linearGradient id="paint1_linear_13357_11263" x1="28" y1="132" x2="28" y2="352" gradientUnits="userSpaceOnUse">
<stop stop-color="#49494D"/>
<stop offset="1" stop-color="#49494D" stop-opacity="0"/>
</linearGradient>
<linearGradient id="paint2_linear_13357_11263" x1="128" y1="132" x2="128" y2="352" gradientUnits="userSpaceOnUse">
<stop stop-color="#49494D"/>
<stop offset="1" stop-color="#49494D" stop-opacity="0"/>
</linearGradient>
<linearGradient id="paint3_linear_13357_11263" x1="228" y1="132" x2="228" y2="352" gradientUnits="userSpaceOnUse">
<stop stop-color="#49494D"/>
<stop offset="1" stop-color="#49494D" stop-opacity="0"/>
</linearGradient>
<linearGradient id="paint4_linear_13357_11263" x1="328" y1="132" x2="328" y2="352" gradientUnits="userSpaceOnUse">
<stop stop-color="#49494D"/>
<stop offset="1" stop-color="#49494D" stop-opacity="0"/>
</linearGradient>
<linearGradient id="paint5_linear_13357_11263" x1="428" y1="132" x2="428" y2="352" gradientUnits="userSpaceOnUse">
<stop stop-color="#49494D"/>
<stop offset="1" stop-color="#49494D" stop-opacity="0"/>
</linearGradient>
</defs>
</svg>
