<svg width="52" height="52" viewBox="0 0 52 52" fill="none" xmlns="http://www.w3.org/2000/svg">
<g filter="url(#filter0_d_13695_12377)">
<g clip-path="url(#clip0_13695_12377)">
<rect x="2" width="48" height="48" rx="12" fill="url(#paint0_linear_13695_12377)"/>
<rect x="2" width="48" height="48" rx="12" fill="url(#paint1_linear_13695_12377)"/>
<rect x="2" width="48" height="48" rx="12" fill="url(#paint2_radial_13695_12377)" fill-opacity="0.16"/>
<rect x="2" width="48" height="48" rx="12" fill="url(#paint3_radial_13695_12377)" fill-opacity="0.12"/>
<g opacity="0.2" filter="url(#filter1_f_13695_12377)">
<path d="M36.8916 26.046C36.8911 25.7838 36.7867 25.5326 36.6011 25.3473C36.4156 25.1621 36.1642 25.0581 35.902 25.0581H33.9246C33.6627 25.0586 33.4117 25.1628 33.2266 25.3479C33.0414 25.5331 32.9372 25.7841 32.9367 26.046C32.9367 27.117 32.6516 29.1725 30.978 30.8783C30.8721 30.9661 30.7856 31.075 30.7242 31.1981C30.6628 31.3212 30.6278 31.4558 30.6214 31.5932C30.615 31.7306 30.6374 31.8678 30.6871 31.9961C30.7368 32.1244 30.8128 32.2408 30.9101 32.3381L32.3087 33.7367C32.4901 33.9181 32.7349 34.0219 32.9913 34.0264C33.2478 34.0308 33.496 33.9355 33.6836 33.7604C35.7333 31.7159 36.8872 28.9411 36.8916 26.046Z" fill="#AFF113"/>
<path fill-rule="evenodd" clip-rule="evenodd" d="M25.9611 11.0309C29.9353 11.0247 33.7491 12.5975 36.5636 15.4032C37.01 15.8482 37.0112 16.5709 36.5662 17.0173C36.1212 17.4637 35.3985 17.4648 34.9521 17.0198C32.5663 14.6414 29.3335 13.3083 25.9647 13.3135C22.596 13.3188 19.3673 14.662 16.9889 17.0478C14.6106 19.4336 13.2774 22.6665 13.2826 26.0352C13.2879 29.404 14.6312 32.6327 17.0169 35.011C17.4633 35.456 17.4645 36.1787 17.0195 36.6251C16.5745 37.0715 15.8518 37.0726 15.4054 36.6276C12.5909 33.8218 11.0062 30.0129 11 26.0388C10.9938 22.0647 12.5666 18.2508 15.3723 15.4363C18.1781 12.6218 21.987 11.0371 25.9611 11.0309ZM26.0185 15.0193C26.6488 15.0193 27.1598 15.5303 27.1598 16.1606V18.1363C27.1598 18.7666 26.6488 19.2776 26.0185 19.2776C25.3882 19.2776 24.8772 18.7666 24.8772 18.1363V16.1606C24.8772 15.5303 25.3882 15.0193 26.0185 15.0193ZM18.2222 18.2471C18.6682 17.8016 19.3909 17.8021 19.8363 18.248L21.2332 19.6467C21.6787 20.0926 21.6782 20.8153 21.2322 21.2607C20.7863 21.7061 20.0636 21.7057 19.6182 21.2597L18.2213 19.8611C17.7758 19.4151 17.7763 18.6925 18.2222 18.2471ZM33.8186 18.2476C34.2643 18.6933 34.2643 19.4159 33.8186 19.8616L32.42 21.2602C31.9743 21.7059 31.2516 21.7059 30.8059 21.2602C30.3602 20.8145 30.3602 20.0919 30.8059 19.6462L32.2045 18.2476C32.6502 17.8018 33.3729 17.8018 33.8186 18.2476ZM39.8585 20.2952C40.1004 20.8773 39.8247 21.5452 39.2426 21.7872L26.4599 27.0999C25.8778 27.3418 25.2099 27.066 24.968 26.484C24.7261 25.9019 25.0018 25.234 25.5839 24.9921L38.3666 19.6794C38.9487 19.4374 39.6166 19.7132 39.8585 20.2952ZM14.985 26.046C14.985 25.4156 15.496 24.9047 16.1263 24.9047H18.1054C18.7357 24.9047 19.2467 25.4156 19.2467 26.046C19.2467 26.6763 18.7357 27.1873 18.1054 27.1873H16.1263C15.496 27.1873 14.985 26.6763 14.985 26.046ZM39.8571 24.9047C40.4874 24.9038 40.9991 25.414 41 26.0444C41.0028 28.0112 40.6172 29.9592 39.8653 31.7766C39.1135 33.594 38.0102 35.2452 36.6188 36.6352C36.1729 37.0807 35.4503 37.0804 35.0048 36.6344C34.5593 36.1885 34.5596 35.4659 35.0056 35.0204C36.1844 33.8427 37.1191 32.4438 37.7561 30.9041C38.393 29.3643 38.7197 27.7139 38.7174 26.0476C38.7165 25.4172 39.2268 24.9056 39.8571 24.9047ZM21.2281 30.8339C21.6736 31.2799 21.6731 32.0025 21.2271 32.448L19.8285 33.8449C19.3826 34.2903 18.6599 34.2899 18.2145 33.8439C17.769 33.3979 17.7695 32.6753 18.2155 32.2298L19.6141 30.8329C20.0601 30.3875 20.7827 30.3879 21.2281 30.8339Z" fill="#AFF113"/>
</g>
<g opacity="0.4" filter="url(#filter2_f_13695_12377)">
<path d="M36.8916 26.046C36.8911 25.7838 36.7867 25.5326 36.6011 25.3473C36.4156 25.1621 36.1642 25.0581 35.902 25.0581H33.9246C33.6627 25.0586 33.4117 25.1628 33.2266 25.3479C33.0414 25.5331 32.9372 25.7841 32.9367 26.046C32.9367 27.117 32.6516 29.1725 30.978 30.8783C30.8721 30.9661 30.7856 31.075 30.7242 31.1981C30.6628 31.3212 30.6278 31.4558 30.6214 31.5932C30.615 31.7306 30.6374 31.8678 30.6871 31.9961C30.7368 32.1244 30.8128 32.2408 30.9101 32.3381L32.3087 33.7367C32.4901 33.9181 32.7349 34.0219 32.9913 34.0264C33.2478 34.0308 33.496 33.9355 33.6836 33.7604C35.7333 31.7159 36.8872 28.9411 36.8916 26.046Z" fill="#AFF113"/>
<path fill-rule="evenodd" clip-rule="evenodd" d="M25.9611 11.0309C29.9353 11.0247 33.7491 12.5975 36.5636 15.4032C37.01 15.8482 37.0112 16.5709 36.5662 17.0173C36.1212 17.4637 35.3985 17.4648 34.9521 17.0198C32.5663 14.6414 29.3335 13.3083 25.9647 13.3135C22.596 13.3188 19.3673 14.662 16.9889 17.0478C14.6106 19.4336 13.2774 22.6665 13.2826 26.0352C13.2879 29.404 14.6312 32.6327 17.0169 35.011C17.4633 35.456 17.4645 36.1787 17.0195 36.6251C16.5745 37.0715 15.8518 37.0726 15.4054 36.6276C12.5909 33.8218 11.0062 30.0129 11 26.0388C10.9938 22.0647 12.5666 18.2508 15.3723 15.4363C18.1781 12.6218 21.987 11.0371 25.9611 11.0309ZM26.0185 15.0193C26.6488 15.0193 27.1598 15.5303 27.1598 16.1606V18.1363C27.1598 18.7666 26.6488 19.2776 26.0185 19.2776C25.3882 19.2776 24.8772 18.7666 24.8772 18.1363V16.1606C24.8772 15.5303 25.3882 15.0193 26.0185 15.0193ZM18.2222 18.2471C18.6682 17.8016 19.3909 17.8021 19.8363 18.248L21.2332 19.6467C21.6787 20.0926 21.6782 20.8153 21.2322 21.2607C20.7863 21.7061 20.0636 21.7057 19.6182 21.2597L18.2213 19.8611C17.7758 19.4151 17.7763 18.6925 18.2222 18.2471ZM33.8186 18.2476C34.2643 18.6933 34.2643 19.4159 33.8186 19.8616L32.42 21.2602C31.9743 21.7059 31.2516 21.7059 30.8059 21.2602C30.3602 20.8145 30.3602 20.0919 30.8059 19.6462L32.2045 18.2476C32.6502 17.8018 33.3729 17.8018 33.8186 18.2476ZM39.8585 20.2952C40.1004 20.8773 39.8247 21.5452 39.2426 21.7872L26.4599 27.0999C25.8778 27.3418 25.2099 27.066 24.968 26.484C24.7261 25.9019 25.0018 25.234 25.5839 24.9921L38.3666 19.6794C38.9487 19.4374 39.6166 19.7132 39.8585 20.2952ZM14.985 26.046C14.985 25.4156 15.496 24.9047 16.1263 24.9047H18.1054C18.7357 24.9047 19.2467 25.4156 19.2467 26.046C19.2467 26.6763 18.7357 27.1873 18.1054 27.1873H16.1263C15.496 27.1873 14.985 26.6763 14.985 26.046ZM39.8571 24.9047C40.4874 24.9038 40.9991 25.414 41 26.0444C41.0028 28.0112 40.6172 29.9592 39.8653 31.7766C39.1135 33.594 38.0102 35.2452 36.6188 36.6352C36.1729 37.0807 35.4503 37.0804 35.0048 36.6344C34.5593 36.1885 34.5596 35.4659 35.0056 35.0204C36.1844 33.8427 37.1191 32.4438 37.7561 30.9041C38.393 29.3643 38.7197 27.7139 38.7174 26.0476C38.7165 25.4172 39.2268 24.9056 39.8571 24.9047ZM21.2281 30.8339C21.6736 31.2799 21.6731 32.0025 21.2271 32.448L19.8285 33.8449C19.3826 34.2903 18.6599 34.2899 18.2145 33.8439C17.769 33.3979 17.7695 32.6753 18.2155 32.2298L19.6141 30.8329C20.0601 30.3875 20.7827 30.3879 21.2281 30.8339Z" fill="#AFF113"/>
</g>
<g opacity="0.6" filter="url(#filter3_f_13695_12377)">
<path d="M36.8916 26.046C36.8911 25.7838 36.7867 25.5326 36.6011 25.3473C36.4156 25.1621 36.1642 25.0581 35.902 25.0581H33.9246C33.6627 25.0586 33.4117 25.1628 33.2266 25.3479C33.0414 25.5331 32.9372 25.7841 32.9367 26.046C32.9367 27.117 32.6516 29.1725 30.978 30.8783C30.8721 30.9661 30.7856 31.075 30.7242 31.1981C30.6628 31.3212 30.6278 31.4558 30.6214 31.5932C30.615 31.7306 30.6374 31.8678 30.6871 31.9961C30.7368 32.1244 30.8128 32.2408 30.9101 32.3381L32.3087 33.7367C32.4901 33.9181 32.7349 34.0219 32.9913 34.0264C33.2478 34.0308 33.496 33.9355 33.6836 33.7604C35.7333 31.7159 36.8872 28.9411 36.8916 26.046Z" fill="#AFF113"/>
<path fill-rule="evenodd" clip-rule="evenodd" d="M25.9611 11.0309C29.9353 11.0247 33.7491 12.5975 36.5636 15.4032C37.01 15.8482 37.0112 16.5709 36.5662 17.0173C36.1212 17.4637 35.3985 17.4648 34.9521 17.0198C32.5663 14.6414 29.3335 13.3083 25.9647 13.3135C22.596 13.3188 19.3673 14.662 16.9889 17.0478C14.6106 19.4336 13.2774 22.6665 13.2826 26.0352C13.2879 29.404 14.6312 32.6327 17.0169 35.011C17.4633 35.456 17.4645 36.1787 17.0195 36.6251C16.5745 37.0715 15.8518 37.0726 15.4054 36.6276C12.5909 33.8218 11.0062 30.0129 11 26.0388C10.9938 22.0647 12.5666 18.2508 15.3723 15.4363C18.1781 12.6218 21.987 11.0371 25.9611 11.0309ZM26.0185 15.0193C26.6488 15.0193 27.1598 15.5303 27.1598 16.1606V18.1363C27.1598 18.7666 26.6488 19.2776 26.0185 19.2776C25.3882 19.2776 24.8772 18.7666 24.8772 18.1363V16.1606C24.8772 15.5303 25.3882 15.0193 26.0185 15.0193ZM18.2222 18.2471C18.6682 17.8016 19.3909 17.8021 19.8363 18.248L21.2332 19.6467C21.6787 20.0926 21.6782 20.8153 21.2322 21.2607C20.7863 21.7061 20.0636 21.7057 19.6182 21.2597L18.2213 19.8611C17.7758 19.4151 17.7763 18.6925 18.2222 18.2471ZM33.8186 18.2476C34.2643 18.6933 34.2643 19.4159 33.8186 19.8616L32.42 21.2602C31.9743 21.7059 31.2516 21.7059 30.8059 21.2602C30.3602 20.8145 30.3602 20.0919 30.8059 19.6462L32.2045 18.2476C32.6502 17.8018 33.3729 17.8018 33.8186 18.2476ZM39.8585 20.2952C40.1004 20.8773 39.8247 21.5452 39.2426 21.7872L26.4599 27.0999C25.8778 27.3418 25.2099 27.066 24.968 26.484C24.7261 25.9019 25.0018 25.234 25.5839 24.9921L38.3666 19.6794C38.9487 19.4374 39.6166 19.7132 39.8585 20.2952ZM14.985 26.046C14.985 25.4156 15.496 24.9047 16.1263 24.9047H18.1054C18.7357 24.9047 19.2467 25.4156 19.2467 26.046C19.2467 26.6763 18.7357 27.1873 18.1054 27.1873H16.1263C15.496 27.1873 14.985 26.6763 14.985 26.046ZM39.8571 24.9047C40.4874 24.9038 40.9991 25.414 41 26.0444C41.0028 28.0112 40.6172 29.9592 39.8653 31.7766C39.1135 33.594 38.0102 35.2452 36.6188 36.6352C36.1729 37.0807 35.4503 37.0804 35.0048 36.6344C34.5593 36.1885 34.5596 35.4659 35.0056 35.0204C36.1844 33.8427 37.1191 32.4438 37.7561 30.9041C38.393 29.3643 38.7197 27.7139 38.7174 26.0476C38.7165 25.4172 39.2268 24.9056 39.8571 24.9047ZM21.2281 30.8339C21.6736 31.2799 21.6731 32.0025 21.2271 32.448L19.8285 33.8449C19.3826 34.2903 18.6599 34.2899 18.2145 33.8439C17.769 33.3979 17.7695 32.6753 18.2155 32.2298L19.6141 30.8329C20.0601 30.3875 20.7827 30.3879 21.2281 30.8339Z" fill="#AFF113"/>
</g>
<path d="M36.8916 26.046C36.8911 25.7838 36.7867 25.5326 36.6011 25.3473C36.4156 25.1621 36.1642 25.0581 35.902 25.0581H33.9246C33.6627 25.0586 33.4117 25.1628 33.2266 25.3479C33.0414 25.5331 32.9372 25.7841 32.9367 26.046C32.9367 27.117 32.6516 29.1725 30.978 30.8783C30.8721 30.9661 30.7856 31.075 30.7242 31.1981C30.6628 31.3212 30.6278 31.4558 30.6214 31.5932C30.615 31.7306 30.6374 31.8678 30.6871 31.9961C30.7368 32.1244 30.8128 32.2408 30.9101 32.3381L32.3087 33.7367C32.4901 33.9181 32.7349 34.0219 32.9913 34.0264C33.2478 34.0308 33.496 33.9355 33.6836 33.7604C35.7333 31.7159 36.8872 28.9411 36.8916 26.046Z" fill="#AFF113"/>
<path fill-rule="evenodd" clip-rule="evenodd" d="M25.9611 11.0309C29.9353 11.0247 33.7491 12.5975 36.5636 15.4032C37.01 15.8482 37.0112 16.5709 36.5662 17.0173C36.1212 17.4637 35.3985 17.4648 34.9521 17.0198C32.5663 14.6414 29.3335 13.3083 25.9647 13.3135C22.596 13.3188 19.3673 14.662 16.9889 17.0478C14.6106 19.4336 13.2774 22.6665 13.2826 26.0352C13.2879 29.404 14.6312 32.6327 17.0169 35.011C17.4633 35.456 17.4645 36.1787 17.0195 36.6251C16.5745 37.0715 15.8518 37.0726 15.4054 36.6276C12.5909 33.8218 11.0062 30.0129 11 26.0388C10.9938 22.0647 12.5666 18.2508 15.3723 15.4363C18.1781 12.6218 21.987 11.0371 25.9611 11.0309ZM26.0185 15.0193C26.6488 15.0193 27.1598 15.5303 27.1598 16.1606V18.1363C27.1598 18.7666 26.6488 19.2776 26.0185 19.2776C25.3882 19.2776 24.8772 18.7666 24.8772 18.1363V16.1606C24.8772 15.5303 25.3882 15.0193 26.0185 15.0193ZM18.2222 18.2471C18.6682 17.8016 19.3909 17.8021 19.8363 18.248L21.2332 19.6467C21.6787 20.0926 21.6782 20.8153 21.2322 21.2607C20.7863 21.7061 20.0636 21.7057 19.6182 21.2597L18.2213 19.8611C17.7758 19.4151 17.7763 18.6925 18.2222 18.2471ZM33.8186 18.2476C34.2643 18.6933 34.2643 19.4159 33.8186 19.8616L32.42 21.2602C31.9743 21.7059 31.2516 21.7059 30.8059 21.2602C30.3602 20.8145 30.3602 20.0919 30.8059 19.6462L32.2045 18.2476C32.6502 17.8018 33.3729 17.8018 33.8186 18.2476ZM39.8585 20.2952C40.1004 20.8773 39.8247 21.5452 39.2426 21.7872L26.4599 27.0999C25.8778 27.3418 25.2099 27.066 24.968 26.484C24.7261 25.9019 25.0018 25.234 25.5839 24.9921L38.3666 19.6794C38.9487 19.4374 39.6166 19.7132 39.8585 20.2952ZM14.985 26.046C14.985 25.4156 15.496 24.9047 16.1263 24.9047H18.1054C18.7357 24.9047 19.2467 25.4156 19.2467 26.046C19.2467 26.6763 18.7357 27.1873 18.1054 27.1873H16.1263C15.496 27.1873 14.985 26.6763 14.985 26.046ZM39.8571 24.9047C40.4874 24.9038 40.9991 25.414 41 26.0444C41.0028 28.0112 40.6172 29.9592 39.8653 31.7766C39.1135 33.594 38.0102 35.2452 36.6188 36.6352C36.1729 37.0807 35.4503 37.0804 35.0048 36.6344C34.5593 36.1885 34.5596 35.4659 35.0056 35.0204C36.1844 33.8427 37.1191 32.4438 37.7561 30.9041C38.393 29.3643 38.7197 27.7139 38.7174 26.0476C38.7165 25.4172 39.2268 24.9056 39.8571 24.9047ZM21.2281 30.8339C21.6736 31.2799 21.6731 32.0025 21.2271 32.448L19.8285 33.8449C19.3826 34.2903 18.6599 34.2899 18.2145 33.8439C17.769 33.3979 17.7695 32.6753 18.2155 32.2298L19.6141 30.8329C20.0601 30.3875 20.7827 30.3879 21.2281 30.8339Z" fill="#AFF113"/>
</g>
<rect x="2.5" y="0.5" width="47" height="47" rx="11.5" stroke="white" stroke-opacity="0.08"/>
</g>
<defs>
<filter id="filter0_d_13695_12377" x="0" y="0" width="52" height="52" filterUnits="userSpaceOnUse" color-interpolation-filters="sRGB">
<feFlood flood-opacity="0" result="BackgroundImageFix"/>
<feColorMatrix in="SourceAlpha" type="matrix" values="0 0 0 0 0 0 0 0 0 0 0 0 0 0 0 0 0 0 127 0" result="hardAlpha"/>
<feOffset dy="2"/>
<feGaussianBlur stdDeviation="1"/>
<feComposite in2="hardAlpha" operator="out"/>
<feColorMatrix type="matrix" values="0 0 0 0 0 0 0 0 0 0 0 0 0 0 0 0 0 0 0.16 0"/>
<feBlend mode="normal" in2="BackgroundImageFix" result="effect1_dropShadow_13695_12377"/>
<feBlend mode="normal" in="SourceGraphic" in2="effect1_dropShadow_13695_12377" result="shape"/>
</filter>
<filter id="filter1_f_13695_12377" x="3" y="3.03088" width="46" height="41.9382" filterUnits="userSpaceOnUse" color-interpolation-filters="sRGB">
<feFlood flood-opacity="0" result="BackgroundImageFix"/>
<feBlend mode="normal" in="SourceGraphic" in2="BackgroundImageFix" result="shape"/>
<feGaussianBlur stdDeviation="4" result="effect1_foregroundBlur_13695_12377"/>
</filter>
<filter id="filter2_f_13695_12377" x="-1" y="-0.969116" width="54" height="49.9382" filterUnits="userSpaceOnUse" color-interpolation-filters="sRGB">
<feFlood flood-opacity="0" result="BackgroundImageFix"/>
<feBlend mode="normal" in="SourceGraphic" in2="BackgroundImageFix" result="shape"/>
<feGaussianBlur stdDeviation="6" result="effect1_foregroundBlur_13695_12377"/>
</filter>
<filter id="filter3_f_13695_12377" x="-5" y="-4.96912" width="62" height="57.9382" filterUnits="userSpaceOnUse" color-interpolation-filters="sRGB">
<feFlood flood-opacity="0" result="BackgroundImageFix"/>
<feBlend mode="normal" in="SourceGraphic" in2="BackgroundImageFix" result="shape"/>
<feGaussianBlur stdDeviation="8" result="effect1_foregroundBlur_13695_12377"/>
</filter>
<linearGradient id="paint0_linear_13695_12377" x1="2.07336" y1="-0.222234" x2="49.924" y2="48.1135" gradientUnits="userSpaceOnUse">
<stop stop-color="#232328"/>
<stop offset="0.5" stop-color="#1F1F23"/>
<stop offset="0.878699" stop-color="#18181B"/>
</linearGradient>
<linearGradient id="paint1_linear_13695_12377" x1="2.07336" y1="-0.222236" x2="25.9999" y2="24.2222" gradientUnits="userSpaceOnUse">
<stop stop-color="white" stop-opacity="0.12"/>
<stop offset="0.5" stop-color="#808080" stop-opacity="0.06"/>
<stop offset="1" stop-opacity="0"/>
</linearGradient>
<radialGradient id="paint2_radial_13695_12377" cx="0" cy="0" r="1" gradientUnits="userSpaceOnUse" gradientTransform="translate(26 49) rotate(-90) scale(20.5)">
<stop stop-color="#BDF22C"/>
<stop offset="1" stop-color="#BDF22C" stop-opacity="0"/>
</radialGradient>
<radialGradient id="paint3_radial_13695_12377" cx="0" cy="0" r="1" gradientUnits="userSpaceOnUse" gradientTransform="translate(50 3.93391e-06) rotate(135) scale(46.669)">
<stop stop-color="#BDF22C"/>
<stop offset="1" stop-color="#BDF22C" stop-opacity="0"/>
</radialGradient>
<clipPath id="clip0_13695_12377">
<rect x="2" width="48" height="48" rx="12" fill="white"/>
</clipPath>
</defs>
</svg>
