<svg width="53" height="52" viewBox="0 0 53 52" fill="none" xmlns="http://www.w3.org/2000/svg">
<g filter="url(#filter0_d_13695_12399)">
<g clip-path="url(#clip0_13695_12399)">
<rect x="2.33337" width="48" height="48" rx="12" fill="url(#paint0_linear_13695_12399)"/>
<rect x="2.33337" width="48" height="48" rx="12" fill="url(#paint1_linear_13695_12399)"/>
<rect x="2.33337" width="48" height="48" rx="12" fill="url(#paint2_radial_13695_12399)" fill-opacity="0.12"/>
<g opacity="0.2" filter="url(#filter1_f_13695_12399)">
<path d="M40.441 28.0429C41.1005 28.9391 40.9092 30.1978 40.013 30.8574L33.639 35.5548C32.4609 36.4208 31.041 36.889 29.5759 36.889H21.5001H13.4445C12.5533 36.889 11.8334 36.1691 11.8334 35.2779V32.0556C11.8334 31.1645 12.5533 30.4445 13.4445 30.4445H15.2973L17.5579 28.632C18.7008 27.7157 20.1206 27.2223 21.5857 27.2223H25.528H26.3335H29.5558C30.4469 27.2223 31.1669 27.9422 31.1669 28.8334C31.1669 29.7245 30.4469 30.4445 29.5558 30.4445H26.3335H25.528C25.0849 30.4445 24.7224 30.807 24.7224 31.2501C24.7224 31.6931 25.0849 32.0556 25.528 32.0556H31.5999L37.6265 27.615C38.5227 26.9554 39.7814 27.1467 40.441 28.0429Z" fill="#31FCDD"/>
<path d="M30.2098 17.2756C30.3632 17.5389 30.2779 17.8764 30.0179 18.0353L26.6252 20.1079C26.4461 20.2174 26.2207 20.2174 26.0415 20.108L22.6465 18.0353C22.3864 17.8765 22.301 17.5387 22.4545 17.2754L25.8494 11.4504C26.0655 11.0797 26.6012 11.0798 26.8171 11.4506L30.2098 17.2756ZM26.5001 20.9991C26.3978 21.0616 26.269 21.0616 26.1666 20.9991L23.4564 19.3444C23.1618 19.1645 22.8305 19.5141 23.0258 19.7986L26.0696 24.2321C26.1967 24.4173 26.4701 24.4173 26.5972 24.2321L29.641 19.7986C29.8363 19.5141 29.505 19.1645 29.2104 19.3444L26.5001 20.9991Z" fill="#31FCDD"/>
</g>
<g opacity="0.4" filter="url(#filter2_f_13695_12399)">
<path d="M40.441 28.0429C41.1005 28.9391 40.9092 30.1978 40.013 30.8574L33.639 35.5548C32.4609 36.4208 31.041 36.889 29.5759 36.889H21.5001H13.4445C12.5533 36.889 11.8334 36.1691 11.8334 35.2779V32.0556C11.8334 31.1645 12.5533 30.4445 13.4445 30.4445H15.2973L17.5579 28.632C18.7008 27.7157 20.1206 27.2223 21.5857 27.2223H25.528H26.3335H29.5558C30.4469 27.2223 31.1669 27.9422 31.1669 28.8334C31.1669 29.7245 30.4469 30.4445 29.5558 30.4445H26.3335H25.528C25.0849 30.4445 24.7224 30.807 24.7224 31.2501C24.7224 31.6931 25.0849 32.0556 25.528 32.0556H31.5999L37.6265 27.615C38.5227 26.9554 39.7814 27.1467 40.441 28.0429Z" fill="#31FCDD"/>
<path d="M30.2098 17.2756C30.3632 17.5389 30.2779 17.8764 30.0179 18.0353L26.6252 20.1079C26.4461 20.2174 26.2207 20.2174 26.0415 20.108L22.6465 18.0353C22.3864 17.8765 22.301 17.5387 22.4545 17.2754L25.8494 11.4504C26.0655 11.0797 26.6012 11.0798 26.8171 11.4506L30.2098 17.2756ZM26.5001 20.9991C26.3978 21.0616 26.269 21.0616 26.1666 20.9991L23.4564 19.3444C23.1618 19.1645 22.8305 19.5141 23.0258 19.7986L26.0696 24.2321C26.1967 24.4173 26.4701 24.4173 26.5972 24.2321L29.641 19.7986C29.8363 19.5141 29.505 19.1645 29.2104 19.3444L26.5001 20.9991Z" fill="#31FCDD"/>
</g>
<g opacity="0.6" filter="url(#filter3_f_13695_12399)">
<path d="M40.441 28.0429C41.1005 28.9391 40.9092 30.1978 40.013 30.8574L33.639 35.5548C32.4609 36.4208 31.041 36.889 29.5759 36.889H21.5001H13.4445C12.5533 36.889 11.8334 36.1691 11.8334 35.2779V32.0556C11.8334 31.1645 12.5533 30.4445 13.4445 30.4445H15.2973L17.5579 28.632C18.7008 27.7157 20.1206 27.2223 21.5857 27.2223H25.528H26.3335H29.5558C30.4469 27.2223 31.1669 27.9422 31.1669 28.8334C31.1669 29.7245 30.4469 30.4445 29.5558 30.4445H26.3335H25.528C25.0849 30.4445 24.7224 30.807 24.7224 31.2501C24.7224 31.6931 25.0849 32.0556 25.528 32.0556H31.5999L37.6265 27.615C38.5227 26.9554 39.7814 27.1467 40.441 28.0429Z" fill="#31FCDD"/>
<path d="M30.2098 17.2756C30.3632 17.5389 30.2779 17.8764 30.0179 18.0353L26.6252 20.1079C26.4461 20.2174 26.2207 20.2174 26.0415 20.108L22.6465 18.0353C22.3864 17.8765 22.301 17.5387 22.4545 17.2754L25.8494 11.4504C26.0655 11.0797 26.6012 11.0798 26.8171 11.4506L30.2098 17.2756ZM26.5001 20.9991C26.3978 21.0616 26.269 21.0616 26.1666 20.9991L23.4564 19.3444C23.1618 19.1645 22.8305 19.5141 23.0258 19.7986L26.0696 24.2321C26.1967 24.4173 26.4701 24.4173 26.5972 24.2321L29.641 19.7986C29.8363 19.5141 29.505 19.1645 29.2104 19.3444L26.5001 20.9991Z" fill="#31FCDD"/>
</g>
<path d="M40.441 28.0429C41.1005 28.9391 40.9092 30.1978 40.013 30.8574L33.639 35.5548C32.4609 36.4208 31.041 36.889 29.5759 36.889H21.5001H13.4445C12.5533 36.889 11.8334 36.1691 11.8334 35.2779V32.0556C11.8334 31.1645 12.5533 30.4445 13.4445 30.4445H15.2973L17.5579 28.632C18.7008 27.7157 20.1206 27.2223 21.5857 27.2223H25.528H26.3335H29.5558C30.4469 27.2223 31.1669 27.9422 31.1669 28.8334C31.1669 29.7245 30.4469 30.4445 29.5558 30.4445H26.3335H25.528C25.0849 30.4445 24.7224 30.807 24.7224 31.2501C24.7224 31.6931 25.0849 32.0556 25.528 32.0556H31.5999L37.6265 27.615C38.5227 26.9554 39.7814 27.1467 40.441 28.0429Z" fill="#31FCDD"/>
<path d="M30.2098 17.2756C30.3632 17.5389 30.2779 17.8764 30.0179 18.0353L26.6252 20.1079C26.4461 20.2174 26.2207 20.2174 26.0415 20.108L22.6465 18.0353C22.3864 17.8765 22.301 17.5387 22.4545 17.2754L25.8494 11.4504C26.0655 11.0797 26.6012 11.0798 26.8171 11.4506L30.2098 17.2756ZM26.5001 20.9991C26.3978 21.0616 26.269 21.0616 26.1666 20.9991L23.4564 19.3444C23.1618 19.1645 22.8305 19.5141 23.0258 19.7986L26.0696 24.2321C26.1967 24.4173 26.4701 24.4173 26.5972 24.2321L29.641 19.7986C29.8363 19.5141 29.505 19.1645 29.2104 19.3444L26.5001 20.9991Z" fill="#31FCDD"/>
</g>
<rect x="2.83337" y="0.5" width="47" height="47" rx="11.5" stroke="white" stroke-opacity="0.06"/>
</g>
<defs>
<filter id="filter0_d_13695_12399" x="0.333374" y="0" width="52" height="52" filterUnits="userSpaceOnUse" color-interpolation-filters="sRGB">
<feFlood flood-opacity="0" result="BackgroundImageFix"/>
<feColorMatrix in="SourceAlpha" type="matrix" values="0 0 0 0 0 0 0 0 0 0 0 0 0 0 0 0 0 0 127 0" result="hardAlpha"/>
<feOffset dy="2"/>
<feGaussianBlur stdDeviation="1"/>
<feComposite in2="hardAlpha" operator="out"/>
<feColorMatrix type="matrix" values="0 0 0 0 0 0 0 0 0 0 0 0 0 0 0 0 0 0 0.16 0"/>
<feBlend mode="normal" in2="BackgroundImageFix" result="effect1_dropShadow_13695_12399"/>
<feBlend mode="normal" in="SourceGraphic" in2="effect1_dropShadow_13695_12399" result="shape"/>
</filter>
<filter id="filter1_f_13695_12399" x="7.83337" y="7.17242" width="37" height="33.7166" filterUnits="userSpaceOnUse" color-interpolation-filters="sRGB">
<feFlood flood-opacity="0" result="BackgroundImageFix"/>
<feBlend mode="normal" in="SourceGraphic" in2="BackgroundImageFix" result="shape"/>
<feGaussianBlur stdDeviation="2" result="effect1_foregroundBlur_13695_12399"/>
</filter>
<filter id="filter2_f_13695_12399" x="3.83337" y="3.17242" width="45" height="41.7166" filterUnits="userSpaceOnUse" color-interpolation-filters="sRGB">
<feFlood flood-opacity="0" result="BackgroundImageFix"/>
<feBlend mode="normal" in="SourceGraphic" in2="BackgroundImageFix" result="shape"/>
<feGaussianBlur stdDeviation="4" result="effect1_foregroundBlur_13695_12399"/>
</filter>
<filter id="filter3_f_13695_12399" x="-4.16663" y="-4.82758" width="61" height="57.7166" filterUnits="userSpaceOnUse" color-interpolation-filters="sRGB">
<feFlood flood-opacity="0" result="BackgroundImageFix"/>
<feBlend mode="normal" in="SourceGraphic" in2="BackgroundImageFix" result="shape"/>
<feGaussianBlur stdDeviation="8" result="effect1_foregroundBlur_13695_12399"/>
</filter>
<linearGradient id="paint0_linear_13695_12399" x1="2.40673" y1="-0.222234" x2="50.2574" y2="48.1135" gradientUnits="userSpaceOnUse">
<stop stop-color="#232328"/>
<stop offset="0.5" stop-color="#1F1F23"/>
<stop offset="0.878699" stop-color="#18181B"/>
</linearGradient>
<linearGradient id="paint1_linear_13695_12399" x1="2.40673" y1="-0.222236" x2="26.3332" y2="24.2222" gradientUnits="userSpaceOnUse">
<stop stop-color="white" stop-opacity="0.12"/>
<stop offset="0.5" stop-color="#808080" stop-opacity="0.06"/>
<stop offset="1" stop-opacity="0"/>
</linearGradient>
<radialGradient id="paint2_radial_13695_12399" cx="0" cy="0" r="1" gradientUnits="userSpaceOnUse" gradientTransform="translate(5.33338 28.5) rotate(-16.0736) scale(30.7002)">
<stop stop-color="#31FCDD"/>
<stop offset="1" stop-color="#31FCDD" stop-opacity="0"/>
</radialGradient>
<clipPath id="clip0_13695_12399">
<rect x="2.33337" width="48" height="48" rx="12" fill="white"/>
</clipPath>
</defs>
</svg>
