<svg width="20" height="20" viewBox="0 0 20 20" fill="none" xmlns="http://www.w3.org/2000/svg">
<path fill-rule="evenodd" clip-rule="evenodd" d="M3.75 1.25C2.37109 1.25 1.25 2.37109 1.25 3.75V16.25C1.25 17.6289 2.37109 18.75 3.75 18.75H16.25C17.6289 18.75 18.75 17.6289 18.75 16.25V3.75C18.75 2.37109 17.6289 1.25 16.25 1.25H3.75ZM14.9373 6.59977C14.7825 8.23908 14.1051 12.2203 13.7621 14.0561C13.6158 14.834 13.3314 15.0932 13.0554 15.1183C12.5779 15.1614 12.1924 14.8864 11.7614 14.5788C11.6488 14.4985 11.5331 14.416 11.4119 14.3363C10.912 14.0084 10.5303 13.7484 10.142 13.4839C9.82218 13.266 9.49785 13.0451 9.0993 12.7806C8.21819 12.2016 8.58658 11.8453 9.07672 11.3712C9.15652 11.294 9.23955 11.2137 9.32094 11.1288C9.35643 11.0923 9.52322 10.9373 9.75983 10.7175C10.555 9.97859 12.1385 8.50703 12.1772 8.33944C12.1856 8.31017 12.1897 8.2098 12.127 8.15544C12.0671 8.1035 11.9843 8.12026 11.9223 8.1328C11.9194 8.13339 11.9165 8.13397 11.9137 8.13453C11.8217 8.15404 10.3636 9.11728 7.53944 11.0242C7.12683 11.3086 6.75185 11.4466 6.41451 11.4382C6.04232 11.4299 5.33139 11.2291 4.80029 11.0577C4.72495 11.0334 4.65137 11.0104 4.58022 10.9881C4.03918 10.819 3.63888 10.6939 3.67954 10.376C3.70184 10.1892 3.95972 9.99827 4.45319 9.80311C7.47532 8.4872 9.491 7.61876 10.5002 7.19778C13.3816 6.00175 13.9796 5.79266 14.3685 5.78429C14.4563 5.78429 14.6445 5.8052 14.77 5.90557C14.8519 5.97755 14.904 6.07743 14.9163 6.18576C14.939 6.32252 14.946 6.46142 14.9373 6.59977Z" fill="#4F4F63"/>
</svg>
