<svg width="53" height="52" viewBox="0 0 53 52" fill="none" xmlns="http://www.w3.org/2000/svg">
<g filter="url(#filter0_d_13446_11027)">
<g clip-path="url(#clip0_13446_11027)">
<rect x="2.66663" width="48" height="48" rx="12" fill="url(#paint0_linear_13446_11027)"/>
<rect x="2.66663" width="48" height="48" rx="12" fill="url(#paint1_linear_13446_11027)"/>
<g opacity="0.2" filter="url(#filter1_f_13446_11027)">
<path d="M26.6642 13.1121C22.7368 13.1121 19.5919 14.9008 17.3025 17.0298C15.0277 19.1393 13.5063 21.6669 12.7869 23.4021C12.6265 23.7861 12.6265 24.2139 12.7869 24.5979C13.5063 26.3331 15.0277 28.8607 17.3025 30.9702C19.5919 33.0992 22.7368 34.8879 26.6642 34.8879C30.5916 34.8879 33.7365 33.0992 36.0259 30.9702C38.3007 28.8558 39.8221 26.3331 40.5463 24.5979C40.7067 24.2139 40.7067 23.7861 40.5463 23.4021C39.8221 21.6669 38.3007 19.1393 36.0259 17.0298C33.7365 14.9008 30.5916 13.1121 26.6642 13.1121ZM19.6648 24C19.6648 22.1437 20.4022 20.3633 21.7149 19.0507C23.0275 17.738 24.8078 17.0006 26.6642 17.0006C28.5205 17.0006 30.3009 17.738 31.6135 19.0507C32.9262 20.3633 33.6636 22.1437 33.6636 24C33.6636 25.8564 32.9262 27.6367 31.6135 28.9493C30.3009 30.262 28.5205 30.9994 26.6642 30.9994C24.8078 30.9994 23.0275 30.262 21.7149 28.9493C20.4022 27.6367 19.6648 25.8564 19.6648 24ZM26.6642 20.8892C26.6642 22.605 25.2692 24 23.5534 24C23.2082 24 22.8777 23.9417 22.5666 23.8396C22.2993 23.7521 21.9882 23.9174 21.9979 24.1993C22.0125 24.5347 22.0611 24.8701 22.1535 25.2055C22.8194 27.6941 25.381 29.1718 27.8696 28.5059C30.3583 27.84 31.836 25.2784 31.1701 22.7897C30.6305 20.7725 28.8466 19.4164 26.8635 19.3337C26.5816 19.324 26.4163 19.6302 26.5038 19.9024C26.6059 20.2135 26.6642 20.5441 26.6642 20.8892Z" fill="#31FCDD"/>
</g>
<g opacity="0.4" filter="url(#filter2_f_13446_11027)">
<path d="M26.6642 13.1121C22.7368 13.1121 19.5919 14.9008 17.3025 17.0298C15.0277 19.1393 13.5063 21.6669 12.7869 23.4021C12.6265 23.7861 12.6265 24.2139 12.7869 24.5979C13.5063 26.3331 15.0277 28.8607 17.3025 30.9702C19.5919 33.0992 22.7368 34.8879 26.6642 34.8879C30.5916 34.8879 33.7365 33.0992 36.0259 30.9702C38.3007 28.8558 39.8221 26.3331 40.5463 24.5979C40.7067 24.2139 40.7067 23.7861 40.5463 23.4021C39.8221 21.6669 38.3007 19.1393 36.0259 17.0298C33.7365 14.9008 30.5916 13.1121 26.6642 13.1121ZM19.6648 24C19.6648 22.1437 20.4022 20.3633 21.7149 19.0507C23.0275 17.738 24.8078 17.0006 26.6642 17.0006C28.5205 17.0006 30.3009 17.738 31.6135 19.0507C32.9262 20.3633 33.6636 22.1437 33.6636 24C33.6636 25.8564 32.9262 27.6367 31.6135 28.9493C30.3009 30.262 28.5205 30.9994 26.6642 30.9994C24.8078 30.9994 23.0275 30.262 21.7149 28.9493C20.4022 27.6367 19.6648 25.8564 19.6648 24ZM26.6642 20.8892C26.6642 22.605 25.2692 24 23.5534 24C23.2082 24 22.8777 23.9417 22.5666 23.8396C22.2993 23.7521 21.9882 23.9174 21.9979 24.1993C22.0125 24.5347 22.0611 24.8701 22.1535 25.2055C22.8194 27.6941 25.381 29.1718 27.8696 28.5059C30.3583 27.84 31.836 25.2784 31.1701 22.7897C30.6305 20.7725 28.8466 19.4164 26.8635 19.3337C26.5816 19.324 26.4163 19.6302 26.5038 19.9024C26.6059 20.2135 26.6642 20.5441 26.6642 20.8892Z" fill="#31FCDD"/>
</g>
<g opacity="0.6" filter="url(#filter3_f_13446_11027)">
<path d="M26.6642 13.1121C22.7368 13.1121 19.5919 14.9008 17.3025 17.0298C15.0277 19.1393 13.5063 21.6669 12.7869 23.4021C12.6265 23.7861 12.6265 24.2139 12.7869 24.5979C13.5063 26.3331 15.0277 28.8607 17.3025 30.9702C19.5919 33.0992 22.7368 34.8879 26.6642 34.8879C30.5916 34.8879 33.7365 33.0992 36.0259 30.9702C38.3007 28.8558 39.8221 26.3331 40.5463 24.5979C40.7067 24.2139 40.7067 23.7861 40.5463 23.4021C39.8221 21.6669 38.3007 19.1393 36.0259 17.0298C33.7365 14.9008 30.5916 13.1121 26.6642 13.1121ZM19.6648 24C19.6648 22.1437 20.4022 20.3633 21.7149 19.0507C23.0275 17.738 24.8078 17.0006 26.6642 17.0006C28.5205 17.0006 30.3009 17.738 31.6135 19.0507C32.9262 20.3633 33.6636 22.1437 33.6636 24C33.6636 25.8564 32.9262 27.6367 31.6135 28.9493C30.3009 30.262 28.5205 30.9994 26.6642 30.9994C24.8078 30.9994 23.0275 30.262 21.7149 28.9493C20.4022 27.6367 19.6648 25.8564 19.6648 24ZM26.6642 20.8892C26.6642 22.605 25.2692 24 23.5534 24C23.2082 24 22.8777 23.9417 22.5666 23.8396C22.2993 23.7521 21.9882 23.9174 21.9979 24.1993C22.0125 24.5347 22.0611 24.8701 22.1535 25.2055C22.8194 27.6941 25.381 29.1718 27.8696 28.5059C30.3583 27.84 31.836 25.2784 31.1701 22.7897C30.6305 20.7725 28.8466 19.4164 26.8635 19.3337C26.5816 19.324 26.4163 19.6302 26.5038 19.9024C26.6059 20.2135 26.6642 20.5441 26.6642 20.8892Z" fill="#31FCDD"/>
</g>
<path opacity="0.24" d="M21.7149 19.0508C20.4022 20.3634 19.6648 22.1438 19.6648 24.0001C19.6648 25.8565 20.4022 27.6368 21.7149 28.9494C23.0275 30.2621 24.8078 30.9995 26.6642 30.9995C28.5205 30.9995 30.3009 30.2621 31.6135 28.9494C32.9261 27.6368 33.6636 25.8565 33.6636 24.0001C33.6636 22.1438 32.9261 20.3634 31.6135 19.0508C30.3009 17.7382 28.5205 17.0007 26.6642 17.0007C24.8078 17.0007 23.0275 17.7382 21.7149 19.0508Z" fill="#1E1E22"/>
<path d="M26.6642 13.1121C22.7368 13.1121 19.5919 14.9008 17.3025 17.0298C15.0277 19.1393 13.5063 21.6669 12.7869 23.4021C12.6265 23.7861 12.6265 24.2139 12.7869 24.5979C13.5063 26.3331 15.0277 28.8607 17.3025 30.9702C19.5919 33.0992 22.7368 34.8879 26.6642 34.8879C30.5916 34.8879 33.7365 33.0992 36.0259 30.9702C38.3007 28.8558 39.8221 26.3331 40.5463 24.5979C40.7067 24.2139 40.7067 23.7861 40.5463 23.4021C39.8221 21.6669 38.3007 19.1393 36.0259 17.0298C33.7365 14.9008 30.5916 13.1121 26.6642 13.1121ZM19.6648 24C19.6648 22.1437 20.4022 20.3633 21.7149 19.0507C23.0275 17.738 24.8078 17.0006 26.6642 17.0006C28.5206 17.0006 30.3009 17.738 31.6135 19.0507C32.9262 20.3633 33.6636 22.1437 33.6636 24C33.6636 25.8564 32.9262 27.6367 31.6135 28.9493C30.3009 30.262 28.5206 30.9994 26.6642 30.9994C24.8078 30.9994 23.0275 30.262 21.7149 28.9493C20.4022 27.6367 19.6648 25.8564 19.6648 24ZM26.6642 20.8892C26.6642 22.605 25.2692 24 23.5534 24C23.2082 24 22.8777 23.9417 22.5666 23.8396C22.2993 23.7521 21.9882 23.9174 21.9979 24.1993C22.0125 24.5347 22.0611 24.8701 22.1535 25.2055C22.8194 27.6941 25.381 29.1718 27.8696 28.5059C30.3583 27.84 31.836 25.2784 31.1701 22.7897C30.6305 20.7725 28.8466 19.4164 26.8635 19.3337C26.5816 19.324 26.4163 19.6302 26.5038 19.9024C26.6059 20.2135 26.6642 20.5441 26.6642 20.8892Z" fill="#31FCDD"/>
</g>
<rect x="3.16663" y="0.5" width="47" height="47" rx="11.5" stroke="white" stroke-opacity="0.06"/>
</g>
<defs>
<filter id="filter0_d_13446_11027" x="0.666626" y="0" width="52" height="52" filterUnits="userSpaceOnUse" color-interpolation-filters="sRGB">
<feFlood flood-opacity="0" result="BackgroundImageFix"/>
<feColorMatrix in="SourceAlpha" type="matrix" values="0 0 0 0 0 0 0 0 0 0 0 0 0 0 0 0 0 0 127 0" result="hardAlpha"/>
<feOffset dy="2"/>
<feGaussianBlur stdDeviation="1"/>
<feComposite in2="hardAlpha" operator="out"/>
<feColorMatrix type="matrix" values="0 0 0 0 0 0 0 0 0 0 0 0 0 0 0 0 0 0 0.16 0"/>
<feBlend mode="normal" in2="BackgroundImageFix" result="effect1_dropShadow_13446_11027"/>
<feBlend mode="normal" in="SourceGraphic" in2="effect1_dropShadow_13446_11027" result="shape"/>
</filter>
<filter id="filter1_f_13446_11027" x="8.66663" y="9.11206" width="36" height="29.7759" filterUnits="userSpaceOnUse" color-interpolation-filters="sRGB">
<feFlood flood-opacity="0" result="BackgroundImageFix"/>
<feBlend mode="normal" in="SourceGraphic" in2="BackgroundImageFix" result="shape"/>
<feGaussianBlur stdDeviation="2" result="effect1_foregroundBlur_13446_11027"/>
</filter>
<filter id="filter2_f_13446_11027" x="4.66663" y="5.11206" width="44" height="37.7759" filterUnits="userSpaceOnUse" color-interpolation-filters="sRGB">
<feFlood flood-opacity="0" result="BackgroundImageFix"/>
<feBlend mode="normal" in="SourceGraphic" in2="BackgroundImageFix" result="shape"/>
<feGaussianBlur stdDeviation="4" result="effect1_foregroundBlur_13446_11027"/>
</filter>
<filter id="filter3_f_13446_11027" x="-3.33337" y="-2.88794" width="60" height="53.7759" filterUnits="userSpaceOnUse" color-interpolation-filters="sRGB">
<feFlood flood-opacity="0" result="BackgroundImageFix"/>
<feBlend mode="normal" in="SourceGraphic" in2="BackgroundImageFix" result="shape"/>
<feGaussianBlur stdDeviation="8" result="effect1_foregroundBlur_13446_11027"/>
</filter>
<linearGradient id="paint0_linear_13446_11027" x1="2.73998" y1="-0.222234" x2="50.5906" y2="48.1135" gradientUnits="userSpaceOnUse">
<stop stop-color="#232328"/>
<stop offset="0.5" stop-color="#1F1F23"/>
<stop offset="0.878699" stop-color="#18181B"/>
</linearGradient>
<linearGradient id="paint1_linear_13446_11027" x1="2.73998" y1="-0.222236" x2="26.6665" y2="24.2222" gradientUnits="userSpaceOnUse">
<stop stop-color="white" stop-opacity="0.12"/>
<stop offset="0.5" stop-color="#808080" stop-opacity="0.06"/>
<stop offset="1" stop-opacity="0"/>
</linearGradient>
<clipPath id="clip0_13446_11027">
<rect x="2.66663" width="48" height="48" rx="12" fill="white"/>
</clipPath>
</defs>
</svg>
