<svg width="36" height="36" viewBox="0 0 36 36" fill="none" xmlns="http://www.w3.org/2000/svg">
<rect width="36" height="36" rx="8" fill="#26262B"/>
<rect x="0.5" y="0.5" width="35" height="35" rx="7.5" stroke="white" stroke-opacity="0.12"/>
<path d="M22.5737 10.7047L22.5735 10.7063L19.9786 29.527C19.9017 30.0846 19.4252 30.4999 18.8623 30.4999H17.801C17.3121 30.4999 16.9359 30.0682 17.0026 29.584L19.6615 10.299L19.6618 10.2971C20.0008 7.88498 22.231 6.20439 24.6431 6.54339L24.2339 9.45507C23.4304 9.34214 22.6874 9.90154 22.5737 10.7047Z" fill="#D9D9D9"/>
<path d="M22.5737 10.7047L22.5735 10.7063L19.9786 29.527C19.9017 30.0846 19.4252 30.4999 18.8623 30.4999H17.801C17.3121 30.4999 16.9359 30.0682 17.0026 29.584L19.6615 10.299L19.6618 10.2971C20.0008 7.88498 22.231 6.20439 24.6431 6.54339L24.2339 9.45507C23.4304 9.34214 22.6874 9.90154 22.5737 10.7047Z" fill="#A6EB00"/>
<path d="M10.5592 7.22293C11.3684 6.53174 12.7034 7.21658 12.5553 8.27044L12.1905 10.866C11.6502 14.7102 13.8992 18.0855 17.0939 18.9338C17.4329 19.0239 17.6735 19.3424 17.6256 19.6899L17.3992 21.3315C17.3502 21.6868 17.019 21.9357 16.669 21.8575C12.179 20.8545 9.1572 16.6447 9.17185 11.9495C9.17313 11.537 8.86016 11.1768 8.44779 11.1891C8.30864 11.1933 8.17435 11.2007 8.04389 11.2111C7.24937 11.2744 6.75949 10.315 7.38322 9.81878C8.63841 8.82022 9.6722 7.98058 10.5592 7.22293Z" fill="url(#paint0_linear_16351_23215)"/>
<path d="M21.9294 20.7293C21.8797 21.0898 22.2308 21.3704 22.5607 21.2168C25.5968 19.8036 27.8752 16.7867 28.3874 13.1423C28.5085 12.2811 28.5259 11.4286 28.4489 10.5998C28.3056 8.55241 26.7299 6.8363 24.6428 6.54297L24.2336 9.45465C24.948 9.55506 25.4732 10.1462 25.5163 10.8127L25.5177 10.8349L25.5198 10.8569C25.5774 11.4644 25.5657 12.0933 25.4757 12.7331C25.1859 14.7952 24.162 16.5063 22.7649 17.6397C22.4831 17.8683 22.2801 18.1854 22.2305 18.5448L21.9294 20.7293Z" fill="url(#paint1_linear_16351_23215)"/>
<defs>
<linearGradient id="paint0_linear_16351_23215" x1="28.4954" y1="14.2601" x2="12.9608" y2="23.8018" gradientUnits="userSpaceOnUse">
<stop stop-color="#A6EB00"/>
<stop offset="0.333333" stop-color="#A6EB00" stop-opacity="0.88"/>
<stop offset="0.666667" stop-color="#A6EB00" stop-opacity="0.8"/>
<stop offset="1" stop-color="#A6EB00" stop-opacity="0.72"/>
</linearGradient>
<linearGradient id="paint1_linear_16351_23215" x1="28.4954" y1="14.2601" x2="12.9608" y2="23.8018" gradientUnits="userSpaceOnUse">
<stop stop-color="#A6EB00"/>
<stop offset="0.333333" stop-color="#A6EB00" stop-opacity="0.88"/>
<stop offset="0.666667" stop-color="#A6EB00" stop-opacity="0.8"/>
<stop offset="1" stop-color="#A6EB00" stop-opacity="0.72"/>
</linearGradient>
</defs>
</svg>
