<svg width="88" height="40" viewBox="0 0 88 40" fill="none" xmlns="http://www.w3.org/2000/svg">
<g clip-path="url(#clip0_38_2)">
<path d="M21.2502 9.79853L21.2499 9.80059L17.854 34.4311C17.7534 35.1608 17.1298 35.7043 16.3932 35.7043H15.0042C14.3645 35.7043 13.872 35.1394 13.9594 34.5056L17.4391 9.26755L17.4394 9.26506C17.8831 6.10834 20.8018 3.90896 23.9585 4.35261L23.4229 8.1631C22.3714 8.01532 21.3991 8.74739 21.2502 9.79853Z" fill="#D9D9D9"/>
<path d="M21.2502 9.79853L21.2499 9.80059L17.854 34.4311C17.7534 35.1608 17.1298 35.7043 16.3932 35.7043H15.0042C14.3645 35.7043 13.872 35.1394 13.9594 34.5056L17.4391 9.26755L17.4394 9.26506C17.8831 6.10834 20.8018 3.90896 23.9585 4.35261L23.4229 8.1631C22.3714 8.01532 21.3991 8.74739 21.2502 9.79853Z" fill="#A6EB00"/>
<path d="M5.52703 5.24235C6.58603 4.33778 8.33312 5.23403 8.13929 6.61321L7.66191 10.01C6.95487 15.0409 9.89804 19.4581 14.0789 20.5683C14.5226 20.6861 14.8374 21.1029 14.7747 21.5577L14.4785 23.7061C14.4144 24.1711 13.9809 24.4968 13.5228 24.3945C7.64687 23.0819 3.69224 17.5725 3.71141 11.428C3.7131 10.8881 3.30351 10.4168 2.76385 10.4329C2.58173 10.4383 2.406 10.448 2.23526 10.4616C1.19548 10.5445 0.554378 9.2889 1.37065 8.63951C3.0133 7.3327 4.36622 6.23387 5.52703 5.24235Z" fill="url(#paint0_linear_38_2)"/>
<path d="M20.4071 22.918C20.342 23.3898 20.8015 23.757 21.2333 23.556C25.2067 21.7066 28.1884 17.7584 28.8587 12.9889C29.0171 11.8619 29.04 10.7463 28.9391 9.66159C28.7516 6.98223 26.6896 4.73636 23.9581 4.35248L23.4226 8.16298C24.3576 8.29439 25.0449 9.06804 25.1012 9.94031L25.1031 9.96927L25.1059 9.99815C25.1813 10.7931 25.1659 11.6161 25.0482 12.4534C24.6689 15.1521 23.3289 17.3914 21.5005 18.8746C21.1317 19.1738 20.8661 19.5888 20.8012 20.0592L20.4071 22.918Z" fill="url(#paint1_linear_38_2)"/>
<path fill-rule="evenodd" clip-rule="evenodd" d="M39.1261 29.5745C39.0537 29.4261 39.1016 29.2471 39.2383 29.1546L41.1554 27.8568C41.3214 27.7445 41.5483 27.8039 41.6379 27.9831L41.7693 28.2458C42.3916 29.4905 43.7308 30.3713 45.5948 30.3713C46.7932 30.3713 47.6898 30.0359 48.2815 29.4885C49.0155 28.8094 49.1731 28.1529 49.1859 26.963C49.1867 26.8933 49.1057 26.8538 49.05 26.8957C48.1343 27.5836 46.9842 27.9595 45.8238 27.9595C44.2258 27.9595 42.8734 27.3592 41.9245 26.322C40.9803 25.2898 40.4701 23.8638 40.4701 22.2621V15.4467C40.4701 15.2636 40.6186 15.1151 40.8017 15.1151H43.0575C43.2407 15.1151 43.3891 15.2636 43.3891 15.4467V22.2621C43.3891 23.1801 43.6587 23.9126 44.0991 24.4075C44.5327 24.8947 45.1742 25.2008 46.03 25.2008C47.7347 25.2008 49.1977 23.8699 49.1977 22.0101V15.4467C49.1977 15.2636 49.3462 15.1151 49.5294 15.1151H51.7846C51.9675 15.1151 52.1159 15.2632 52.1162 15.4461L52.1397 27.0432C52.1397 28.9082 51.5179 30.4509 50.3514 31.5229C49.1913 32.589 47.5578 33.1299 45.6406 33.1299C42.6251 33.1299 40.2445 31.8686 39.224 29.7753L39.1261 29.5745ZM58.1018 27.5289C58.1018 27.7121 57.9533 27.8605 57.7702 27.8605H55.5144C55.3313 27.8605 55.1828 27.7121 55.1828 27.5289V10.1773C55.1828 9.99418 55.3313 9.8457 55.5144 9.8457H57.7702C57.9533 9.8457 58.1018 9.99418 58.1018 10.1773V27.5289Z" fill="#FAFAFA"/>
<path d="M61.7216 28V10.5455H64.8068V17.0739H64.9347C65.0938 16.7557 65.3182 16.4176 65.608 16.0597C65.8977 15.696 66.2898 15.3864 66.7841 15.1307C67.2784 14.8693 67.9091 14.7386 68.6761 14.7386C69.6875 14.7386 70.5994 14.9972 71.4119 15.5142C72.2301 16.0256 72.8778 16.7841 73.3551 17.7898C73.8381 18.7898 74.0795 20.017 74.0795 21.4716C74.0795 22.9091 73.8438 24.1307 73.3722 25.1364C72.9006 26.142 72.2585 26.9091 71.446 27.4375C70.6335 27.9659 69.7131 28.2301 68.6847 28.2301C67.9347 28.2301 67.3125 28.1051 66.8182 27.8551C66.3239 27.6051 65.9261 27.304 65.625 26.9517C65.3295 26.5937 65.0994 26.2557 64.9347 25.9375H64.7557V28H61.7216ZM64.7472 21.4545C64.7472 22.3011 64.8665 23.0426 65.1051 23.679C65.3494 24.3153 65.6989 24.8125 66.1534 25.1705C66.6136 25.5227 67.1705 25.6989 67.8239 25.6989C68.5057 25.6989 69.0767 25.517 69.5369 25.1534C69.9972 24.7841 70.3438 24.2812 70.5767 23.6449C70.8153 23.0028 70.9347 22.2727 70.9347 21.4545C70.9347 20.642 70.8182 19.9205 70.5852 19.2898C70.3523 18.6591 70.0057 18.1648 69.5455 17.8068C69.0852 17.4489 68.5114 17.2699 67.8239 17.2699C67.1648 17.2699 66.6051 17.4432 66.1449 17.7898C65.6847 18.1364 65.3352 18.6222 65.0966 19.2472C64.8636 19.8722 64.7472 20.608 64.7472 21.4545ZM87.049 18.3693L84.2365 18.6761C84.157 18.392 84.0178 18.125 83.8189 17.875C83.6257 17.625 83.3643 17.4233 83.0348 17.2699C82.7053 17.1165 82.3018 17.0398 81.8246 17.0398C81.1825 17.0398 80.6428 17.179 80.2053 17.4574C79.7734 17.7358 79.5604 18.0966 79.5661 18.5398C79.5604 18.9205 79.6996 19.2301 79.9837 19.4688C80.2734 19.7074 80.7507 19.9034 81.4155 20.0568L83.6484 20.5341C84.8871 20.8011 85.8075 21.2244 86.4098 21.804C87.0178 22.3835 87.3246 23.142 87.3303 24.0795C87.3246 24.9034 87.0831 25.6307 86.6058 26.2614C86.1342 26.8864 85.478 27.375 84.6371 27.7273C83.7962 28.0795 82.8303 28.2557 81.7393 28.2557C80.1371 28.2557 78.8473 27.9205 77.87 27.25C76.8928 26.5739 76.3104 25.6335 76.1229 24.429L79.1314 24.1392C79.2678 24.7301 79.5575 25.1761 80.0007 25.4773C80.4439 25.7784 81.0206 25.929 81.7308 25.929C82.4638 25.929 83.0518 25.7784 83.495 25.4773C83.9439 25.1761 84.1683 24.804 84.1683 24.3608C84.1683 23.9858 84.0234 23.6761 83.7337 23.4318C83.4496 23.1875 83.0064 23 82.4041 22.8693L80.1712 22.4006C78.9155 22.1392 77.9865 21.6989 77.3842 21.0795C76.782 20.4545 76.4837 19.6648 76.4893 18.7102C76.4837 17.9034 76.7024 17.2045 77.1456 16.6136C77.5945 16.017 78.2166 15.5568 79.0121 15.233C79.8132 14.9034 80.7365 14.7386 81.782 14.7386C83.3161 14.7386 84.5234 15.0653 85.4041 15.7188C86.2905 16.3722 86.8388 17.2557 87.049 18.3693Z" fill="white"/>
</g>
<defs>
<linearGradient id="paint0_linear_38_2" x1="29" y1="14.4518" x2="8.66992" y2="26.939" gradientUnits="userSpaceOnUse">
<stop stop-color="#A6EB00"/>
<stop offset="0.333333" stop-color="#A6EB00" stop-opacity="0.88"/>
<stop offset="0.666667" stop-color="#A6EB00" stop-opacity="0.8"/>
<stop offset="1" stop-color="#A6EB00" stop-opacity="0.72"/>
</linearGradient>
<linearGradient id="paint1_linear_38_2" x1="29" y1="14.4518" x2="8.6699" y2="26.939" gradientUnits="userSpaceOnUse">
<stop stop-color="#A6EB00"/>
<stop offset="0.333333" stop-color="#A6EB00" stop-opacity="0.88"/>
<stop offset="0.666667" stop-color="#A6EB00" stop-opacity="0.8"/>
<stop offset="1" stop-color="#A6EB00" stop-opacity="0.72"/>
</linearGradient>
<clipPath id="clip0_38_2">
<rect width="88" height="40" fill="white"/>
</clipPath>
</defs>
</svg>
