<svg width="88" height="40" viewBox="0 0 88 40" fill="none" xmlns="http://www.w3.org/2000/svg">
<path d="M21.2502 9.7985L21.2499 9.80056L17.854 34.4311C17.7534 35.1608 17.1298 35.7043 16.3932 35.7043H15.0042C14.3645 35.7043 13.872 35.1394 13.9594 34.5056L17.4391 9.26752L17.4394 9.26503C17.8831 6.10831 20.8018 3.90893 23.9585 4.35258L23.4229 8.16307C22.3714 8.01529 21.3991 8.74736 21.2502 9.7985Z" fill="#D9D9D9"/>
<path d="M21.2502 9.7985L21.2499 9.80056L17.854 34.4311C17.7534 35.1608 17.1298 35.7043 16.3932 35.7043H15.0042C14.3645 35.7043 13.872 35.1394 13.9594 34.5056L17.4391 9.26752L17.4394 9.26503C17.8831 6.10831 20.8018 3.90893 23.9585 4.35258L23.4229 8.16307C22.3714 8.01529 21.3991 8.74736 21.2502 9.7985Z" fill="#A6EB00"/>
<path d="M5.52703 5.24233C6.58603 4.33776 8.33312 5.23401 8.13929 6.61319L7.66191 10.01C6.95487 15.0409 9.89804 19.4581 14.0789 20.5683C14.5226 20.6861 14.8374 21.1029 14.7747 21.5577L14.4785 23.7061C14.4144 24.1711 13.9809 24.4968 13.5228 24.3945C7.64687 23.0819 3.69224 17.5725 3.71141 11.428C3.7131 10.8881 3.30351 10.4168 2.76385 10.4329C2.58173 10.4383 2.406 10.448 2.23526 10.4616C1.19548 10.5445 0.554378 9.28888 1.37065 8.63949C3.0133 7.33268 4.36622 6.23385 5.52703 5.24233Z" fill="url(#paint0_linear_16318_14320)"/>
<path d="M20.4071 22.918C20.342 23.3898 20.8015 23.757 21.2333 23.556C25.2067 21.7066 28.1884 17.7584 28.8587 12.9889C29.0171 11.8619 29.04 10.7463 28.9391 9.66157C28.7516 6.98221 26.6896 4.73634 23.9581 4.35246L23.4226 8.16296C24.3576 8.29437 25.0449 9.06802 25.1012 9.94029L25.1031 9.96925L25.1059 9.99813C25.1813 10.7931 25.1659 11.6161 25.0482 12.4534C24.6689 15.1521 23.3289 17.3914 21.5005 18.8746C21.1317 19.1738 20.8661 19.5888 20.8012 20.0592L20.4071 22.918Z" fill="url(#paint1_linear_16318_14320)"/>
<path fill-rule="evenodd" clip-rule="evenodd" d="M39.1261 29.5745C39.0537 29.4261 39.1016 29.2471 39.2383 29.1546L41.1554 27.8568C41.3214 27.7445 41.5483 27.8039 41.6379 27.9831L41.7693 28.2458C42.3916 29.4905 43.7308 30.3713 45.5948 30.3713C46.7932 30.3713 47.6898 30.0359 48.2815 29.4885C49.0155 28.8094 49.1731 28.1529 49.1859 26.963C49.1867 26.8933 49.1057 26.8538 49.05 26.8957C48.1343 27.5836 46.9842 27.9595 45.8238 27.9595C44.2258 27.9595 42.8734 27.3592 41.9245 26.322C40.9803 25.2898 40.4701 23.8638 40.4701 22.2621V15.4467C40.4701 15.2636 40.6186 15.1151 40.8017 15.1151H43.0575C43.2407 15.1151 43.3891 15.2636 43.3891 15.4467V22.2621C43.3891 23.1801 43.6587 23.9126 44.0991 24.4075C44.5327 24.8947 45.1742 25.2008 46.03 25.2008C47.7347 25.2008 49.1977 23.8699 49.1977 22.0101V15.4467C49.1977 15.2636 49.3462 15.1151 49.5294 15.1151H51.7846C51.9675 15.1151 52.1159 15.2632 52.1162 15.4461L52.1397 27.0432C52.1397 28.9082 51.5179 30.4509 50.3514 31.5229C49.1913 32.589 47.5578 33.1299 45.6406 33.1299C42.6251 33.1299 40.2445 31.8686 39.224 29.7753L39.1261 29.5745ZM58.1018 27.5289C58.1018 27.7121 57.9533 27.8605 57.7702 27.8605H55.5144C55.3313 27.8605 55.1828 27.7121 55.1828 27.5289V10.1773C55.1828 9.99418 55.3313 9.8457 55.5144 9.8457H57.7702C57.9533 9.8457 58.1018 9.99418 58.1018 10.1773V27.5289ZM71.223 10.1773C71.223 9.99418 71.3714 9.8457 71.5546 9.8457H73.8333C74.0164 9.8457 74.1649 9.99418 74.1649 10.1773V27.5289C74.1649 27.7121 74.0164 27.8605 73.8333 27.8605H71.8036C71.6307 27.8605 71.4869 27.7278 71.473 27.5555L71.463 27.4308C71.4406 27.1534 71.1014 27.0197 70.8777 27.1852C69.895 27.9124 68.6875 28.3187 67.3451 28.3187C63.599 28.3187 60.8689 25.3892 60.8689 21.4989C60.8689 17.5902 63.5718 14.6562 67.3222 14.6562C68.7876 14.6562 70.0701 15.1295 71.0831 15.9717C71.1381 16.0175 71.223 15.979 71.223 15.9075V10.1773ZM86.9739 18.9882C86.9892 19.1423 86.8957 19.2865 86.7488 19.3355L84.7403 20.005C84.5402 20.0717 84.3295 19.9371 84.3059 19.7275L84.2703 19.4116C84.188 18.6811 83.9639 18.1902 83.6831 17.8889C83.4131 17.5992 83.0482 17.4378 82.5649 17.4378C81.8188 17.4378 81.239 17.7372 80.8284 18.2845C80.4041 18.8503 80.1302 19.7258 80.1302 20.9033V27.5289C80.1302 27.7121 79.9817 27.8605 79.7986 27.8605H77.5428C77.3596 27.8605 77.2112 27.7121 77.2112 27.5289V15.446C77.2112 15.2628 77.3596 15.1143 77.5428 15.1143H79.5248C79.6966 15.1143 79.84 15.2456 79.8551 15.4167L79.8794 15.691C79.8857 15.7613 79.9718 15.7927 80.0234 15.7446C80.7704 15.0483 81.7344 14.6333 82.8169 14.6333C83.9388 14.6333 84.926 15.0089 85.6625 15.7489C86.3933 16.483 86.8292 17.527 86.9537 18.7836L86.9739 18.9882ZM67.5513 25.56C69.6783 25.56 71.2917 23.8314 71.2917 21.4989C71.2917 19.1454 69.6801 17.4378 67.5513 17.4378C65.3976 17.4378 63.788 19.1476 63.788 21.4989C63.788 23.869 65.4167 25.56 67.5513 25.56Z" fill="#FAFAFA"/>
<defs>
<linearGradient id="paint0_linear_16318_14320" x1="29" y1="14.4518" x2="8.66992" y2="26.939" gradientUnits="userSpaceOnUse">
<stop stop-color="#A6EB00"/>
<stop offset="0.333333" stop-color="#A6EB00" stop-opacity="0.88"/>
<stop offset="0.666667" stop-color="#A6EB00" stop-opacity="0.8"/>
<stop offset="1" stop-color="#A6EB00" stop-opacity="0.72"/>
</linearGradient>
<linearGradient id="paint1_linear_16318_14320" x1="29" y1="14.4518" x2="8.66992" y2="26.939" gradientUnits="userSpaceOnUse">
<stop stop-color="#A6EB00"/>
<stop offset="0.333333" stop-color="#A6EB00" stop-opacity="0.88"/>
<stop offset="0.666667" stop-color="#A6EB00" stop-opacity="0.8"/>
<stop offset="1" stop-color="#A6EB00" stop-opacity="0.72"/>
</linearGradient>
</defs>
</svg>
