<svg width="24" height="24" viewBox="0 0 24 24" fill="none" xmlns="http://www.w3.org/2000/svg">
<path d="M20.1864 11.4858H18.7502C18.7227 11.4858 18.6962 11.4748 18.6768 11.4554C18.6573 11.4359 18.6463 11.4095 18.6463 11.3819V7.37141C18.6463 6.83627 18.4338 6.32305 18.0554 5.94465C17.677 5.56626 17.1638 5.35367 16.6286 5.35367H12.6181C12.5905 5.35367 12.5641 5.34273 12.5446 5.32326C12.5252 5.30378 12.5142 5.27737 12.5142 5.24983V3.81364C12.5142 2.40444 11.3979 1.22475 9.98869 1.20035C9.64727 1.19435 9.30807 1.25641 8.99089 1.3829C8.67371 1.50938 8.38489 1.69777 8.14129 1.93707C7.89769 2.17637 7.70419 2.46179 7.57207 2.77667C7.43995 3.09155 7.37186 3.42958 7.37177 3.77106V5.24983C7.37177 5.27737 7.36083 5.30378 7.34136 5.32326C7.32188 5.34273 7.29547 5.35367 7.26793 5.35367H3.25739C2.71229 5.35532 2.18999 5.57259 1.80455 5.95803C1.41911 6.34347 1.20184 6.86577 1.2002 7.41087V11.0652C1.2002 11.0928 1.21114 11.1192 1.23061 11.1386C1.25009 11.1581 1.2765 11.1691 1.30404 11.1691H2.70129C4.22627 11.1691 5.48852 12.4921 5.50981 14.017C5.53162 15.568 4.2891 16.9844 2.74283 16.9844H1.30404C1.2765 16.9844 1.25009 16.9954 1.23061 17.0149C1.21114 17.0343 1.2002 17.0607 1.2002 17.0883V20.7426C1.20184 21.2877 1.41911 21.81 1.80455 22.1955C2.18999 22.5809 2.71229 22.7982 3.25739 22.7998H6.91173C6.93928 22.7998 6.96569 22.7889 6.98516 22.7694C7.00464 22.7499 7.01558 22.7235 7.01558 22.696V21.6092C7.01558 20.037 8.30068 18.6834 9.87135 18.6465C11.4342 18.6102 12.831 19.7011 12.831 21.2572V22.696C12.831 22.7235 12.8419 22.7499 12.8614 22.7694C12.8809 22.7889 12.9073 22.7998 12.9348 22.7998H16.6286C17.1638 22.7998 17.677 22.5872 18.0554 22.2088C18.4338 21.8305 18.6463 21.3172 18.6463 20.7821V16.7321C18.6463 16.7046 18.6573 16.6781 18.6768 16.6587C18.6962 16.6392 18.7227 16.6283 18.7502 16.6283H20.229C21.6636 16.6283 22.8002 15.4512 22.8002 14.0113C22.8002 12.5715 21.5956 11.4858 20.1864 11.4858Z" fill="#8061E5"/>
</svg>
